<svg xmlns="http://www.w3.org/2000/svg" width="239.9" height="54.3" viewBox="0 0 239.9 54.3"><title>Asset 6</title><g id="Layer_2" data-name="Layer 2"><g id="Layer_1-2" data-name="Layer 1"><path d="M29.8,13.4h.1l3.8,18.1H22.2ZM24.6,1,0,53.2H13.1L17.4,43H36.2l2.1,10.2H50.7L38.7,1Z" fill="#fff"/><path d="M86,33.2H53.8l1.8-12.1H87.9Zm7.5-20.1H56.8L58.6,1H95.3ZM89.3,41H52.6L50.8,53.2H87.5Z" fill="#fff"/><path d="M129.7,39.8c-3.5,1.6-8.7,1.9-11.3,1.9-8.3,0-13.7-5.6-13.5-14,.3-8.8,7-15.2,16.1-15.2a17.14,17.14,0,0,1,11.5,4.3L135,4.3A27.06,27.06,0,0,0,120,0C105,0,92.6,12.5,92,28.3c-.5,15.3,9.4,26,24.1,26,2.6,0,8.1-.3,11.6-1.9Z" fill="#fff"/><path d="M169.5,28.9c1.9-8.8-1.4-15.7-8.1-17.1-7.3-1.5-14,4.1-16,13.4-1.9,8.8,1.4,15.7,8.1,17.1,7.3,1.5,14-4.1,16-13.4M160.9.1c14,1,22.6,12.4,21,27.5-1.6,15.7-14.2,27.3-28.5,26.3-14-1-22.6-12.4-21-27.5C134,10.7,146.7-.9,160.9.1" fill="#fff"/><polygon points="227.2 1 212.1 30.4 206 1 194.3 1 178.1 53.2 191 53.2 199.9 22.6 205.4 53.2 212 53.2 227.3 22.6 227.1 53.2 239.9 53.2 239 1 227.2 1" fill="#fff"/></g></g></svg>