<svg width="144" height="66" viewBox="0 0 144 66" fill="none" xmlns="http://www.w3.org/2000/svg">
<g clip-path="url(#clip0_403_87)">
<path d="M49.4299 0.169922H64.3899V64.9199H49.4299V0.169922ZM49.4299 0.169922H64.3899V64.9199H49.4299V0.169922ZM88.9199 17.8899H96.8899V29.9799H88.9199V47.2699C88.9199 51.3899 91.6899 52.3799 94.7399 52.3799C95.5399 52.3799 96.2699 52.3799 97.2399 52.2899V65.0899C97.2399 65.0899 95.2699 65.6199 91.5099 65.6199C80.3999 65.6199 73.9599 60.5099 73.9599 46.5399V29.9899H69.3999V17.8899H73.9599V7.94992H88.9199V17.8899V17.8899ZM123.02 15.9899C114.44 15.5799 107.23 19.6499 103.17 25.4299L112.93 32.9999C114.17 31.6199 117.14 28.9299 121.87 29.2999C127.89 29.7599 129.31 33.5099 129.51 35.3199C128.62 35.2599 127.15 35.1599 124.84 35.0799C113.91 34.7199 101.4 38.4699 101.4 50.7399C101.4 64.0799 119.1 69.3699 131.17 62.6699V64.9399H143.64V35.3399C143.64 24.6299 135.34 16.5799 123.02 15.9899V15.9899ZM126.95 52.9299C125.5 54.2899 123.38 55.0699 121.15 55.0699C118.03 55.0699 114.87 53.4399 114.87 50.3499C114.87 47.4299 118.32 45.8799 124.84 45.8799C127.12 45.8799 128.89 46.0699 128.97 46.0799L129.33 46.1199L129.4 46.4699C129.42 46.6199 130.06 50.0099 126.95 52.9299V52.9299ZM21.9799 15.9899C13.3999 15.5799 6.18986 19.6499 2.12986 25.4299L11.8899 32.9999C13.1299 31.6199 16.0999 28.9299 20.8299 29.2999C26.8499 29.7599 28.2699 33.5099 28.4699 35.3199C27.5799 35.2599 26.1099 35.1599 23.7999 35.0799C12.8599 34.7099 0.359863 38.4599 0.359863 50.7299C0.359863 64.0699 18.0599 69.3599 30.1299 62.6599V64.9299H42.5999V35.3399C42.5999 24.6299 34.2999 16.5799 21.9799 15.9899V15.9899ZM25.8999 52.9299C24.4499 54.2899 22.3299 55.0699 20.0999 55.0699C16.9799 55.0699 13.8199 53.4399 13.8199 50.3499C13.8199 47.4299 17.2699 45.8799 23.7899 45.8799C26.0699 45.8799 27.8399 46.0699 27.9199 46.0799L28.2799 46.1199L28.3499 46.4699C28.3799 46.6199 29.0199 50.0099 25.8999 52.9299V52.9299Z" fill="white" fill-opacity="0.5"/>
<path d="M64.3799 30.3604C59.5099 28.2504 54.5299 26.5904 49.4199 25.8104V64.9204H64.3799V30.3604ZM30.1299 62.6604V64.9304H42.5999V35.3404C42.5999 31.6604 41.6299 28.2904 39.8399 25.4404C33.6599 25.8404 27.9999 27.2404 22.5199 29.5204C27.1199 30.4804 28.2899 33.6804 28.4699 35.3104C27.5799 35.2504 26.1099 35.1504 23.7999 35.0704C12.8599 34.7104 0.359863 38.4604 0.359863 50.7304C0.359863 64.0704 18.0599 69.3504 30.1299 62.6604ZM23.7999 45.8804C26.0799 45.8804 27.8499 46.0704 27.9299 46.0804L28.2899 46.1204L28.3599 46.4704C28.3899 46.6104 29.0199 50.0004 25.9099 52.9204C24.4599 54.2804 22.3399 55.0604 20.1099 55.0604C16.9899 55.0604 13.8299 53.4304 13.8299 50.3404C13.8299 47.4204 17.2699 45.8804 23.7999 45.8804V45.8804ZM91.5099 65.6204C95.2699 65.6204 97.2399 65.0904 97.2399 65.0904V52.2904C96.2599 52.3804 95.5399 52.3804 94.7399 52.3804C91.6899 52.3804 88.9199 51.4004 88.9199 47.2704V43.1804C86.2699 41.8004 83.5799 40.3204 80.8599 38.8104C78.5799 37.5404 76.2799 36.2804 73.9699 35.0404V46.5604C73.9599 60.5204 80.3999 65.6204 91.5099 65.6204V65.6204ZM131.17 62.6604V64.9304H143.64V42.3004C142.12 43.2604 140.54 44.1804 138.9 45.0204C135.8 46.5904 132.62 47.8204 129.34 48.7304C129.1 49.9504 128.48 51.4904 126.95 52.9404C125.5 54.3004 123.38 55.0804 121.15 55.0804C118.13 55.0804 115.08 53.5504 114.89 50.6504C113.43 50.6504 111.96 50.6104 110.45 50.5104C107.49 50.3104 104.52 49.6704 101.54 48.7004C101.46 49.3504 101.41 50.0304 101.41 50.7404C101.4 64.0704 119.1 69.3504 131.17 62.6604Z" fill="white"/>
</g>
<defs>
<clipPath id="clip0_403_87">
<rect width="144" height="65.79" fill="white"/>
</clipPath>
</defs>
</svg>
