<svg width="259" height="280" viewBox="0 0 259 280" fill="none" xmlns="http://www.w3.org/2000/svg">
<g clip-path="url(#clip0_402_87)">
<path fill-rule="evenodd" clip-rule="evenodd" d="M24.2087 270.207H19.1637V265.93L30.3137 265.984V279.66H26.0807V277.169C25.8147 277.447 25.5277 277.725 25.2207 278.002C24.5477 278.587 23.7307 279.072 22.7877 279.436C21.8277 279.809 20.6447 280 19.2747 280C16.9447 280 14.8897 279.461 13.1657 278.4C11.4387 277.335 10.0927 275.806 9.15867 273.862C8.23267 271.935 7.76367 269.631 7.76367 267.012C7.76367 264.355 8.25767 262.018 9.23367 260.066C10.2047 258.106 11.5967 256.568 13.3657 255.495C15.1337 254.43 17.2147 253.891 19.5487 253.891C21.0637 253.891 22.4637 254.136 23.7047 254.616C24.9597 255.101 26.0647 255.773 26.9777 256.601C27.8813 257.405 28.625 258.372 29.1697 259.453C29.6913 260.485 29.9885 261.616 30.0417 262.772L30.0627 263.207H24.0247L23.9627 262.868C23.8312 262.158 23.554 261.484 23.1487 260.887C22.7545 260.297 22.2282 259.807 21.6117 259.457C20.9977 259.105 20.2667 258.926 19.4367 258.926C18.4317 258.926 17.5057 259.187 16.6957 259.701C15.8897 260.211 15.2377 261.052 14.7607 262.196C14.2747 263.365 14.0297 264.936 14.0297 266.875C14.0297 268.454 14.1917 269.772 14.5117 270.8C14.8227 271.811 15.2507 272.619 15.7777 273.203C16.3007 273.784 16.8947 274.194 17.5507 274.422C18.2198 274.667 18.927 274.792 19.6397 274.791C20.3087 274.791 20.9097 274.679 21.4297 274.463C21.9527 274.239 22.4097 273.949 22.7837 273.597C23.1607 273.241 23.4597 272.851 23.6677 272.445C23.8837 272.035 24.0167 271.629 24.0667 271.235L24.2067 270.207H24.2087ZM45.0867 253.895C47.4407 253.895 49.5217 254.429 51.2657 255.482C53.0177 256.543 54.3957 258.072 55.3517 260.028C56.2987 261.963 56.7797 264.309 56.7797 266.995C56.7797 269.643 56.3067 271.964 55.3677 273.895C54.4217 275.843 53.0507 277.364 51.2947 278.416C49.5507 279.469 47.4577 279.999 45.0827 279.999C42.6867 279.999 40.5807 279.465 38.8287 278.416C37.0757 277.372 35.6937 275.859 34.7297 273.911C33.7827 271.984 33.3017 269.659 33.3017 266.999C33.3017 264.326 33.7877 261.984 34.7507 260.045C35.7187 258.089 37.1057 256.559 38.8707 255.494C40.6347 254.433 42.7237 253.895 45.0867 253.895ZM45.0867 275.08C46.2037 275.08 47.1797 274.815 47.9847 274.293C48.7867 273.77 49.4177 272.921 49.8657 271.777C50.3187 270.592 50.5517 269.005 50.5517 267.065C50.5517 265.072 50.3147 263.447 49.8537 262.233C49.4097 261.052 48.7737 260.177 47.9687 259.63C47.1547 259.087 46.1867 258.81 45.0907 258.81C43.9907 258.81 43.0187 259.087 42.2047 259.63C41.3947 260.173 40.7517 261.052 40.2987 262.241C39.8287 263.464 39.5927 265.084 39.5927 267.061C39.5927 269.005 39.8297 270.592 40.2947 271.773C40.7467 272.921 41.3867 273.77 42.1967 274.288C43.0067 274.815 43.9777 275.08 45.0867 275.08V275.08ZM68.8507 272.15L62.6887 254.321H57.0907L65.7447 279.572H71.9397L80.6697 254.321H75.0627L68.8507 272.15ZM99.1627 269.323H88.8637V274.529L100.907 274.545V279.572H83.1037V254.321H100.736L100.72 259.311H88.8927V264.4H99.1627V269.323ZM121.645 267.794C122.33 267.181 122.891 266.393 123.323 265.453C123.742 264.52 123.958 263.372 123.958 262.034C123.958 260.537 123.647 259.199 123.028 258.051C122.409 256.882 121.429 255.958 120.109 255.295C118.809 254.648 117.136 254.321 115.134 254.321H104.396V279.564H110.155V270.16H114.395L118.386 279.564H124.432L119.781 269.108C120.454 268.751 121.081 268.308 121.645 267.794V267.794ZM118.132 262.154C118.132 263.153 117.796 263.944 117.107 264.582C116.417 265.212 115.458 265.531 114.25 265.531H110.155V258.925H114.611C115.649 258.925 116.484 259.211 117.156 259.8C117.813 260.376 118.132 261.147 118.132 262.154ZM133.291 254.321L143.818 269.551V254.321H149.594V279.572H144.508L133.528 263.712V279.572H127.769V254.321H133.291ZM167.24 270.782L161.95 254.321H154.056V279.572H159.865V263.306L164.989 279.572H169.474L174.636 263.215V279.572H180.462V254.321H172.584L167.24 270.782V270.782ZM200.967 269.323H190.669V274.529L202.715 274.545V279.572H184.909V254.321H202.545L202.524 259.311H190.706V264.4H200.967V269.323V269.323ZM222.461 269.551L211.938 254.321H206.411V279.572H212.167V263.712L223.146 279.572H228.233V254.321H222.461V269.551ZM238.047 259.547H230.659V254.321H251.061V259.547H243.844V279.572H238.047V259.547Z" fill="white"/>
<path fill-rule="evenodd" clip-rule="evenodd" d="M146.698 209.235C145.216 206.84 142.981 204.664 140.058 202.77C137.139 200.876 133.161 199.43 128.248 198.473L114.57 195.659C110.438 194.768 107.589 193.616 106.102 192.24C104.653 190.897 103.918 189.111 103.918 186.931C103.918 185.543 104.234 184.279 104.861 183.172C105.484 182.061 106.389 181.079 107.548 180.25C108.714 179.422 110.164 178.767 111.854 178.307C113.565 177.838 115.487 177.602 117.568 177.602C120.308 177.602 122.779 177.963 124.914 178.68C127.023 179.393 128.771 180.561 130.108 182.161C131.446 183.761 132.268 185.936 132.55 188.626L132.588 188.999H149.559L149.551 188.572C149.476 183.997 148.18 179.799 145.701 176.098C143.218 172.393 139.56 169.417 134.822 167.246C130.096 165.082 124.199 163.984 117.294 163.984C111.493 163.984 106.177 164.995 101.489 166.993C96.7894 168.995 93.0145 171.883 90.2775 175.58C87.5285 179.297 86.1574 183.744 86.1994 188.804C86.3114 194.979 88.1895 199.99 91.7765 203.707C95.3525 207.404 100.252 209.865 106.343 211.013L120.138 213.823C122.667 214.325 124.963 214.983 126.961 215.783C128.921 216.567 130.486 217.586 131.612 218.813C132.712 220.01 133.269 221.585 133.269 223.483C133.269 225.597 132.575 227.383 131.209 228.784C129.809 230.218 127.908 231.299 125.566 232.008C123.178 232.729 120.508 233.094 117.63 233.094C114.823 233.094 112.236 232.659 109.944 231.797C107.664 230.947 105.75 229.704 104.255 228.104C102.764 226.513 101.742 224.519 101.215 222.186L101.14 221.859H83.8455L83.8904 222.319C84.2974 226.364 85.5564 229.948 87.6284 232.978C89.6964 235.987 92.3454 238.523 95.5014 240.529C98.6494 242.522 102.178 244.043 105.995 245.042C109.813 246.038 113.743 246.542 117.688 246.542C124.154 246.542 129.888 245.523 134.734 243.508C139.601 241.486 143.451 238.701 146.183 235.232C148.936 231.739 150.331 227.756 150.331 223.384C150.331 221.32 150.099 219.024 149.634 216.562C149.156 214.08 148.168 211.614 146.698 209.235V209.235ZM25.9365 191.762L62.8525 245.074H77.8695V165.35H61.0715V216.632L25.7535 165.529L25.6285 165.35H9.18945V245.074H25.9375V191.762H25.9365ZM222.573 216.339L236.961 165.352H253.418L229.831 245.076H216.464L201.91 194.607L187.251 245.076H174.104L150.571 165.352H167.082L181.466 216.331L195.855 165.352H208.022L222.573 216.339V216.339Z" fill="white"/>
<path d="M122.292 145.572C102.542 143.148 83.3578 149.476 49.6018 140.309C46.1548 139.372 44.8838 143.003 46.7478 146.045C55.8178 160.848 101.629 149.248 122.383 147.11C123.289 147.015 123.197 145.684 122.292 145.572V145.572ZM208.736 140.309C174.98 149.476 155.795 143.148 136.045 145.572C135.14 145.684 135.045 147.019 135.954 147.11C156.713 149.248 202.52 160.848 211.589 146.045C213.453 143.003 212.183 139.372 208.736 140.309V140.309ZM59.8828 119.132C53.0188 109.074 47.4088 97.822 43.0648 85.442C29.9638 89.268 16.5548 94.788 2.90477 102.012C2.04635 102.458 1.32389 103.127 0.813258 103.949C0.302628 104.771 0.0226679 105.715 0.0027736 106.682C-0.0282688 107.648 0.201742 108.605 0.668607 109.452C1.13547 110.299 1.82193 111.004 2.65577 111.494C29.0868 127.296 54.9288 136.335 79.5858 138.427C72.2458 133.952 65.5138 127.383 59.8828 119.132V119.132ZM23.0598 85.513C28.9503 83.1535 34.949 81.0735 41.0358 79.28C38.9098 72.384 37.1658 65.16 35.7868 57.622C28.9598 56.772 21.8968 56.222 14.5878 55.981C14.5258 55.981 14.4598 55.977 14.3978 55.977C13.4642 55.9712 12.5451 56.208 11.7305 56.6641C10.9159 57.1202 10.2337 57.78 9.75077 58.579C9.24124 59.3983 8.96126 60.3395 8.94015 61.3041C8.91904 62.2687 9.15757 63.2212 9.63077 64.062C13.8738 71.721 18.3548 78.87 23.0598 85.512V85.513ZM88.0058 135.572C92.1048 137.379 96.2988 138.39 100.364 138.601C90.4108 131.481 82.5908 119.409 78.0858 104.021C72.2808 84.211 70.3408 62.355 72.2558 38.774C64.4238 33.838 55.9358 29.217 46.7958 24.924C45.9366 24.5161 44.9853 24.3412 44.0373 24.4166C43.0892 24.4921 42.1776 24.8154 41.3938 25.354C40.6057 25.8802 39.9701 26.6046 39.5509 27.4544C39.1317 28.3042 38.9437 29.2495 39.0058 30.195C41.1318 64.41 49.9558 93.11 65.2288 115.493C71.6328 124.884 79.5098 131.825 88.0058 135.572V135.572ZM107.489 23.577C102.659 17.7377 97.5695 12.118 92.2358 6.735C91.1728 5.657 89.8028 5.085 88.3858 5.085C87.8798 5.085 87.3688 5.16 86.8628 5.309C84.9398 5.877 83.5488 7.415 83.1298 9.424C82.0578 14.588 80.0198 25.114 79.1178 35.525C86.1318 40.138 92.6098 45.015 98.5438 50.146C100.844 41.389 103.834 32.516 107.489 23.577ZM255.421 102.007C241.771 94.784 228.363 89.263 215.261 85.438C210.918 97.818 205.308 109.069 198.443 119.127C192.813 127.382 186.081 133.947 178.735 138.423C203.393 136.33 229.235 127.291 255.666 111.489C257.381 110.465 258.373 108.667 258.319 106.678C258.274 104.688 257.186 102.944 255.421 102.007V102.007ZM235.274 85.513C239.979 78.87 244.46 71.717 248.704 64.058C249.667 62.318 249.626 60.27 248.583 58.575C248.082 57.749 247.37 57.0723 246.519 56.6154C245.668 56.1584 244.711 55.938 243.746 55.977C236.437 56.217 229.369 56.773 222.547 57.618C221.172 65.157 219.424 72.38 217.298 79.276C223.384 81.074 229.382 83.1553 235.274 85.513V85.513ZM180.248 104.025C175.743 119.409 167.919 131.485 157.97 138.605C162.035 138.394 166.233 137.378 170.328 135.571C178.824 131.825 186.701 124.883 193.105 115.496C208.378 93.113 217.202 64.414 219.328 30.199C219.39 29.2536 219.202 28.3085 218.783 27.4589C218.363 26.6092 217.728 25.885 216.94 25.359C216.156 24.82 215.245 24.4964 214.297 24.4206C213.348 24.3448 212.397 24.5194 211.538 24.927C202.398 29.217 193.91 33.837 186.078 38.777C187.993 62.359 186.049 84.211 180.248 104.025V104.025ZM179.215 35.52C178.314 25.114 176.275 14.588 175.204 9.42C174.788 7.41 173.393 5.873 171.471 5.305C170.976 5.15775 170.463 5.08232 169.947 5.081C168.531 5.081 167.16 5.653 166.097 6.731C160.612 12.28 155.529 17.895 150.845 23.573C154.499 32.512 157.489 41.385 159.794 50.138C165.728 45.011 172.201 40.133 179.215 35.521V35.52ZM129.145 87.229C135.785 74.137 146.391 62.4 154.355 54.986C149.983 37.207 143.251 20.436 133.958 2.889C132.999 1.078 131.196 0 129.149 0C127.102 0 125.304 1.082 124.341 2.889C114.952 20.493 108.104 38.011 103.964 54.982C112.277 62.67 123.244 75.206 129.145 87.229V87.229Z" fill="white"/>
<path d="M153.541 133.687C160.426 128.854 167.311 120.433 171.68 108.717C180.138 86.0356 181.014 60.7716 179.802 42.8936C164.471 53.1086 140.137 74.4436 131.827 97.2536C127.916 107.988 126.093 122.609 129.107 130.765C130.366 134.176 132.508 136.762 135.452 137.992C139.912 139.857 146.764 138.448 153.541 133.687V133.687ZM125.713 95.2616C123.686 90.5376 121.452 86.0816 117.985 81.0756C108.176 66.9156 94.9592 54.1426 78.5102 42.8906C78.3402 45.5426 75.9402 74.1876 84.3612 102.195C90.7692 123.497 101.715 132.175 107.715 135.528C113.753 138.897 119.276 139.693 125.754 138.085C119.189 129.15 120.007 110.815 125.713 95.2616V95.2616Z" fill="white"/>
</g>
<defs>
<clipPath id="clip0_402_87">
<rect width="259" height="280" fill="white"/>
</clipPath>
</defs>
</svg>
