<svg width="125" height="41" viewBox="0 0 125 41" fill="none" xmlns="http://www.w3.org/2000/svg">
<path d="M14.3474 36.2363C22.018 36.2363 28.2363 30.018 28.2363 22.3474C28.2363 14.6768 22.018 8.4585 14.3474 8.4585C6.67676 8.4585 0.458496 14.6768 0.458496 22.3474C0.458496 30.018 6.67676 36.2363 14.3474 36.2363Z" fill="#1A70A7" stroke="#1A70A7" stroke-width="0.0694444"/>
<path fill-rule="evenodd" clip-rule="evenodd" d="M18.8959 22.2812H21.8504L15.4931 30.7094V14.3267H18.8959V22.2812V22.2812ZM9.86809 22.5527H6.91357L13.2709 14.1245V30.5072H9.86809V22.5527Z" stroke="white" stroke-opacity="0.937274" stroke-width="0.902778" stroke-linejoin="round"/>
<mask id="path-3-outside-1_401_130" maskUnits="userSpaceOnUse" x="30.9521" y="19.6118" width="86" height="16" fill="black">
<rect fill="white" x="30.9521" y="19.6118" width="86" height="16"/>
<path d="M31.9521 21.1998H38.5321V22.8098H33.9681V25.4278H38.2241V27.0378H33.9681V30.9998H31.9521V21.1998Z"/>
<path d="M41.6712 31.1398C41.0739 31.1398 40.6165 30.9812 40.2992 30.6638C39.9912 30.3372 39.8372 29.8705 39.8372 29.2638V20.6118H41.6152V29.2918C41.6152 29.4972 41.6665 29.6511 41.7692 29.7538C41.8812 29.8471 42.0445 29.8938 42.2592 29.8938C42.4739 29.8938 42.7399 29.8332 43.0572 29.7118L43.3232 30.6638C42.9032 30.9812 42.3525 31.1398 41.6712 31.1398Z"/>
<path d="M46.8723 31.1398C45.743 31.1398 44.861 30.8178 44.2263 30.1738C43.5917 29.5298 43.2743 28.6385 43.2743 27.4998C43.2743 26.3612 43.5917 25.4698 44.2263 24.8258C44.861 24.1818 45.743 23.8598 46.8723 23.8598C48.0017 23.8598 48.8837 24.1818 49.5183 24.8258C50.1623 25.4698 50.4843 26.3612 50.4843 27.4998C50.4843 28.6385 50.1623 29.5298 49.5183 30.1738C48.8837 30.8178 48.0017 31.1398 46.8723 31.1398ZM46.8723 29.8098C47.4417 29.8098 47.8897 29.6045 48.2163 29.1938C48.543 28.7832 48.7063 28.2185 48.7063 27.4998C48.7063 26.7812 48.543 26.2165 48.2163 25.8058C47.8897 25.3951 47.4417 25.1898 46.8723 25.1898C46.303 25.1898 45.855 25.3951 45.5283 25.8058C45.211 26.2165 45.0523 26.7812 45.0523 27.4998C45.0523 28.2185 45.211 28.7832 45.5283 29.1938C45.855 29.6045 46.303 29.8098 46.8723 29.8098Z"/>
<path d="M60.6497 23.9998L58.8577 30.9998H57.2897L55.8897 25.9318L54.4897 30.9998H52.9077L51.1157 23.9998H52.9777L53.8597 28.3538L55.0917 23.9998H56.6737L57.9057 28.3538L58.7877 23.9998H60.6497Z"/>
<path d="M61.5042 25.8618C61.5042 24.9285 61.4855 24.3078 61.4482 23.9998H63.0162C63.0628 24.3732 63.0862 24.7792 63.0862 25.2178H63.1142C63.2635 24.7978 63.5342 24.4665 63.9262 24.2238C64.3182 23.9811 64.7755 23.8598 65.2982 23.8598C65.8022 23.8598 66.2315 23.9718 66.5862 24.1958C66.9408 24.4105 67.1788 24.7092 67.3002 25.0918C67.4868 24.7092 67.7715 24.4105 68.1542 24.1958C68.5368 23.9718 68.9662 23.8598 69.4422 23.8598C70.2168 23.8598 70.8235 24.1118 71.2622 24.6158C71.7102 25.1105 71.9342 25.7965 71.9342 26.6738V30.9998H70.1562V26.8698C70.1562 26.3752 70.0488 25.9925 69.8342 25.7218C69.6195 25.4418 69.3255 25.3018 68.9522 25.3018C68.5415 25.3018 68.2102 25.4465 67.9582 25.7358C67.7155 26.0158 67.5942 26.3985 67.5942 26.8838V30.9998H65.8302V26.9258C65.8302 26.4125 65.7275 26.0158 65.5222 25.7358C65.3168 25.4465 65.0275 25.3018 64.6542 25.3018C64.2528 25.3018 63.9215 25.4558 63.6602 25.7638C63.4082 26.0625 63.2822 26.4498 63.2822 26.9258V30.9998H61.5042V25.8618Z"/>
<path d="M75.486 31.1398C75.0287 31.1398 74.618 31.0465 74.254 30.8598C73.89 30.6638 73.6054 30.3978 73.4 30.0618C73.1947 29.7165 73.092 29.3338 73.092 28.9138C73.092 28.1952 73.3767 27.6445 73.946 27.2618C74.5154 26.8792 75.3274 26.6878 76.382 26.6878H77.474V26.3938C77.474 26.0205 77.362 25.7358 77.138 25.5398C76.9234 25.3345 76.6154 25.2318 76.214 25.2318C75.794 25.2318 75.3927 25.3065 75.01 25.4558C74.6274 25.6052 74.3147 25.8105 74.072 26.0718L73.288 25.0358C73.6707 24.6718 74.1234 24.3872 74.646 24.1818C75.1687 23.9671 75.71 23.8598 76.27 23.8598C77.2034 23.8598 77.936 24.0791 78.468 24.5178C79 24.9565 79.266 25.5632 79.266 26.3378V29.5298C79.266 29.7445 79.28 29.9965 79.308 30.2858C79.3454 30.5752 79.3874 30.8132 79.434 30.9998H77.852C77.796 30.8785 77.754 30.7618 77.726 30.6498C77.698 30.5285 77.6747 30.3652 77.656 30.1598H77.628C77.096 30.8132 76.382 31.1398 75.486 31.1398ZM75.92 29.7958C76.368 29.7958 76.7367 29.6838 77.026 29.4598C77.3247 29.2265 77.474 28.9325 77.474 28.5778V27.8778H76.326C75.85 27.8778 75.4814 27.9665 75.22 28.1438C74.968 28.3212 74.842 28.5778 74.842 28.9138C74.842 29.1938 74.9354 29.4132 75.122 29.5718C75.318 29.7212 75.584 29.7958 75.92 29.7958Z"/>
<path d="M80.8242 25.8618C80.8242 25.1058 80.8055 24.4852 80.7682 23.9998H82.4482C82.4762 24.2798 82.4902 24.5878 82.4902 24.9238H82.5182C82.7515 24.5878 83.0548 24.3265 83.4282 24.1398C83.8015 23.9531 84.2168 23.8598 84.6742 23.8598C85.5608 23.8598 86.2608 24.1865 86.7742 24.8398C87.2875 25.4932 87.5442 26.3845 87.5442 27.5138C87.5442 28.6432 87.2828 29.5298 86.7602 30.1738C86.2468 30.8178 85.5328 31.1398 84.6182 31.1398C84.1702 31.1398 83.7735 31.0652 83.4282 30.9158C83.0828 30.7665 82.8262 30.5565 82.6582 30.2858H82.6162V34.3878H80.8242V25.8618ZM84.2262 29.8098C84.7208 29.8098 85.0988 29.6092 85.3602 29.2078C85.6215 28.7972 85.7522 28.2138 85.7522 27.4578C85.7522 25.9738 85.2528 25.2318 84.2542 25.2318C83.7688 25.2318 83.3722 25.3765 83.0642 25.6658C82.7655 25.9458 82.6162 26.3192 82.6162 26.7858V28.2278C82.6162 28.6758 82.7702 29.0538 83.0782 29.3618C83.3862 29.6605 83.7688 29.8098 84.2262 29.8098Z"/>
<path d="M88.9502 21.1998H92.1282C93.2575 21.1998 94.1162 21.4098 94.7042 21.8298C95.2922 22.2405 95.5862 22.8472 95.5862 23.6498C95.5862 24.1165 95.4789 24.5178 95.2642 24.8538C95.0495 25.1898 94.7135 25.4745 94.2562 25.7078V25.7498C94.8535 25.9738 95.2829 26.2725 95.5442 26.6458C95.8149 27.0192 95.9502 27.5091 95.9502 28.1158C95.9502 29.0491 95.6749 29.7632 95.1242 30.2578C94.5829 30.7525 93.7895 30.9998 92.7442 30.9998H88.9502V21.1998ZM92.3102 25.1058C92.7022 25.1058 93.0055 24.9985 93.2202 24.7838C93.4442 24.5598 93.5562 24.2518 93.5562 23.8598C93.5562 23.4772 93.4302 23.1972 93.1782 23.0198C92.9355 22.8425 92.5575 22.7538 92.0442 22.7538H90.9662V25.1058H92.3102ZM92.5902 29.4458C93.0289 29.4458 93.3649 29.3198 93.5982 29.0678C93.8409 28.8158 93.9622 28.4565 93.9622 27.9898C93.9622 27.4952 93.8175 27.1358 93.5282 26.9118C93.2389 26.6878 92.7722 26.5758 92.1282 26.5758H90.9662V29.4458H92.5902Z"/>
<path d="M99.1204 31.1398C98.5231 31.1398 98.0658 30.9812 97.7484 30.6638C97.4404 30.3372 97.2864 29.8705 97.2864 29.2638V20.6118H99.0644V29.2918C99.0644 29.4972 99.1158 29.6511 99.2184 29.7538C99.3304 29.8471 99.4938 29.8938 99.7084 29.8938C99.9231 29.8938 100.189 29.8332 100.506 29.7118L100.772 30.6638C100.352 30.9812 99.8018 31.1398 99.1204 31.1398Z"/>
<path d="M103.821 31.1398C103.019 31.1398 102.407 30.8692 101.987 30.3278C101.577 29.7865 101.371 28.9932 101.371 27.9478V23.9998H103.163V27.9618C103.163 28.5592 103.261 28.9978 103.457 29.2778C103.653 29.5578 103.957 29.6978 104.367 29.6978C104.862 29.6978 105.268 29.5112 105.585 29.1378C105.903 28.7552 106.061 28.2838 106.061 27.7238V23.9998H107.853V29.2218C107.853 29.6978 107.891 30.2905 107.965 30.9998H106.271C106.197 30.5798 106.155 30.1691 106.145 29.7678H106.117C105.949 30.1878 105.655 30.5238 105.235 30.7758C104.825 31.0185 104.353 31.1398 103.821 31.1398Z"/>
<path d="M115.701 28.1578H110.829C110.978 29.1472 111.552 29.6418 112.551 29.6418C112.962 29.6418 113.316 29.5718 113.615 29.4318C113.923 29.2918 114.222 29.0585 114.511 28.7318L115.477 29.6558C115.206 30.1038 114.796 30.4632 114.245 30.7338C113.704 31.0045 113.106 31.1398 112.453 31.1398C111.361 31.1398 110.512 30.8225 109.905 30.1878C109.298 29.5438 108.995 28.6572 108.995 27.5278C108.995 26.3892 109.298 25.4932 109.905 24.8398C110.521 24.1865 111.366 23.8598 112.439 23.8598C113.466 23.8598 114.264 24.1818 114.833 24.8258C115.412 25.4698 115.701 26.3658 115.701 27.5138V28.1578ZM113.951 26.8558C113.951 26.3798 113.811 26.0065 113.531 25.7358C113.26 25.4558 112.882 25.3158 112.397 25.3158C111.958 25.3158 111.604 25.4605 111.333 25.7498C111.062 26.0298 110.89 26.4265 110.815 26.9398H113.951V26.8558Z"/>
</mask>
<path d="M31.9521 21.1998H38.5321V22.8098H33.9681V25.4278H38.2241V27.0378H33.9681V30.9998H31.9521V21.1998Z" fill="white"/>
<path d="M41.6712 31.1398C41.0739 31.1398 40.6165 30.9812 40.2992 30.6638C39.9912 30.3372 39.8372 29.8705 39.8372 29.2638V20.6118H41.6152V29.2918C41.6152 29.4972 41.6665 29.6511 41.7692 29.7538C41.8812 29.8471 42.0445 29.8938 42.2592 29.8938C42.4739 29.8938 42.7399 29.8332 43.0572 29.7118L43.3232 30.6638C42.9032 30.9812 42.3525 31.1398 41.6712 31.1398Z" fill="white"/>
<path d="M46.8723 31.1398C45.743 31.1398 44.861 30.8178 44.2263 30.1738C43.5917 29.5298 43.2743 28.6385 43.2743 27.4998C43.2743 26.3612 43.5917 25.4698 44.2263 24.8258C44.861 24.1818 45.743 23.8598 46.8723 23.8598C48.0017 23.8598 48.8837 24.1818 49.5183 24.8258C50.1623 25.4698 50.4843 26.3612 50.4843 27.4998C50.4843 28.6385 50.1623 29.5298 49.5183 30.1738C48.8837 30.8178 48.0017 31.1398 46.8723 31.1398ZM46.8723 29.8098C47.4417 29.8098 47.8897 29.6045 48.2163 29.1938C48.543 28.7832 48.7063 28.2185 48.7063 27.4998C48.7063 26.7812 48.543 26.2165 48.2163 25.8058C47.8897 25.3951 47.4417 25.1898 46.8723 25.1898C46.303 25.1898 45.855 25.3951 45.5283 25.8058C45.211 26.2165 45.0523 26.7812 45.0523 27.4998C45.0523 28.2185 45.211 28.7832 45.5283 29.1938C45.855 29.6045 46.303 29.8098 46.8723 29.8098Z" fill="white"/>
<path d="M60.6497 23.9998L58.8577 30.9998H57.2897L55.8897 25.9318L54.4897 30.9998H52.9077L51.1157 23.9998H52.9777L53.8597 28.3538L55.0917 23.9998H56.6737L57.9057 28.3538L58.7877 23.9998H60.6497Z" fill="white"/>
<path d="M61.5042 25.8618C61.5042 24.9285 61.4855 24.3078 61.4482 23.9998H63.0162C63.0628 24.3732 63.0862 24.7792 63.0862 25.2178H63.1142C63.2635 24.7978 63.5342 24.4665 63.9262 24.2238C64.3182 23.9811 64.7755 23.8598 65.2982 23.8598C65.8022 23.8598 66.2315 23.9718 66.5862 24.1958C66.9408 24.4105 67.1788 24.7092 67.3002 25.0918C67.4868 24.7092 67.7715 24.4105 68.1542 24.1958C68.5368 23.9718 68.9662 23.8598 69.4422 23.8598C70.2168 23.8598 70.8235 24.1118 71.2622 24.6158C71.7102 25.1105 71.9342 25.7965 71.9342 26.6738V30.9998H70.1562V26.8698C70.1562 26.3752 70.0488 25.9925 69.8342 25.7218C69.6195 25.4418 69.3255 25.3018 68.9522 25.3018C68.5415 25.3018 68.2102 25.4465 67.9582 25.7358C67.7155 26.0158 67.5942 26.3985 67.5942 26.8838V30.9998H65.8302V26.9258C65.8302 26.4125 65.7275 26.0158 65.5222 25.7358C65.3168 25.4465 65.0275 25.3018 64.6542 25.3018C64.2528 25.3018 63.9215 25.4558 63.6602 25.7638C63.4082 26.0625 63.2822 26.4498 63.2822 26.9258V30.9998H61.5042V25.8618Z" fill="white"/>
<path d="M75.486 31.1398C75.0287 31.1398 74.618 31.0465 74.254 30.8598C73.89 30.6638 73.6054 30.3978 73.4 30.0618C73.1947 29.7165 73.092 29.3338 73.092 28.9138C73.092 28.1952 73.3767 27.6445 73.946 27.2618C74.5154 26.8792 75.3274 26.6878 76.382 26.6878H77.474V26.3938C77.474 26.0205 77.362 25.7358 77.138 25.5398C76.9234 25.3345 76.6154 25.2318 76.214 25.2318C75.794 25.2318 75.3927 25.3065 75.01 25.4558C74.6274 25.6052 74.3147 25.8105 74.072 26.0718L73.288 25.0358C73.6707 24.6718 74.1234 24.3872 74.646 24.1818C75.1687 23.9671 75.71 23.8598 76.27 23.8598C77.2034 23.8598 77.936 24.0791 78.468 24.5178C79 24.9565 79.266 25.5632 79.266 26.3378V29.5298C79.266 29.7445 79.28 29.9965 79.308 30.2858C79.3454 30.5752 79.3874 30.8132 79.434 30.9998H77.852C77.796 30.8785 77.754 30.7618 77.726 30.6498C77.698 30.5285 77.6747 30.3652 77.656 30.1598H77.628C77.096 30.8132 76.382 31.1398 75.486 31.1398ZM75.92 29.7958C76.368 29.7958 76.7367 29.6838 77.026 29.4598C77.3247 29.2265 77.474 28.9325 77.474 28.5778V27.8778H76.326C75.85 27.8778 75.4814 27.9665 75.22 28.1438C74.968 28.3212 74.842 28.5778 74.842 28.9138C74.842 29.1938 74.9354 29.4132 75.122 29.5718C75.318 29.7212 75.584 29.7958 75.92 29.7958Z" fill="white"/>
<path d="M80.8242 25.8618C80.8242 25.1058 80.8055 24.4852 80.7682 23.9998H82.4482C82.4762 24.2798 82.4902 24.5878 82.4902 24.9238H82.5182C82.7515 24.5878 83.0548 24.3265 83.4282 24.1398C83.8015 23.9531 84.2168 23.8598 84.6742 23.8598C85.5608 23.8598 86.2608 24.1865 86.7742 24.8398C87.2875 25.4932 87.5442 26.3845 87.5442 27.5138C87.5442 28.6432 87.2828 29.5298 86.7602 30.1738C86.2468 30.8178 85.5328 31.1398 84.6182 31.1398C84.1702 31.1398 83.7735 31.0652 83.4282 30.9158C83.0828 30.7665 82.8262 30.5565 82.6582 30.2858H82.6162V34.3878H80.8242V25.8618ZM84.2262 29.8098C84.7208 29.8098 85.0988 29.6092 85.3602 29.2078C85.6215 28.7972 85.7522 28.2138 85.7522 27.4578C85.7522 25.9738 85.2528 25.2318 84.2542 25.2318C83.7688 25.2318 83.3722 25.3765 83.0642 25.6658C82.7655 25.9458 82.6162 26.3192 82.6162 26.7858V28.2278C82.6162 28.6758 82.7702 29.0538 83.0782 29.3618C83.3862 29.6605 83.7688 29.8098 84.2262 29.8098Z" fill="white"/>
<path d="M88.9502 21.1998H92.1282C93.2575 21.1998 94.1162 21.4098 94.7042 21.8298C95.2922 22.2405 95.5862 22.8472 95.5862 23.6498C95.5862 24.1165 95.4789 24.5178 95.2642 24.8538C95.0495 25.1898 94.7135 25.4745 94.2562 25.7078V25.7498C94.8535 25.9738 95.2829 26.2725 95.5442 26.6458C95.8149 27.0192 95.9502 27.5091 95.9502 28.1158C95.9502 29.0491 95.6749 29.7632 95.1242 30.2578C94.5829 30.7525 93.7895 30.9998 92.7442 30.9998H88.9502V21.1998ZM92.3102 25.1058C92.7022 25.1058 93.0055 24.9985 93.2202 24.7838C93.4442 24.5598 93.5562 24.2518 93.5562 23.8598C93.5562 23.4772 93.4302 23.1972 93.1782 23.0198C92.9355 22.8425 92.5575 22.7538 92.0442 22.7538H90.9662V25.1058H92.3102ZM92.5902 29.4458C93.0289 29.4458 93.3649 29.3198 93.5982 29.0678C93.8409 28.8158 93.9622 28.4565 93.9622 27.9898C93.9622 27.4952 93.8175 27.1358 93.5282 26.9118C93.2389 26.6878 92.7722 26.5758 92.1282 26.5758H90.9662V29.4458H92.5902Z" fill="white"/>
<path d="M99.1204 31.1398C98.5231 31.1398 98.0658 30.9812 97.7484 30.6638C97.4404 30.3372 97.2864 29.8705 97.2864 29.2638V20.6118H99.0644V29.2918C99.0644 29.4972 99.1158 29.6511 99.2184 29.7538C99.3304 29.8471 99.4938 29.8938 99.7084 29.8938C99.9231 29.8938 100.189 29.8332 100.506 29.7118L100.772 30.6638C100.352 30.9812 99.8018 31.1398 99.1204 31.1398Z" fill="white"/>
<path d="M103.821 31.1398C103.019 31.1398 102.407 30.8692 101.987 30.3278C101.577 29.7865 101.371 28.9932 101.371 27.9478V23.9998H103.163V27.9618C103.163 28.5592 103.261 28.9978 103.457 29.2778C103.653 29.5578 103.957 29.6978 104.367 29.6978C104.862 29.6978 105.268 29.5112 105.585 29.1378C105.903 28.7552 106.061 28.2838 106.061 27.7238V23.9998H107.853V29.2218C107.853 29.6978 107.891 30.2905 107.965 30.9998H106.271C106.197 30.5798 106.155 30.1691 106.145 29.7678H106.117C105.949 30.1878 105.655 30.5238 105.235 30.7758C104.825 31.0185 104.353 31.1398 103.821 31.1398Z" fill="white"/>
<path d="M115.701 28.1578H110.829C110.978 29.1472 111.552 29.6418 112.551 29.6418C112.962 29.6418 113.316 29.5718 113.615 29.4318C113.923 29.2918 114.222 29.0585 114.511 28.7318L115.477 29.6558C115.206 30.1038 114.796 30.4632 114.245 30.7338C113.704 31.0045 113.106 31.1398 112.453 31.1398C111.361 31.1398 110.512 30.8225 109.905 30.1878C109.298 29.5438 108.995 28.6572 108.995 27.5278C108.995 26.3892 109.298 25.4932 109.905 24.8398C110.521 24.1865 111.366 23.8598 112.439 23.8598C113.466 23.8598 114.264 24.1818 114.833 24.8258C115.412 25.4698 115.701 26.3658 115.701 27.5138V28.1578ZM113.951 26.8558C113.951 26.3798 113.811 26.0065 113.531 25.7358C113.26 25.4558 112.882 25.3158 112.397 25.3158C111.958 25.3158 111.604 25.4605 111.333 25.7498C111.062 26.0298 110.89 26.4265 110.815 26.9398H113.951V26.8558Z" fill="white"/>
<path d="M31.9521 21.1998H38.5321V22.8098H33.9681V25.4278H38.2241V27.0378H33.9681V30.9998H31.9521V21.1998Z" stroke="#1A70A7" mask="url(#path-3-outside-1_401_130)"/>
<path d="M41.6712 31.1398C41.0739 31.1398 40.6165 30.9812 40.2992 30.6638C39.9912 30.3372 39.8372 29.8705 39.8372 29.2638V20.6118H41.6152V29.2918C41.6152 29.4972 41.6665 29.6511 41.7692 29.7538C41.8812 29.8471 42.0445 29.8938 42.2592 29.8938C42.4739 29.8938 42.7399 29.8332 43.0572 29.7118L43.3232 30.6638C42.9032 30.9812 42.3525 31.1398 41.6712 31.1398Z" stroke="#1A70A7" mask="url(#path-3-outside-1_401_130)"/>
<path d="M46.8723 31.1398C45.743 31.1398 44.861 30.8178 44.2263 30.1738C43.5917 29.5298 43.2743 28.6385 43.2743 27.4998C43.2743 26.3612 43.5917 25.4698 44.2263 24.8258C44.861 24.1818 45.743 23.8598 46.8723 23.8598C48.0017 23.8598 48.8837 24.1818 49.5183 24.8258C50.1623 25.4698 50.4843 26.3612 50.4843 27.4998C50.4843 28.6385 50.1623 29.5298 49.5183 30.1738C48.8837 30.8178 48.0017 31.1398 46.8723 31.1398ZM46.8723 29.8098C47.4417 29.8098 47.8897 29.6045 48.2163 29.1938C48.543 28.7832 48.7063 28.2185 48.7063 27.4998C48.7063 26.7812 48.543 26.2165 48.2163 25.8058C47.8897 25.3951 47.4417 25.1898 46.8723 25.1898C46.303 25.1898 45.855 25.3951 45.5283 25.8058C45.211 26.2165 45.0523 26.7812 45.0523 27.4998C45.0523 28.2185 45.211 28.7832 45.5283 29.1938C45.855 29.6045 46.303 29.8098 46.8723 29.8098Z" stroke="#1A70A7" mask="url(#path-3-outside-1_401_130)"/>
<path d="M60.6497 23.9998L58.8577 30.9998H57.2897L55.8897 25.9318L54.4897 30.9998H52.9077L51.1157 23.9998H52.9777L53.8597 28.3538L55.0917 23.9998H56.6737L57.9057 28.3538L58.7877 23.9998H60.6497Z" stroke="#1A70A7" mask="url(#path-3-outside-1_401_130)"/>
<path d="M61.5042 25.8618C61.5042 24.9285 61.4855 24.3078 61.4482 23.9998H63.0162C63.0628 24.3732 63.0862 24.7792 63.0862 25.2178H63.1142C63.2635 24.7978 63.5342 24.4665 63.9262 24.2238C64.3182 23.9811 64.7755 23.8598 65.2982 23.8598C65.8022 23.8598 66.2315 23.9718 66.5862 24.1958C66.9408 24.4105 67.1788 24.7092 67.3002 25.0918C67.4868 24.7092 67.7715 24.4105 68.1542 24.1958C68.5368 23.9718 68.9662 23.8598 69.4422 23.8598C70.2168 23.8598 70.8235 24.1118 71.2622 24.6158C71.7102 25.1105 71.9342 25.7965 71.9342 26.6738V30.9998H70.1562V26.8698C70.1562 26.3752 70.0488 25.9925 69.8342 25.7218C69.6195 25.4418 69.3255 25.3018 68.9522 25.3018C68.5415 25.3018 68.2102 25.4465 67.9582 25.7358C67.7155 26.0158 67.5942 26.3985 67.5942 26.8838V30.9998H65.8302V26.9258C65.8302 26.4125 65.7275 26.0158 65.5222 25.7358C65.3168 25.4465 65.0275 25.3018 64.6542 25.3018C64.2528 25.3018 63.9215 25.4558 63.6602 25.7638C63.4082 26.0625 63.2822 26.4498 63.2822 26.9258V30.9998H61.5042V25.8618Z" stroke="#1A70A7" mask="url(#path-3-outside-1_401_130)"/>
<path d="M75.486 31.1398C75.0287 31.1398 74.618 31.0465 74.254 30.8598C73.89 30.6638 73.6054 30.3978 73.4 30.0618C73.1947 29.7165 73.092 29.3338 73.092 28.9138C73.092 28.1952 73.3767 27.6445 73.946 27.2618C74.5154 26.8792 75.3274 26.6878 76.382 26.6878H77.474V26.3938C77.474 26.0205 77.362 25.7358 77.138 25.5398C76.9234 25.3345 76.6154 25.2318 76.214 25.2318C75.794 25.2318 75.3927 25.3065 75.01 25.4558C74.6274 25.6052 74.3147 25.8105 74.072 26.0718L73.288 25.0358C73.6707 24.6718 74.1234 24.3872 74.646 24.1818C75.1687 23.9671 75.71 23.8598 76.27 23.8598C77.2034 23.8598 77.936 24.0791 78.468 24.5178C79 24.9565 79.266 25.5632 79.266 26.3378V29.5298C79.266 29.7445 79.28 29.9965 79.308 30.2858C79.3454 30.5752 79.3874 30.8132 79.434 30.9998H77.852C77.796 30.8785 77.754 30.7618 77.726 30.6498C77.698 30.5285 77.6747 30.3652 77.656 30.1598H77.628C77.096 30.8132 76.382 31.1398 75.486 31.1398ZM75.92 29.7958C76.368 29.7958 76.7367 29.6838 77.026 29.4598C77.3247 29.2265 77.474 28.9325 77.474 28.5778V27.8778H76.326C75.85 27.8778 75.4814 27.9665 75.22 28.1438C74.968 28.3212 74.842 28.5778 74.842 28.9138C74.842 29.1938 74.9354 29.4132 75.122 29.5718C75.318 29.7212 75.584 29.7958 75.92 29.7958Z" stroke="#1A70A7" mask="url(#path-3-outside-1_401_130)"/>
<path d="M80.8242 25.8618C80.8242 25.1058 80.8055 24.4852 80.7682 23.9998H82.4482C82.4762 24.2798 82.4902 24.5878 82.4902 24.9238H82.5182C82.7515 24.5878 83.0548 24.3265 83.4282 24.1398C83.8015 23.9531 84.2168 23.8598 84.6742 23.8598C85.5608 23.8598 86.2608 24.1865 86.7742 24.8398C87.2875 25.4932 87.5442 26.3845 87.5442 27.5138C87.5442 28.6432 87.2828 29.5298 86.7602 30.1738C86.2468 30.8178 85.5328 31.1398 84.6182 31.1398C84.1702 31.1398 83.7735 31.0652 83.4282 30.9158C83.0828 30.7665 82.8262 30.5565 82.6582 30.2858H82.6162V34.3878H80.8242V25.8618ZM84.2262 29.8098C84.7208 29.8098 85.0988 29.6092 85.3602 29.2078C85.6215 28.7972 85.7522 28.2138 85.7522 27.4578C85.7522 25.9738 85.2528 25.2318 84.2542 25.2318C83.7688 25.2318 83.3722 25.3765 83.0642 25.6658C82.7655 25.9458 82.6162 26.3192 82.6162 26.7858V28.2278C82.6162 28.6758 82.7702 29.0538 83.0782 29.3618C83.3862 29.6605 83.7688 29.8098 84.2262 29.8098Z" stroke="#1A70A7" mask="url(#path-3-outside-1_401_130)"/>
<path d="M88.9502 21.1998H92.1282C93.2575 21.1998 94.1162 21.4098 94.7042 21.8298C95.2922 22.2405 95.5862 22.8472 95.5862 23.6498C95.5862 24.1165 95.4789 24.5178 95.2642 24.8538C95.0495 25.1898 94.7135 25.4745 94.2562 25.7078V25.7498C94.8535 25.9738 95.2829 26.2725 95.5442 26.6458C95.8149 27.0192 95.9502 27.5091 95.9502 28.1158C95.9502 29.0491 95.6749 29.7632 95.1242 30.2578C94.5829 30.7525 93.7895 30.9998 92.7442 30.9998H88.9502V21.1998ZM92.3102 25.1058C92.7022 25.1058 93.0055 24.9985 93.2202 24.7838C93.4442 24.5598 93.5562 24.2518 93.5562 23.8598C93.5562 23.4772 93.4302 23.1972 93.1782 23.0198C92.9355 22.8425 92.5575 22.7538 92.0442 22.7538H90.9662V25.1058H92.3102ZM92.5902 29.4458C93.0289 29.4458 93.3649 29.3198 93.5982 29.0678C93.8409 28.8158 93.9622 28.4565 93.9622 27.9898C93.9622 27.4952 93.8175 27.1358 93.5282 26.9118C93.2389 26.6878 92.7722 26.5758 92.1282 26.5758H90.9662V29.4458H92.5902Z" stroke="#1A70A7" mask="url(#path-3-outside-1_401_130)"/>
<path d="M99.1204 31.1398C98.5231 31.1398 98.0658 30.9812 97.7484 30.6638C97.4404 30.3372 97.2864 29.8705 97.2864 29.2638V20.6118H99.0644V29.2918C99.0644 29.4972 99.1158 29.6511 99.2184 29.7538C99.3304 29.8471 99.4938 29.8938 99.7084 29.8938C99.9231 29.8938 100.189 29.8332 100.506 29.7118L100.772 30.6638C100.352 30.9812 99.8018 31.1398 99.1204 31.1398Z" stroke="#1A70A7" mask="url(#path-3-outside-1_401_130)"/>
<path d="M103.821 31.1398C103.019 31.1398 102.407 30.8692 101.987 30.3278C101.577 29.7865 101.371 28.9932 101.371 27.9478V23.9998H103.163V27.9618C103.163 28.5592 103.261 28.9978 103.457 29.2778C103.653 29.5578 103.957 29.6978 104.367 29.6978C104.862 29.6978 105.268 29.5112 105.585 29.1378C105.903 28.7552 106.061 28.2838 106.061 27.7238V23.9998H107.853V29.2218C107.853 29.6978 107.891 30.2905 107.965 30.9998H106.271C106.197 30.5798 106.155 30.1691 106.145 29.7678H106.117C105.949 30.1878 105.655 30.5238 105.235 30.7758C104.825 31.0185 104.353 31.1398 103.821 31.1398Z" stroke="#1A70A7" mask="url(#path-3-outside-1_401_130)"/>
<path d="M115.701 28.1578H110.829C110.978 29.1472 111.552 29.6418 112.551 29.6418C112.962 29.6418 113.316 29.5718 113.615 29.4318C113.923 29.2918 114.222 29.0585 114.511 28.7318L115.477 29.6558C115.206 30.1038 114.796 30.4632 114.245 30.7338C113.704 31.0045 113.106 31.1398 112.453 31.1398C111.361 31.1398 110.512 30.8225 109.905 30.1878C109.298 29.5438 108.995 28.6572 108.995 27.5278C108.995 26.3892 109.298 25.4932 109.905 24.8398C110.521 24.1865 111.366 23.8598 112.439 23.8598C113.466 23.8598 114.264 24.1818 114.833 24.8258C115.412 25.4698 115.701 26.3658 115.701 27.5138V28.1578ZM113.951 26.8558C113.951 26.3798 113.811 26.0065 113.531 25.7358C113.26 25.4558 112.882 25.3158 112.397 25.3158C111.958 25.3158 111.604 25.4605 111.333 25.7498C111.062 26.0298 110.89 26.4265 110.815 26.9398H113.951V26.8558Z" stroke="#1A70A7" mask="url(#path-3-outside-1_401_130)"/>
<mask id="path-4-outside-2_401_130" maskUnits="userSpaceOnUse" x="30.4722" y="10.064" width="41" height="10" fill="black">
<rect fill="white" x="30.4722" y="10.064" width="41" height="10"/>
<path d="M31.5042 14.008C31.5042 13.6666 31.4935 13.3306 31.4722 13H32.0962C32.1122 13.1973 32.1202 13.408 32.1202 13.632H32.1362C32.2482 13.4186 32.4215 13.248 32.6562 13.12C32.8908 12.9866 33.1442 12.92 33.4162 12.92C33.9335 12.92 34.3388 13.104 34.6322 13.472C34.9255 13.84 35.0722 14.3493 35.0722 15C35.0722 15.4213 35.0028 15.7893 34.8642 16.104C34.7255 16.4133 34.5282 16.6533 34.2722 16.824C34.0215 16.9946 33.7282 17.08 33.3922 17.08C33.1148 17.08 32.8722 17.0266 32.6642 16.92C32.4562 16.8133 32.3042 16.664 32.2082 16.472H32.1842V18.936H31.5042V14.008ZM33.2882 16.56C33.6295 16.56 33.8988 16.4186 34.0962 16.136C34.2935 15.848 34.3922 15.4613 34.3922 14.976C34.3922 14.4906 34.2962 14.1173 34.1042 13.856C33.9122 13.5946 33.6428 13.464 33.2962 13.464C32.9708 13.464 32.7042 13.5706 32.4962 13.784C32.2882 13.9973 32.1842 14.2693 32.1842 14.6V15.328C32.1842 15.696 32.2855 15.9946 32.4882 16.224C32.6908 16.448 32.9575 16.56 33.2882 16.56Z"/>
<path d="M37.5835 17.08C37.1889 17.08 36.8449 16.9973 36.5515 16.832C36.2635 16.6613 36.0395 16.4186 35.8795 16.104C35.7249 15.7893 35.6475 15.4213 35.6475 15C35.6475 14.5786 35.7249 14.2106 35.8795 13.896C36.0395 13.5813 36.2635 13.3413 36.5515 13.176C36.8449 13.0053 37.1889 12.92 37.5835 12.92C38.1809 12.92 38.6529 13.1066 38.9995 13.48C39.3515 13.8533 39.5275 14.36 39.5275 15C39.5275 15.64 39.3515 16.1466 38.9995 16.52C38.6529 16.8933 38.1809 17.08 37.5835 17.08ZM37.5835 16.56C37.9782 16.56 38.2875 16.4213 38.5115 16.144C38.7355 15.8666 38.8475 15.4853 38.8475 15C38.8475 14.5146 38.7355 14.1333 38.5115 13.856C38.2875 13.5786 37.9782 13.44 37.5835 13.44C37.1942 13.44 36.8875 13.5786 36.6635 13.856C36.4395 14.1333 36.3275 14.5146 36.3275 15C36.3275 15.4853 36.4395 15.8666 36.6635 16.144C36.8875 16.4213 37.1942 16.56 37.5835 16.56Z"/>
<path d="M45.0687 13L44.0687 17H43.4527L42.4847 13.728L41.5167 17H40.9007L39.9007 13H40.6127L41.2607 16.072L42.1727 13H42.7967L43.7087 16.072L44.3567 13H45.0687Z"/>
<path d="M49.0124 15.264H46.1324C46.1698 15.6693 46.2898 15.9786 46.4924 16.192C46.6951 16.4 46.9751 16.504 47.3324 16.504C47.8124 16.504 48.1938 16.3146 48.4764 15.936L48.8604 16.304C48.7058 16.5493 48.4898 16.7413 48.2124 16.88C47.9404 17.0133 47.6391 17.08 47.3084 17.08C46.7164 17.08 46.2578 16.8986 45.9324 16.536C45.6071 16.1733 45.4444 15.664 45.4444 15.008C45.4444 14.3573 45.6071 13.848 45.9324 13.48C46.2631 13.1066 46.7164 12.92 47.2924 12.92C47.8311 12.92 48.2524 13.104 48.5564 13.472C48.8604 13.8346 49.0124 14.344 49.0124 15V15.264ZM48.3884 14.704C48.3884 14.32 48.2871 14.0186 48.0844 13.8C47.8871 13.5813 47.6124 13.472 47.2604 13.472C46.9298 13.472 46.6658 13.584 46.4684 13.808C46.2764 14.032 46.1644 14.3493 46.1324 14.76H48.3884V14.704Z"/>
<path d="M49.833 13.976C49.833 13.5226 49.825 13.1973 49.809 13H50.441C50.4624 13.2133 50.473 13.448 50.473 13.704V13.784H50.497C50.5984 13.5066 50.761 13.2933 50.985 13.144C51.209 12.9946 51.473 12.92 51.777 12.92C51.8624 12.92 51.9397 12.928 52.009 12.944V13.504C51.9397 13.488 51.8464 13.48 51.729 13.48C51.505 13.48 51.2997 13.5493 51.113 13.688C50.9264 13.8213 50.7797 14.0053 50.673 14.24C50.5664 14.4746 50.513 14.7306 50.513 15.008V17H49.833V13.976Z"/>
<path d="M55.9499 15.264H53.0699C53.1073 15.6693 53.2273 15.9786 53.4299 16.192C53.6326 16.4 53.9126 16.504 54.2699 16.504C54.7499 16.504 55.1313 16.3146 55.4139 15.936L55.7979 16.304C55.6433 16.5493 55.4273 16.7413 55.1499 16.88C54.8779 17.0133 54.5766 17.08 54.2459 17.08C53.6539 17.08 53.1953 16.8986 52.8699 16.536C52.5446 16.1733 52.3819 15.664 52.3819 15.008C52.3819 14.3573 52.5446 13.848 52.8699 13.48C53.2006 13.1066 53.6539 12.92 54.2299 12.92C54.7686 12.92 55.1899 13.104 55.4939 13.472C55.7979 13.8346 55.9499 14.344 55.9499 15V15.264ZM55.3259 14.704C55.3259 14.32 55.2246 14.0186 55.0219 13.8C54.8246 13.5813 54.5499 13.472 54.1979 13.472C53.8673 13.472 53.6033 13.584 53.4059 13.808C53.2139 14.032 53.1019 14.3493 53.0699 14.76H55.3259V14.704Z"/>
<path d="M58.1865 17.08C57.6692 17.08 57.2585 16.888 56.9545 16.504C56.6559 16.12 56.5065 15.5946 56.5065 14.928C56.5065 14.5226 56.5759 14.1706 56.7145 13.872C56.8532 13.568 57.0505 13.3333 57.3065 13.168C57.5625 13.0026 57.8612 12.92 58.2025 12.92C58.6932 12.92 59.0879 13.1253 59.3865 13.536H59.4025V11.064H60.0745V15.992C60.0745 16.488 60.0825 16.824 60.0985 17H59.4745C59.4639 16.872 59.4585 16.6613 59.4585 16.368H59.4425C59.3199 16.5813 59.1439 16.7546 58.9145 16.888C58.6852 17.016 58.4425 17.08 58.1865 17.08ZM58.2825 16.536C58.6239 16.536 58.8932 16.4346 59.0905 16.232C59.2932 16.024 59.3945 15.7466 59.3945 15.4V14.672C59.3945 14.2986 59.2932 14 59.0905 13.776C58.8879 13.552 58.6185 13.44 58.2825 13.44C57.9412 13.44 57.6719 13.5733 57.4745 13.84C57.2825 14.1013 57.1865 14.4693 57.1865 14.944C57.1865 15.44 57.2825 15.8293 57.4745 16.112C57.6719 16.3946 57.9412 16.536 58.2825 16.536Z"/>
<path d="M64.8998 17.08C64.6491 17.08 64.4065 17.016 64.1718 16.888C63.9371 16.7546 63.7611 16.5813 63.6438 16.368H63.6278C63.6331 16.5386 63.6278 16.7493 63.6118 17H62.9878C63.0038 16.824 63.0118 16.488 63.0118 15.992V11.064H63.6918V13.536H63.7078C63.9745 13.1253 64.3771 12.92 64.9158 12.92C65.4278 12.92 65.8331 13.1013 66.1318 13.464C66.4305 13.8213 66.5798 14.3093 66.5798 14.928C66.5798 15.5946 66.4278 16.12 66.1238 16.504C65.8251 16.888 65.4171 17.08 64.8998 17.08ZM64.8038 16.536C65.1451 16.536 65.4118 16.3946 65.6038 16.112C65.8011 15.8293 65.8998 15.44 65.8998 14.944C65.8998 14.4693 65.8011 14.1013 65.6038 13.84C65.4118 13.5733 65.1451 13.44 64.8038 13.44C64.4731 13.44 64.2038 13.5546 63.9958 13.784C63.7931 14.008 63.6918 14.304 63.6918 14.672V15.4C63.6918 15.7466 63.7905 16.024 63.9878 16.232C64.1905 16.4346 64.4625 16.536 64.8038 16.536Z"/>
<path d="M70.3035 13L68.8555 17.072C68.4875 18.1013 67.9195 18.616 67.1515 18.616C67.0128 18.616 66.8635 18.5973 66.7035 18.56V18.04C66.7995 18.072 66.9168 18.088 67.0555 18.088C67.3275 18.088 67.5595 17.9893 67.7515 17.792C67.9435 17.5946 68.1275 17.2613 68.3035 16.792L66.8155 13H67.5435L68.6155 16.064L69.5675 13H70.3035Z"/>
</mask>
<path d="M31.5042 14.008C31.5042 13.6666 31.4935 13.3306 31.4722 13H32.0962C32.1122 13.1973 32.1202 13.408 32.1202 13.632H32.1362C32.2482 13.4186 32.4215 13.248 32.6562 13.12C32.8908 12.9866 33.1442 12.92 33.4162 12.92C33.9335 12.92 34.3388 13.104 34.6322 13.472C34.9255 13.84 35.0722 14.3493 35.0722 15C35.0722 15.4213 35.0028 15.7893 34.8642 16.104C34.7255 16.4133 34.5282 16.6533 34.2722 16.824C34.0215 16.9946 33.7282 17.08 33.3922 17.08C33.1148 17.08 32.8722 17.0266 32.6642 16.92C32.4562 16.8133 32.3042 16.664 32.2082 16.472H32.1842V18.936H31.5042V14.008ZM33.2882 16.56C33.6295 16.56 33.8988 16.4186 34.0962 16.136C34.2935 15.848 34.3922 15.4613 34.3922 14.976C34.3922 14.4906 34.2962 14.1173 34.1042 13.856C33.9122 13.5946 33.6428 13.464 33.2962 13.464C32.9708 13.464 32.7042 13.5706 32.4962 13.784C32.2882 13.9973 32.1842 14.2693 32.1842 14.6V15.328C32.1842 15.696 32.2855 15.9946 32.4882 16.224C32.6908 16.448 32.9575 16.56 33.2882 16.56Z" fill="white"/>
<path d="M37.5835 17.08C37.1889 17.08 36.8449 16.9973 36.5515 16.832C36.2635 16.6613 36.0395 16.4186 35.8795 16.104C35.7249 15.7893 35.6475 15.4213 35.6475 15C35.6475 14.5786 35.7249 14.2106 35.8795 13.896C36.0395 13.5813 36.2635 13.3413 36.5515 13.176C36.8449 13.0053 37.1889 12.92 37.5835 12.92C38.1809 12.92 38.6529 13.1066 38.9995 13.48C39.3515 13.8533 39.5275 14.36 39.5275 15C39.5275 15.64 39.3515 16.1466 38.9995 16.52C38.6529 16.8933 38.1809 17.08 37.5835 17.08ZM37.5835 16.56C37.9782 16.56 38.2875 16.4213 38.5115 16.144C38.7355 15.8666 38.8475 15.4853 38.8475 15C38.8475 14.5146 38.7355 14.1333 38.5115 13.856C38.2875 13.5786 37.9782 13.44 37.5835 13.44C37.1942 13.44 36.8875 13.5786 36.6635 13.856C36.4395 14.1333 36.3275 14.5146 36.3275 15C36.3275 15.4853 36.4395 15.8666 36.6635 16.144C36.8875 16.4213 37.1942 16.56 37.5835 16.56Z" fill="white"/>
<path d="M45.0687 13L44.0687 17H43.4527L42.4847 13.728L41.5167 17H40.9007L39.9007 13H40.6127L41.2607 16.072L42.1727 13H42.7967L43.7087 16.072L44.3567 13H45.0687Z" fill="white"/>
<path d="M49.0124 15.264H46.1324C46.1698 15.6693 46.2898 15.9786 46.4924 16.192C46.6951 16.4 46.9751 16.504 47.3324 16.504C47.8124 16.504 48.1938 16.3146 48.4764 15.936L48.8604 16.304C48.7058 16.5493 48.4898 16.7413 48.2124 16.88C47.9404 17.0133 47.6391 17.08 47.3084 17.08C46.7164 17.08 46.2578 16.8986 45.9324 16.536C45.6071 16.1733 45.4444 15.664 45.4444 15.008C45.4444 14.3573 45.6071 13.848 45.9324 13.48C46.2631 13.1066 46.7164 12.92 47.2924 12.92C47.8311 12.92 48.2524 13.104 48.5564 13.472C48.8604 13.8346 49.0124 14.344 49.0124 15V15.264ZM48.3884 14.704C48.3884 14.32 48.2871 14.0186 48.0844 13.8C47.8871 13.5813 47.6124 13.472 47.2604 13.472C46.9298 13.472 46.6658 13.584 46.4684 13.808C46.2764 14.032 46.1644 14.3493 46.1324 14.76H48.3884V14.704Z" fill="white"/>
<path d="M49.833 13.976C49.833 13.5226 49.825 13.1973 49.809 13H50.441C50.4624 13.2133 50.473 13.448 50.473 13.704V13.784H50.497C50.5984 13.5066 50.761 13.2933 50.985 13.144C51.209 12.9946 51.473 12.92 51.777 12.92C51.8624 12.92 51.9397 12.928 52.009 12.944V13.504C51.9397 13.488 51.8464 13.48 51.729 13.48C51.505 13.48 51.2997 13.5493 51.113 13.688C50.9264 13.8213 50.7797 14.0053 50.673 14.24C50.5664 14.4746 50.513 14.7306 50.513 15.008V17H49.833V13.976Z" fill="white"/>
<path d="M55.9499 15.264H53.0699C53.1073 15.6693 53.2273 15.9786 53.4299 16.192C53.6326 16.4 53.9126 16.504 54.2699 16.504C54.7499 16.504 55.1313 16.3146 55.4139 15.936L55.7979 16.304C55.6433 16.5493 55.4273 16.7413 55.1499 16.88C54.8779 17.0133 54.5766 17.08 54.2459 17.08C53.6539 17.08 53.1953 16.8986 52.8699 16.536C52.5446 16.1733 52.3819 15.664 52.3819 15.008C52.3819 14.3573 52.5446 13.848 52.8699 13.48C53.2006 13.1066 53.6539 12.92 54.2299 12.92C54.7686 12.92 55.1899 13.104 55.4939 13.472C55.7979 13.8346 55.9499 14.344 55.9499 15V15.264ZM55.3259 14.704C55.3259 14.32 55.2246 14.0186 55.0219 13.8C54.8246 13.5813 54.5499 13.472 54.1979 13.472C53.8673 13.472 53.6033 13.584 53.4059 13.808C53.2139 14.032 53.1019 14.3493 53.0699 14.76H55.3259V14.704Z" fill="white"/>
<path d="M58.1865 17.08C57.6692 17.08 57.2585 16.888 56.9545 16.504C56.6559 16.12 56.5065 15.5946 56.5065 14.928C56.5065 14.5226 56.5759 14.1706 56.7145 13.872C56.8532 13.568 57.0505 13.3333 57.3065 13.168C57.5625 13.0026 57.8612 12.92 58.2025 12.92C58.6932 12.92 59.0879 13.1253 59.3865 13.536H59.4025V11.064H60.0745V15.992C60.0745 16.488 60.0825 16.824 60.0985 17H59.4745C59.4639 16.872 59.4585 16.6613 59.4585 16.368H59.4425C59.3199 16.5813 59.1439 16.7546 58.9145 16.888C58.6852 17.016 58.4425 17.08 58.1865 17.08ZM58.2825 16.536C58.6239 16.536 58.8932 16.4346 59.0905 16.232C59.2932 16.024 59.3945 15.7466 59.3945 15.4V14.672C59.3945 14.2986 59.2932 14 59.0905 13.776C58.8879 13.552 58.6185 13.44 58.2825 13.44C57.9412 13.44 57.6719 13.5733 57.4745 13.84C57.2825 14.1013 57.1865 14.4693 57.1865 14.944C57.1865 15.44 57.2825 15.8293 57.4745 16.112C57.6719 16.3946 57.9412 16.536 58.2825 16.536Z" fill="white"/>
<path d="M64.8998 17.08C64.6491 17.08 64.4065 17.016 64.1718 16.888C63.9371 16.7546 63.7611 16.5813 63.6438 16.368H63.6278C63.6331 16.5386 63.6278 16.7493 63.6118 17H62.9878C63.0038 16.824 63.0118 16.488 63.0118 15.992V11.064H63.6918V13.536H63.7078C63.9745 13.1253 64.3771 12.92 64.9158 12.92C65.4278 12.92 65.8331 13.1013 66.1318 13.464C66.4305 13.8213 66.5798 14.3093 66.5798 14.928C66.5798 15.5946 66.4278 16.12 66.1238 16.504C65.8251 16.888 65.4171 17.08 64.8998 17.08ZM64.8038 16.536C65.1451 16.536 65.4118 16.3946 65.6038 16.112C65.8011 15.8293 65.8998 15.44 65.8998 14.944C65.8998 14.4693 65.8011 14.1013 65.6038 13.84C65.4118 13.5733 65.1451 13.44 64.8038 13.44C64.4731 13.44 64.2038 13.5546 63.9958 13.784C63.7931 14.008 63.6918 14.304 63.6918 14.672V15.4C63.6918 15.7466 63.7905 16.024 63.9878 16.232C64.1905 16.4346 64.4625 16.536 64.8038 16.536Z" fill="white"/>
<path d="M70.3035 13L68.8555 17.072C68.4875 18.1013 67.9195 18.616 67.1515 18.616C67.0128 18.616 66.8635 18.5973 66.7035 18.56V18.04C66.7995 18.072 66.9168 18.088 67.0555 18.088C67.3275 18.088 67.5595 17.9893 67.7515 17.792C67.9435 17.5946 68.1275 17.2613 68.3035 16.792L66.8155 13H67.5435L68.6155 16.064L69.5675 13H70.3035Z" fill="white"/>
<path d="M31.5042 14.008C31.5042 13.6666 31.4935 13.3306 31.4722 13H32.0962C32.1122 13.1973 32.1202 13.408 32.1202 13.632H32.1362C32.2482 13.4186 32.4215 13.248 32.6562 13.12C32.8908 12.9866 33.1442 12.92 33.4162 12.92C33.9335 12.92 34.3388 13.104 34.6322 13.472C34.9255 13.84 35.0722 14.3493 35.0722 15C35.0722 15.4213 35.0028 15.7893 34.8642 16.104C34.7255 16.4133 34.5282 16.6533 34.2722 16.824C34.0215 16.9946 33.7282 17.08 33.3922 17.08C33.1148 17.08 32.8722 17.0266 32.6642 16.92C32.4562 16.8133 32.3042 16.664 32.2082 16.472H32.1842V18.936H31.5042V14.008ZM33.2882 16.56C33.6295 16.56 33.8988 16.4186 34.0962 16.136C34.2935 15.848 34.3922 15.4613 34.3922 14.976C34.3922 14.4906 34.2962 14.1173 34.1042 13.856C33.9122 13.5946 33.6428 13.464 33.2962 13.464C32.9708 13.464 32.7042 13.5706 32.4962 13.784C32.2882 13.9973 32.1842 14.2693 32.1842 14.6V15.328C32.1842 15.696 32.2855 15.9946 32.4882 16.224C32.6908 16.448 32.9575 16.56 33.2882 16.56Z" stroke="#1A70A7" stroke-width="0.6" mask="url(#path-4-outside-2_401_130)"/>
<path d="M37.5835 17.08C37.1889 17.08 36.8449 16.9973 36.5515 16.832C36.2635 16.6613 36.0395 16.4186 35.8795 16.104C35.7249 15.7893 35.6475 15.4213 35.6475 15C35.6475 14.5786 35.7249 14.2106 35.8795 13.896C36.0395 13.5813 36.2635 13.3413 36.5515 13.176C36.8449 13.0053 37.1889 12.92 37.5835 12.92C38.1809 12.92 38.6529 13.1066 38.9995 13.48C39.3515 13.8533 39.5275 14.36 39.5275 15C39.5275 15.64 39.3515 16.1466 38.9995 16.52C38.6529 16.8933 38.1809 17.08 37.5835 17.08ZM37.5835 16.56C37.9782 16.56 38.2875 16.4213 38.5115 16.144C38.7355 15.8666 38.8475 15.4853 38.8475 15C38.8475 14.5146 38.7355 14.1333 38.5115 13.856C38.2875 13.5786 37.9782 13.44 37.5835 13.44C37.1942 13.44 36.8875 13.5786 36.6635 13.856C36.4395 14.1333 36.3275 14.5146 36.3275 15C36.3275 15.4853 36.4395 15.8666 36.6635 16.144C36.8875 16.4213 37.1942 16.56 37.5835 16.56Z" stroke="#1A70A7" stroke-width="0.6" mask="url(#path-4-outside-2_401_130)"/>
<path d="M45.0687 13L44.0687 17H43.4527L42.4847 13.728L41.5167 17H40.9007L39.9007 13H40.6127L41.2607 16.072L42.1727 13H42.7967L43.7087 16.072L44.3567 13H45.0687Z" stroke="#1A70A7" stroke-width="0.6" mask="url(#path-4-outside-2_401_130)"/>
<path d="M49.0124 15.264H46.1324C46.1698 15.6693 46.2898 15.9786 46.4924 16.192C46.6951 16.4 46.9751 16.504 47.3324 16.504C47.8124 16.504 48.1938 16.3146 48.4764 15.936L48.8604 16.304C48.7058 16.5493 48.4898 16.7413 48.2124 16.88C47.9404 17.0133 47.6391 17.08 47.3084 17.08C46.7164 17.08 46.2578 16.8986 45.9324 16.536C45.6071 16.1733 45.4444 15.664 45.4444 15.008C45.4444 14.3573 45.6071 13.848 45.9324 13.48C46.2631 13.1066 46.7164 12.92 47.2924 12.92C47.8311 12.92 48.2524 13.104 48.5564 13.472C48.8604 13.8346 49.0124 14.344 49.0124 15V15.264ZM48.3884 14.704C48.3884 14.32 48.2871 14.0186 48.0844 13.8C47.8871 13.5813 47.6124 13.472 47.2604 13.472C46.9298 13.472 46.6658 13.584 46.4684 13.808C46.2764 14.032 46.1644 14.3493 46.1324 14.76H48.3884V14.704Z" stroke="#1A70A7" stroke-width="0.6" mask="url(#path-4-outside-2_401_130)"/>
<path d="M49.833 13.976C49.833 13.5226 49.825 13.1973 49.809 13H50.441C50.4624 13.2133 50.473 13.448 50.473 13.704V13.784H50.497C50.5984 13.5066 50.761 13.2933 50.985 13.144C51.209 12.9946 51.473 12.92 51.777 12.92C51.8624 12.92 51.9397 12.928 52.009 12.944V13.504C51.9397 13.488 51.8464 13.48 51.729 13.48C51.505 13.48 51.2997 13.5493 51.113 13.688C50.9264 13.8213 50.7797 14.0053 50.673 14.24C50.5664 14.4746 50.513 14.7306 50.513 15.008V17H49.833V13.976Z" stroke="#1A70A7" stroke-width="0.6" mask="url(#path-4-outside-2_401_130)"/>
<path d="M55.9499 15.264H53.0699C53.1073 15.6693 53.2273 15.9786 53.4299 16.192C53.6326 16.4 53.9126 16.504 54.2699 16.504C54.7499 16.504 55.1313 16.3146 55.4139 15.936L55.7979 16.304C55.6433 16.5493 55.4273 16.7413 55.1499 16.88C54.8779 17.0133 54.5766 17.08 54.2459 17.08C53.6539 17.08 53.1953 16.8986 52.8699 16.536C52.5446 16.1733 52.3819 15.664 52.3819 15.008C52.3819 14.3573 52.5446 13.848 52.8699 13.48C53.2006 13.1066 53.6539 12.92 54.2299 12.92C54.7686 12.92 55.1899 13.104 55.4939 13.472C55.7979 13.8346 55.9499 14.344 55.9499 15V15.264ZM55.3259 14.704C55.3259 14.32 55.2246 14.0186 55.0219 13.8C54.8246 13.5813 54.5499 13.472 54.1979 13.472C53.8673 13.472 53.6033 13.584 53.4059 13.808C53.2139 14.032 53.1019 14.3493 53.0699 14.76H55.3259V14.704Z" stroke="#1A70A7" stroke-width="0.6" mask="url(#path-4-outside-2_401_130)"/>
<path d="M58.1865 17.08C57.6692 17.08 57.2585 16.888 56.9545 16.504C56.6559 16.12 56.5065 15.5946 56.5065 14.928C56.5065 14.5226 56.5759 14.1706 56.7145 13.872C56.8532 13.568 57.0505 13.3333 57.3065 13.168C57.5625 13.0026 57.8612 12.92 58.2025 12.92C58.6932 12.92 59.0879 13.1253 59.3865 13.536H59.4025V11.064H60.0745V15.992C60.0745 16.488 60.0825 16.824 60.0985 17H59.4745C59.4639 16.872 59.4585 16.6613 59.4585 16.368H59.4425C59.3199 16.5813 59.1439 16.7546 58.9145 16.888C58.6852 17.016 58.4425 17.08 58.1865 17.08ZM58.2825 16.536C58.6239 16.536 58.8932 16.4346 59.0905 16.232C59.2932 16.024 59.3945 15.7466 59.3945 15.4V14.672C59.3945 14.2986 59.2932 14 59.0905 13.776C58.8879 13.552 58.6185 13.44 58.2825 13.44C57.9412 13.44 57.6719 13.5733 57.4745 13.84C57.2825 14.1013 57.1865 14.4693 57.1865 14.944C57.1865 15.44 57.2825 15.8293 57.4745 16.112C57.6719 16.3946 57.9412 16.536 58.2825 16.536Z" stroke="#1A70A7" stroke-width="0.6" mask="url(#path-4-outside-2_401_130)"/>
<path d="M64.8998 17.08C64.6491 17.08 64.4065 17.016 64.1718 16.888C63.9371 16.7546 63.7611 16.5813 63.6438 16.368H63.6278C63.6331 16.5386 63.6278 16.7493 63.6118 17H62.9878C63.0038 16.824 63.0118 16.488 63.0118 15.992V11.064H63.6918V13.536H63.7078C63.9745 13.1253 64.3771 12.92 64.9158 12.92C65.4278 12.92 65.8331 13.1013 66.1318 13.464C66.4305 13.8213 66.5798 14.3093 66.5798 14.928C66.5798 15.5946 66.4278 16.12 66.1238 16.504C65.8251 16.888 65.4171 17.08 64.8998 17.08ZM64.8038 16.536C65.1451 16.536 65.4118 16.3946 65.6038 16.112C65.8011 15.8293 65.8998 15.44 65.8998 14.944C65.8998 14.4693 65.8011 14.1013 65.6038 13.84C65.4118 13.5733 65.1451 13.44 64.8038 13.44C64.4731 13.44 64.2038 13.5546 63.9958 13.784C63.7931 14.008 63.6918 14.304 63.6918 14.672V15.4C63.6918 15.7466 63.7905 16.024 63.9878 16.232C64.1905 16.4346 64.4625 16.536 64.8038 16.536Z" stroke="#1A70A7" stroke-width="0.6" mask="url(#path-4-outside-2_401_130)"/>
<path d="M70.3035 13L68.8555 17.072C68.4875 18.1013 67.9195 18.616 67.1515 18.616C67.0128 18.616 66.8635 18.5973 66.7035 18.56V18.04C66.7995 18.072 66.9168 18.088 67.0555 18.088C67.3275 18.088 67.5595 17.9893 67.7515 17.792C67.9435 17.5946 68.1275 17.2613 68.3035 16.792L66.8155 13H67.5435L68.6155 16.064L69.5675 13H70.3035Z" stroke="#1A70A7" stroke-width="0.6" mask="url(#path-4-outside-2_401_130)"/>
</svg>
