<svg xmlns="http://www.w3.org/2000/svg" viewBox="0 0 1206 200.37"><title>TL-Horizontal-Black</title>
    <style>polygon, path { fill: #fff; }</style>
    <g id="Layer_2" data-name="Layer 2"><g id="Layer_1-2" data-name="Layer 1"><polygon points="64.99 176.3 64.99 35.14 23.22 81.98 0 73.39 65.45 0 88.04 8.61 88.04 184.83 64.99 176.3"/><polygon points="106.06 191.76 106.06 15.54 129.11 24.07 129.11 165.23 170.89 118.38 194.1 126.97 128.65 200.37 106.06 191.76"/><path d="M278.71,62.46V44.36h86.35v18.1H332.54v93.47H311.23V62.46Z"/><path d="M382,155.93V44.36h76.73v18.1H403.26V89.85h47.9v18h-47.9v30h55.43v18Z"/><path d="M481.68,155.93V44.36h45.41q17.86,0,26.44,8.45t8.57,26q0,13.29-6.33,21.34t-17.62,11.18l25.55,44.61H540.07L516.6,113.08H503v42.85ZM503,95.54H529.9q10,0,10-11.14V73q0-5.61-2.2-8c-1.47-1.63-4.08-2.44-7.81-2.44H503Z"/><path d="M575.15,155.93l38-111.57h22.7l37.83,111.57H650.76l-7.38-23.79h-38.1l-7.22,23.79Zm35.66-41.81h27.12L625,70.15h-.72Z"/><path d="M690.89,155.93V44.36H712.2v93.55h47.26v18Z"/><path d="M761.06,44.36h24.11l24,46.29,24-46.29h23.79l-37.25,67.92v43.65h-21.3V112.28Z"/><path d="M868.55,62.46V44.36h86.34v18.1H922.37v93.47h-21.3V62.46Z"/><path d="M971.79,155.93V44.36H993.1V155.93Z"/><path d="M1012.64,100.5a92.33,92.33,0,0,1,2.93-24.11,52,52,0,0,1,8.85-18.46,39.61,39.61,0,0,1,14.94-11.81q9-4.17,21.18-4.17a49.87,49.87,0,0,1,15.83,2.45,37.46,37.46,0,0,1,12.79,7.12,35.63,35.63,0,0,1,8.72,11.34,38.3,38.3,0,0,1,3.75,14.82h-21.3q-.81-8.9-6.29-13.3T1059,60a26.4,26.4,0,0,0-9.41,1.64,22,22,0,0,0-7.49,4.6,20.43,20.43,0,0,0-4.85,7.21,25.12,25.12,0,0,0-1.72,9.53v34.13a23,23,0,0,0,1.88,9.33,22.31,22.31,0,0,0,5.17,7.36,23.81,23.81,0,0,0,7.65,4.81,25.38,25.38,0,0,0,9.41,1.72q10,0,15.41-4.32t7-14.18h21.3a47.41,47.41,0,0,1-5,16.58,35.21,35.21,0,0,1-9.52,11.29,39.46,39.46,0,0,1-13.27,6.57,58.53,58.53,0,0,1-16.23,2.17q-12.18,0-20.9-4.37a40.35,40.35,0,0,1-14.5-12.06,51.72,51.72,0,0,1-8.53-18.3A91.92,91.92,0,0,1,1012.64,100.5Z"/><path d="M1117.57,122.61h21.31q1.27,9.86,7.53,14.06t16.1,4.2q9.36,0,15.78-3.88a13.45,13.45,0,0,0,2.72-20.7q-3.69-3.53-11.29-5.45l-21.79-5.77q-13.79-3.6-20.42-11.81t-6.65-20.47a27.07,27.07,0,0,1,2.88-12.41,28.74,28.74,0,0,1,8.13-9.78,39,39,0,0,1,12.78-6.36,57.82,57.82,0,0,1,16.9-2.29,61,61,0,0,1,15.82,2,36.44,36.44,0,0,1,12.73,6,31.67,31.67,0,0,1,8.85,10.5,39.16,39.16,0,0,1,4.25,15.05h-21.31a18.53,18.53,0,0,0-2.36-7.68,15.58,15.58,0,0,0-4.69-5,17.46,17.46,0,0,0-6.32-2.6,35.7,35.7,0,0,0-7.29-.73q-8.89,0-14,3.52a11.09,11.09,0,0,0-5.09,9.6q0,6.39,4,9.71t12,5.48l19,4.94q14.23,3.78,21.57,11.4t7.32,21.43a28.83,28.83,0,0,1-12,24.11,41.52,41.52,0,0,1-13.7,6.49,64.26,64.26,0,0,1-17.5,2.25,71.78,71.78,0,0,1-17.3-2,40.39,40.39,0,0,1-13.94-6.25,32.14,32.14,0,0,1-9.69-11.09A39.9,39.9,0,0,1,1117.57,122.61Z"/></g></g></svg>
