<?xml version="1.0" encoding="utf-8"?>
<!-- Generator: Adobe Illustrator 20.1.0, SVG Export Plug-In . SVG Version: 6.00 Build 0)  -->
<svg version="1.1" id="Layer_1" xmlns="http://www.w3.org/2000/svg" xmlns:xlink="http://www.w3.org/1999/xlink" x="0px" y="0px"
	 viewBox="0 0 491.8 117.3" style="enable-background:new 0 0 491.8 117.3;" xml:space="preserve">
<style type="text/css">
	.st0{fill:#FFFFFF;}
	.st1{fill:#FFFFFF;}
	.st2{fill:#FFFFFF;}
</style>
<g>
	<path class="st0" d="M94.4,1.1c0,0,0,5.1,0,19.9c0,34.2-6.8,65.3-46.7,95C7.9,86.3,1.1,55.2,1.1,21c0-14.8,0-19.9,0-19.9H94.4z"/>
	<path class="st1" d="M90.4,52.8c-8.5-2.6-13.9-3.1-20.5-3.1c-6.5,0-18.2,0-18.2,0s0,27.8,0,42.1s3.5,18,3.5,18l-7.4,6l-7.4-6
		c0,0,3.5-3.7,3.5-18s0-42.1,0-42.1s-11.7,0-18.2,0s-12,0.5-20.5,3.1l-0.8,0.2c0,0-1.1-4-1.6-7.4c-0.5-3.5-0.4-7.3-0.4-7.3
		c7.2,2.5,13.8,3.4,20.8,3.4c5.7,0,20.8,0.2,20.8,0.2s0-5.6,0-12.6c0-9.3,0-17-4.5-28.1h16.9c-4.6,11.1-4.5,18.8-4.5,28.1
		c0,7.1,0,12.6,0,12.6s15.1-0.2,20.8-0.2c7,0,13.6-0.9,20.8-3.4l0.3-0.1c0,0-0.6,6.5-1,9.1c-0.5,2.6-1.4,5.8-1.4,5.8L90.4,52.8z"/>
	<path d="M0,0v21c0,36.5,8,66.8,47.1,95.8l0.6,0.5l0.6-0.5c39.1-29,47.1-59.3,47.1-95.8V0H0z M52.8,50.8h17.1c6.4,0,11.8,0.5,20.1,3
		c0,0,0,0,0.1,0c-4.8,21.2-15.8,38.5-34.5,54.4c-0.9-2-2.8-7.5-2.8-17.9V50.8z M25.6,50.8h17.1v39.6c0,10.4-1.9,15.9-2.8,17.9
		C21.2,92.4,10.2,75.1,5.4,54C13.6,51.4,19.3,50.8,25.6,50.8z M23,40.8c-7.3,0-13.8-1-20.2-3.3C2.4,32.4,2.2,27,2.2,21V2.2h36.4
		c4.2,10.5,4.2,17.7,4.2,26.8v11.8H23z M53.9,109.8c-2,1.6-4,3.3-6.1,4.8c-2.1-1.6-4.1-3.2-6.1-4.8c1-2,3.3-7.8,3.3-19.4V48.7H25.6
		c-6.3,0-12.3,0.5-20.7,3.2C4.1,48,3.5,44,3.1,39.9c6.4,2.1,12.8,3.1,20,3.1h21.8v-14c0-8.8,0-16.3-4-26.8h13.7c-4,10.4-4,18-4,26.8
		v0.3c0,7.1,0,12.6,0,12.6l0,1.1h21.8c7.2,0,13.6-1,20-3.1C92,44,91.4,48,90.6,51.8c-8.6-2.6-14.1-3.1-20.7-3.1H50.6v41.7
		C50.6,102,52.8,107.7,53.9,109.8z M93.3,2.2V21c0,6-0.2,11.4-0.7,16.5c-6.5,2.2-12.9,3.3-20.2,3.3H52.8l0-11.8
		c0-9.1,0-16.3,4.2-26.8H93.3z"/>
</g>
<g>
	<path class="st2" d="M126.2,24.3h-5.8V21h15.8v3.3h-5.6v28.5h-4.4V24.3z"/>
	<path class="st2" d="M138.4,30.1h4.2v3.2c0.8-1.3,1.6-2.2,2.4-2.7c0.8-0.5,1.7-0.8,2.6-0.8c0.2,0,0.5,0,0.7,0v4.6
		c-0.8-0.3-1.6-0.5-2.3-0.5c-0.7,0-1.3,0.2-1.8,0.5c-0.5,0.3-1.1,0.9-1.6,1.7v16.6h-4.2V30.1z"/>
	<path class="st2" d="M163.7,38.1v6.6c0,2.7-0.5,4.8-1.5,6.2s-2.7,2.1-5.1,2.1c-1.2,0-2.2-0.2-3.1-0.6l-1.5,4l-1.3-0.4l1.5-4.3
		c-1.5-1.3-2.3-3.6-2.3-7.1v-6.6c0-2.7,0.5-4.8,1.5-6.2c1-1.4,2.7-2.1,5.1-2.1c1.3,0,2.3,0.2,3.3,0.6l1.4-3.9l1.5,0.5l-1.5,4.3
		C163.1,32.6,163.7,34.9,163.7,38.1z M154.7,46.5l4.4-12.4c-0.3-0.8-1-1.2-2-1.2c-0.8,0-1.3,0.2-1.7,0.7c-0.4,0.4-0.6,1-0.6,1.7
		c-0.1,0.7-0.1,1.6-0.1,2.7V45V46.5z M159.5,37.9v-0.6l-4.2,11.8c0.4,0.6,1,0.9,1.8,0.9c0.8,0,1.3-0.2,1.7-0.7
		c0.3-0.4,0.6-1,0.6-1.7c0.1-0.7,0.1-1.5,0.1-2.7V37.9z"/>
	<path class="st2" d="M167.6,30.1h4.2v2.2c1.8-1.7,3.7-2.6,5.5-2.6c1.2,0,2.1,0.4,2.6,1.3c0.5,0.9,0.8,2,0.8,3.3v18.4h-4.2V35.6
		c0-0.9-0.1-1.5-0.4-1.9c-0.3-0.4-0.7-0.6-1.4-0.6c-0.8,0-1.8,0.5-2.9,1.4v18.3h-4.2V30.1z"/>
	<path class="st2" d="M185.8,51c-0.9-1.4-1.4-3.8-1.4-7.1v-4.4c0-3,0.4-5.4,1.2-7.1c0.8-1.7,2.3-2.6,4.4-2.6c1.3,0,2.6,0.6,3.8,1.8
		V21h4.2v31.8h-4.2v-1.5c-1.1,1.2-2.3,1.8-3.7,1.8C188.1,53.1,186.7,52.4,185.8,51z M193.8,49V34.1c-1-0.7-1.9-1-2.7-1
		c-1.7,0-2.5,1.6-2.5,4.8v6.4c0,1.8,0.2,3.2,0.5,4.2c0.3,0.9,1,1.4,2,1.4C192,49.8,192.9,49.5,193.8,49z"/>
	<path class="st2" d="M204.4,52.1c-1-0.7-1.7-1.7-2-3c-0.4-1.3-0.6-3-0.6-5.1v-5.2c0-3.1,0.5-5.4,1.5-6.9c1-1.5,2.7-2.2,5.2-2.2
		c1.8,0,3.2,0.4,4.1,1.1c0.9,0.8,1.5,1.8,1.8,3.2c0.3,1.4,0.5,3.2,0.5,5.6v1.8h-9v3c0,1.4,0,2.4,0.1,3.1c0.1,0.7,0.3,1.3,0.6,1.7
		c0.4,0.5,0.9,0.7,1.7,0.7c0.9,0,1.5-0.3,1.9-0.9c0.3-0.6,0.5-1.6,0.5-2.8v-1.4h4.1v0.9c0,2.4-0.5,4.2-1.5,5.5
		c-1,1.3-2.6,1.9-4.9,1.9C206.8,53.1,205.4,52.8,204.4,52.1z M210.8,39.2v-2c0-1.5-0.2-2.7-0.5-3.3c-0.3-0.7-0.9-1-1.9-1
		c-0.7,0-1.2,0.2-1.6,0.5c-0.4,0.3-0.6,0.8-0.7,1.6c-0.1,0.7-0.2,1.8-0.2,3.1v1.2H210.8z"/>
	<path class="st2" d="M219.2,21h4.2v31.8h-4.2V21z"/>
	<path class="st2" d="M229.5,52.4c-0.7-0.5-1.2-1.2-1.6-2c-0.4-0.8-0.6-1.7-0.6-2.6c0-1.8,0.4-3.2,1.1-4.3c0.8-1.1,1.7-2,2.9-2.6
		c1.2-0.6,2.8-1.4,4.9-2.3V37c0-1.5-0.2-2.5-0.5-3.2s-0.9-0.9-1.8-0.9c-1.6,0-2.4,1.1-2.4,3.2v1.1l-4.2-0.2l0-0.8
		c0.1-2.3,0.8-3.9,1.9-5c1.1-1,2.8-1.6,4.9-1.6c2.2,0,3.8,0.6,4.7,1.8c1,1.2,1.5,3,1.5,5.4v10.4c0,1.7,0.1,3.5,0.4,5.5H237
		c-0.3-1.5-0.5-2.6-0.6-3.3c-0.3,1-0.9,1.9-1.6,2.6c-0.8,0.7-1.8,1.1-3,1.1C231,53.1,230.2,52.9,229.5,52.4z M235.1,48.9
		c0.5-0.4,0.9-0.8,1.1-1.2v-6.4c-1.2,0.7-2,1.2-2.6,1.6c-0.6,0.4-1.1,0.9-1.5,1.5c-0.4,0.6-0.6,1.4-0.6,2.3c0,0.9,0.2,1.7,0.5,2.2
		c0.3,0.5,0.8,0.8,1.5,0.8C234.1,49.5,234.6,49.3,235.1,48.9z"/>
	<path class="st2" d="M245.4,59.2c-1.5-0.4-2.2-1.4-2.2-2.9c0-1.2,0.3-2.2,0.9-3.1c0.6-0.9,1.4-1.5,2.3-2c-0.7-0.2-1.3-0.5-1.6-1
		c-0.4-0.4-0.6-0.9-0.6-1.5c0-0.8,0.2-1.5,0.6-2c0.4-0.6,1-1.3,1.9-2.1c-0.9-0.7-1.6-1.5-2-2.6c-0.4-1-0.6-2.4-0.6-4.2
		c0-2.6,0.5-4.7,1.6-6c1.1-1.4,2.7-2.1,4.8-2.1c1.2,0,2.2,0.2,2.9,0.6c0.8,0.4,1.3,1,1.7,1.9c0.2-0.3,0.6-0.7,1.2-1.2
		c0.6-0.5,1.2-0.9,1.9-1.2l0.6-0.3l1.1,2.7c-0.5,0.1-1.3,0.3-2.2,0.7c-0.9,0.3-1.5,0.6-1.7,0.8c0.2,0.5,0.3,1.1,0.5,2
		c0.1,0.8,0.2,1.6,0.2,2.2c0,2.5-0.5,4.4-1.5,5.8c-1,1.4-2.6,2.1-4.8,2.1c-0.7,0-1.4-0.1-2.2-0.3c-0.1,0.1-0.2,0.3-0.4,0.7
		c-0.2,0.4-0.3,0.7-0.3,1.1c0,0.3,0.2,0.5,0.5,0.7c0.3,0.2,0.8,0.3,1.4,0.3c0.4,0.1,1,0.1,1.8,0.2c0.8,0.1,1.4,0.1,1.7,0.1
		c3.5,0.3,5.3,2.2,5.3,5.5c0,2-0.5,3.5-1.6,4.3c-1.1,0.9-2.8,1.3-5.1,1.3C248.9,59.8,246.8,59.6,245.4,59.2z M254.2,56
		c0.6-0.4,0.9-0.9,0.9-1.7c0-0.7-0.2-1.3-0.7-1.6c-0.4-0.4-1.3-0.6-2.4-0.7l-3.6-0.3c-0.4,0.3-0.8,0.7-1.1,1.3
		c-0.4,0.5-0.6,1.1-0.6,1.7c0,0.5,0.1,0.8,0.4,1.1c0.2,0.3,0.7,0.5,1.4,0.6c0.7,0.1,1.7,0.2,3,0.2C252.8,56.5,253.7,56.4,254.2,56z
		 M252.7,41.7c0.3-0.8,0.5-2.1,0.5-3.9c0-1.8-0.2-3.1-0.5-4c-0.3-0.8-1.1-1.2-2.2-1.2s-1.8,0.4-2.2,1.2c-0.4,0.8-0.6,2.1-0.6,4
		c0,1.6,0.2,2.9,0.6,3.7s1.1,1.3,2.2,1.3C251.7,42.9,252.4,42.5,252.7,41.7z"/>
	<path class="st2" d="M275,33.2h-2.7v-3.1h2.7v-1.2c0-1.6,0.1-2.8,0.4-3.8c0.2-1,0.7-1.7,1.4-2.2c0.7-0.5,1.8-0.8,3.1-0.8
		c0.6,0,1.5,0.1,2.8,0.2v3.1c-0.2,0-0.5-0.1-0.8-0.1c-0.3-0.1-0.6-0.1-0.8-0.1c-0.8,0-1.3,0.2-1.5,0.7c-0.2,0.5-0.4,1.2-0.4,2.2v1.9
		h3.5v3.1h-3.5v19.6H275V33.2z"/>
	<path class="st2" d="M284.6,55.3c1.6,0,2.7-0.1,3.2-0.4s0.9-0.7,0.9-1.3c0-0.2-0.1-0.5-0.2-1l-0.5-2.4l-0.2-0.8
		c-1.3-5.5-2.8-11.9-4.6-19.3h4.2l3.1,17l2.9-17h4.2l-5.4,24c-0.4,1.6-1.1,2.7-2.3,3.4c-1.2,0.7-2.8,1-5,1h-0.5V55.3z"/>
	<path class="st2" d="M300.8,21h4.2v31.8h-4.2V21z"/>
	<path class="st2" d="M309.5,20.9h4.2v19l6.1-9.8h4.4l-5.3,8.9l5.2,13.8h-4.2l-4.2-11.6l-1.9,2.9v8.7h-4.2V20.9z"/>
	<path class="st2" d="M328.4,52.1c-1-0.7-1.7-1.7-2-3c-0.4-1.3-0.6-3-0.6-5.1v-5.2c0-3.1,0.5-5.4,1.5-6.9c1-1.5,2.7-2.2,5.2-2.2
		c1.8,0,3.2,0.4,4.1,1.1c0.9,0.8,1.5,1.8,1.8,3.2c0.3,1.4,0.5,3.2,0.5,5.6v1.8h-9v3c0,1.4,0,2.4,0.1,3.1c0.1,0.7,0.3,1.3,0.6,1.7
		c0.4,0.5,0.9,0.7,1.8,0.7c0.9,0,1.5-0.3,1.9-0.9c0.3-0.6,0.5-1.6,0.5-2.8v-1.4h4.1v0.9c0,2.4-0.5,4.2-1.5,5.5
		c-1,1.3-2.6,1.9-4.9,1.9C330.8,53.1,329.4,52.8,328.4,52.1z M334.9,39.2v-2c0-1.5-0.2-2.7-0.5-3.3c-0.3-0.7-0.9-1-1.9-1
		c-0.7,0-1.2,0.2-1.6,0.5c-0.4,0.3-0.6,0.8-0.7,1.6c-0.1,0.7-0.2,1.8-0.2,3.1v1.2H334.9z"/>
	<path class="st2" d="M343.6,51.4c-1.1-1.2-1.8-2.7-1.9-4.6l3.5-1.1c0.2,1.5,0.5,2.6,1,3.3c0.5,0.7,1.2,1.1,2.1,1.1
		c0.7,0,1.3-0.2,1.8-0.7c0.5-0.5,0.7-1,0.7-1.7c0-1.2-0.6-2.3-1.8-3.3l-3.9-3.3c-0.9-0.8-1.6-1.6-2.1-2.4c-0.5-0.8-0.7-1.8-0.7-3
		c0-1.8,0.5-3.2,1.6-4.2c1-1,2.5-1.5,4.3-1.5c1.7,0,3.1,0.6,4.1,1.7c1,1.1,1.6,2.5,1.7,4.3l-2.8,1.1c-0.2-1.3-0.5-2.3-0.9-2.9
		c-0.4-0.7-1-1-1.9-1c-0.7,0-1.2,0.2-1.7,0.7c-0.4,0.4-0.6,1-0.6,1.7c0,0.9,0.4,1.6,1.1,2.3l4,3.7c1,0.9,1.8,1.8,2.4,2.8
		s0.9,2.1,0.9,3.4c0,1.9-0.6,3.3-1.7,4.3c-1.1,1-2.7,1.5-4.6,1.5C346.2,53.1,344.7,52.5,343.6,51.4z"/>
	<path class="st2" d="M357.6,20.9h4.2v19l6.1-9.8h4.4L367,39l5.2,13.8H368l-4.2-11.6l-1.9,2.9v8.7h-4.2V20.9z"/>
	<path class="st2" d="M375.4,51c-1-1.4-1.5-3.5-1.5-6.2v-6.6c0-2.7,0.5-4.8,1.5-6.2c1-1.4,2.7-2.1,5.1-2.1c2.4,0,4.1,0.7,5.1,2.1
		c1,1.4,1.5,3.5,1.5,6.2v6.6c0,2.7-0.5,4.8-1.5,6.2s-2.7,2.1-5.1,2.1C378.2,53.1,376.5,52.4,375.4,51z M382.2,49.3
		c0.3-0.4,0.6-1,0.6-1.7c0.1-0.7,0.1-1.5,0.1-2.7v-7.1c0-1.1,0-2-0.1-2.7c-0.1-0.7-0.3-1.2-0.6-1.7c-0.3-0.4-0.9-0.7-1.7-0.7
		s-1.3,0.2-1.7,0.7c-0.4,0.4-0.6,1-0.6,1.7c-0.1,0.7-0.1,1.6-0.1,2.7V45c0,1.1,0,2,0.1,2.7c0.1,0.7,0.3,1.2,0.6,1.7
		c0.4,0.4,0.9,0.7,1.7,0.7S381.9,49.8,382.2,49.3z"/>
	<path class="st2" d="M391,30.1h3.9v2.2c0.8-0.8,1.6-1.5,2.5-1.9c0.9-0.4,1.9-0.6,2.8-0.6c1.9,0,3.2,1,3.7,2.9
		c1.6-1.9,3.5-2.9,5.7-2.9c1.2,0,2.1,0.4,2.9,1.3c0.7,0.9,1.1,2.2,1.1,4v17.8h-3.9V35.2c0-1-0.2-1.7-0.5-2.1
		c-0.3-0.4-0.8-0.6-1.4-0.6c-0.6,0-1.2,0.2-1.9,0.5c-0.6,0.3-1.2,0.8-1.8,1.4V35v17.8h-3.9V35.2c0-1-0.2-1.7-0.5-2.1
		c-0.3-0.4-0.8-0.6-1.4-0.6c-0.6,0-1.2,0.2-1.8,0.5c-0.6,0.3-1.2,0.8-1.8,1.4v18.5H391V30.1z"/>
	<path class="st2" d="M417.8,30.1h3.9v2.2c0.8-0.8,1.6-1.5,2.5-1.9c0.9-0.4,1.9-0.6,2.8-0.6c1.9,0,3.2,1,3.7,2.9
		c1.6-1.9,3.5-2.9,5.7-2.9c1.2,0,2.1,0.4,2.9,1.3c0.7,0.9,1.1,2.2,1.1,4v17.8h-3.9V35.2c0-1-0.2-1.7-0.5-2.1
		c-0.3-0.4-0.8-0.6-1.4-0.6c-0.6,0-1.2,0.2-1.9,0.5c-0.6,0.3-1.2,0.8-1.8,1.4V35v17.8h-3.9V35.2c0-1-0.2-1.7-0.5-2.1
		c-0.3-0.4-0.8-0.6-1.4-0.6c-0.6,0-1.2,0.2-1.8,0.5c-0.6,0.3-1.2,0.8-1.8,1.4v18.5h-3.9V30.1z"/>
	<path class="st2" d="M445.1,51.8c-0.5-0.9-0.8-2-0.8-3.3V30.1h4.2v17.1c0,0.9,0.1,1.5,0.4,1.9c0.3,0.4,0.7,0.6,1.4,0.6
		c0.8,0,1.8-0.5,2.9-1.4V30.1h4.2v22.7h-4.2v-2.2c-1.8,1.7-3.7,2.6-5.5,2.6C446.5,53.1,445.6,52.7,445.1,51.8z"/>
	<path class="st2" d="M461.8,30.1h4.2v2.2c1.8-1.7,3.7-2.6,5.5-2.6c1.2,0,2.1,0.4,2.6,1.3c0.5,0.9,0.8,2,0.8,3.3v18.4h-4.2V35.6
		c0-0.9-0.1-1.5-0.4-1.9c-0.3-0.4-0.7-0.6-1.4-0.6c-0.8,0-1.8,0.5-2.9,1.4v18.3h-4.2V30.1z"/>
	<path class="st2" d="M481.2,52.1c-1-0.7-1.7-1.7-2-3c-0.4-1.3-0.6-3-0.6-5.1v-5.2c0-3.1,0.5-5.4,1.5-6.9c1-1.5,2.7-2.2,5.2-2.2
		c1.8,0,3.2,0.4,4.1,1.1c0.9,0.8,1.5,1.8,1.8,3.2c0.3,1.4,0.5,3.2,0.5,5.6v1.8h-9v3c0,1.4,0,2.4,0.1,3.1c0.1,0.7,0.3,1.3,0.6,1.7
		c0.4,0.5,0.9,0.7,1.8,0.7c0.9,0,1.5-0.3,1.9-0.9c0.3-0.6,0.5-1.6,0.5-2.8v-1.4h4.1v0.9c0,2.4-0.5,4.2-1.5,5.5
		c-1,1.3-2.6,1.9-4.9,1.9C483.6,53.1,482.2,52.8,481.2,52.1z M487.6,39.2v-2c0-1.5-0.2-2.7-0.5-3.3c-0.3-0.7-0.9-1-1.9-1
		c-0.7,0-1.2,0.2-1.6,0.5c-0.4,0.3-0.6,0.8-0.7,1.6c-0.1,0.7-0.2,1.8-0.2,3.1v1.2H487.6z"/>
	<path class="st2" d="M126.7,72.9h-6.4v-2.3h15.6v2.3h-6.2v29.5h-3V72.9z"/>
	<path class="st2" d="M138.1,79.7h2.9v3.1c0.7-1.1,1.5-2,2.4-2.5c0.9-0.6,1.9-0.8,2.8-0.8c0.2,0,0.4,0,0.5,0v3.1
		c-0.5-0.2-0.9-0.2-1.4-0.2c-1.8,0-3.2,0.9-4.3,2.6v17.5h-2.9V79.7z"/>
	<path class="st2" d="M150.5,100.7c-0.9-1.4-1.3-3.6-1.3-6.5V88c0-2.9,0.4-5.1,1.3-6.5c0.9-1.4,2.5-2.1,4.7-2.1s3.8,0.7,4.7,2.1
		c0.9,1.4,1.3,3.6,1.3,6.5v6.3c0,2.9-0.4,5.1-1.3,6.5c-0.9,1.4-2.5,2.1-4.7,2.1S151.4,102.1,150.5,100.7z M150.6,70.6h2.9v3.5h-2.9
		V70.6z M157.3,99.9c0.5-0.5,0.8-1.2,0.9-2c0.1-0.9,0.2-2,0.2-3.5v-6.6c0-1.4-0.1-2.6-0.2-3.5c-0.1-0.9-0.4-1.5-0.9-2
		c-0.5-0.5-1.2-0.7-2.1-0.7s-1.6,0.2-2.1,0.7c-0.5,0.5-0.8,1.2-0.9,2c-0.1,0.9-0.2,2-0.2,3.5v6.6c0,1.5,0.1,2.6,0.2,3.5
		c0.1,0.9,0.4,1.5,0.9,2c0.5,0.5,1.2,0.7,2.1,0.7S156.9,100.4,157.3,99.9z M157.1,70.6h2.9v3.5h-2.9V70.6z"/>
	<path class="st2" d="M166.1,100.7c-0.9-1.4-1.3-3.6-1.3-6.5V88c0-2.9,0.4-5.1,1.3-6.5c0.9-1.4,2.5-2.1,4.7-2.1s3.8,0.7,4.7,2.1
		c0.9,1.4,1.3,3.6,1.3,6.5v6.3c0,2.9-0.4,5.1-1.3,6.5c-0.9,1.4-2.5,2.1-4.7,2.1S167,102.1,166.1,100.7z M166.2,70.6h2.9v3.5h-2.9
		V70.6z M173,99.9c0.5-0.5,0.8-1.2,0.9-2c0.1-0.9,0.2-2,0.2-3.5v-6.6c0-1.4-0.1-2.6-0.2-3.5c-0.1-0.9-0.4-1.5-0.9-2
		c-0.5-0.5-1.2-0.7-2.1-0.7s-1.6,0.2-2.1,0.7c-0.5,0.5-0.8,1.2-0.9,2c-0.1,0.9-0.2,2-0.2,3.5v6.6c0,1.5,0.1,2.6,0.2,3.5
		c0.1,0.9,0.4,1.5,0.9,2c0.5,0.5,1.2,0.7,2.1,0.7S172.5,100.4,173,99.9z M172.7,70.6h2.9v3.5h-2.9V70.6z"/>
	<path class="st2" d="M180.9,79.7h2.9v2.4c0.8-0.8,1.6-1.5,2.5-2c0.9-0.5,1.9-0.7,2.9-0.7c1.1,0,2,0.4,2.6,1.3
		c0.6,0.8,0.9,2,0.9,3.6v18.2h-2.9V84.8c0-1.2-0.2-2-0.5-2.5c-0.4-0.5-0.9-0.7-1.6-0.7c-0.6,0-1.3,0.2-2,0.6c-0.7,0.4-1.3,0.9-2,1.6
		v18.7h-2.9V79.7z"/>
	<path class="st2" d="M197.8,100.6c-0.9-1.5-1.3-3.9-1.3-7.3v-4.2c0-3.2,0.4-5.6,1.1-7.3c0.8-1.6,2.2-2.4,4.2-2.4c1.5,0,2.8,0.7,4,2
		V70.6h2.9v31.8h-2.9v-1.6c-1.2,1.3-2.5,2-3.9,2C200.1,102.8,198.7,102.1,197.8,100.6z M205.9,99V83.2c-1.2-1.1-2.3-1.6-3.4-1.6
		c-1.2,0-2,0.5-2.5,1.5c-0.4,1-0.6,2.7-0.6,5v5.4c0,2.5,0.2,4.2,0.6,5.3c0.4,1.1,1.3,1.7,2.5,1.7C203.7,100.5,204.8,100,205.9,99z"
		/>
	<path class="st2" d="M215.4,101.9c-0.9-0.6-1.5-1.5-2-2.8c-0.4-1.3-0.6-3-0.6-5.2v-5.7c0-2.2,0.2-4,0.6-5.2s1.1-2.2,2-2.7
		c0.9-0.6,2.1-0.8,3.5-0.8c1.6,0,2.8,0.3,3.6,1c0.9,0.7,1.4,1.7,1.8,3c0.3,1.3,0.5,3.1,0.5,5.4l0,2h-9.2v3.4c0,1.6,0.1,2.9,0.3,3.8
		c0.2,0.9,0.5,1.6,1,2c0.5,0.4,1.1,0.6,2,0.6c1,0,1.8-0.3,2.3-0.9c0.5-0.6,0.8-1.8,0.8-3.4v-1.6h2.8V96c0,2.2-0.5,3.9-1.4,5.1
		c-0.9,1.2-2.4,1.8-4.5,1.8C217.4,102.8,216.3,102.5,215.4,101.9z M222,89.2v-1.9c0-1.4-0.1-2.4-0.2-3.2s-0.4-1.4-0.9-1.8
		c-0.4-0.4-1.1-0.7-2-0.7c-0.8,0-1.5,0.2-1.9,0.5c-0.5,0.4-0.8,1-1,1.8c-0.2,0.9-0.3,2.1-0.3,3.7v1.5H222z"/>
	<path class="st2" d="M229.1,70.6h2.9v31.8h-2.9V70.6z"/>
	<path class="st2" d="M237.3,101.4c-0.8-1-1.3-2.2-1.3-3.6c0-1.5,0.3-2.7,0.9-3.7c0.6-1,1.5-1.8,2.7-2.6c1.2-0.8,3.1-1.7,5.6-2.8V87
		c0-1.4-0.1-2.5-0.3-3.3s-0.5-1.3-0.9-1.7c-0.4-0.3-1-0.5-1.7-0.5c-2.1,0-3.2,1.3-3.2,3.9v0.8l-2.8-0.1l0-0.7
		c0.1-2.1,0.6-3.7,1.7-4.7c1-1,2.5-1.5,4.5-1.5c2,0,3.4,0.6,4.3,1.8c0.9,1.2,1.3,3.1,1.3,5.7v11c0,0.7,0,1.6,0.1,2.5
		c0,0.9,0.1,1.6,0.1,2h-2.6l-0.4-3.1c-0.3,1-0.9,1.8-1.7,2.5c-0.8,0.7-1.8,1-2.9,1C239.2,102.8,238.1,102.3,237.3,101.4z
		 M243.6,99.6c0.6-0.5,1.2-1.2,1.6-1.9v-7.1c-1.8,1-3.1,1.7-3.9,2.2c-0.8,0.5-1.4,1.1-1.8,1.7c-0.4,0.7-0.6,1.5-0.6,2.6
		c0,1.1,0.2,2,0.7,2.5s1.1,0.8,1.9,0.8C242.3,100.4,243,100.1,243.6,99.6z"/>
	<path class="st2" d="M252.8,109c-1.4-0.6-2-1.6-2-3c0-1.1,0.4-2.1,1.1-3s1.6-1.7,2.7-2.2c-0.7-0.2-1.3-0.5-1.8-0.8
		c-0.5-0.4-0.7-0.7-0.7-1.1c0-0.7,0.2-1.5,0.7-2.2c0.5-0.8,1.2-1.6,2-2.4c-1-0.7-1.7-1.7-2.2-2.8c-0.5-1.1-0.7-2.5-0.7-4.1
		c0-2.3,0.5-4.2,1.6-5.7c1.1-1.5,2.7-2.2,4.8-2.2c2.3,0,3.9,0.9,4.9,2.8c0.2-0.4,0.6-0.8,1.2-1.4c0.6-0.5,1.2-0.9,1.8-1.2l0.6-0.2
		l0.8,2c-0.6,0.1-1.3,0.4-2.1,0.8c-0.8,0.4-1.3,0.8-1.6,1.2c0.2,0.5,0.3,1.1,0.5,1.9c0.1,0.8,0.2,1.5,0.2,2c0,2.4-0.5,4.4-1.5,5.8
		c-1,1.4-2.6,2.1-4.8,2.1c-0.4,0-0.8,0-1.2-0.1c-0.4-0.1-0.8-0.2-1.1-0.3c-0.1,0.2-0.3,0.4-0.6,0.8c-0.3,0.4-0.5,0.8-0.7,1.2
		c-0.2,0.4-0.3,0.7-0.3,0.9c0,0.4,0.6,0.7,1.9,0.9c0.2,0.1,0.6,0.2,1.3,0.3c0.7,0.1,1.2,0.2,1.5,0.2c0.4,0.1,0.7,0.1,0.8,0.1
		c1.9,0.3,3.3,0.9,4.3,1.7c1,0.9,1.4,2,1.4,3.5c0,1.8-0.6,3.1-1.9,4s-3,1.3-5.2,1.3C256,109.9,254.1,109.6,252.8,109z M262,106.9
		c0.9-0.5,1.3-1.2,1.3-2.2c0-0.8-0.3-1.5-0.9-1.9s-1.7-0.9-3.4-1.1l-2.9-0.4c-1.9,1.2-2.9,2.5-2.9,3.9c0,0.9,0.4,1.5,1.2,1.9
		c0.8,0.4,2.2,0.6,4,0.6C259.9,107.6,261.1,107.4,262,106.9z M261.2,91.6c0.5-1.1,0.7-2.5,0.7-4.3c0-3.9-1.2-5.9-3.7-5.9
		c-1.4,0-2.4,0.6-3,1.7c-0.6,1.2-0.8,2.5-0.8,4.2c0,4,1.3,5.9,3.8,5.9C259.7,93.3,260.7,92.7,261.2,91.6z"/>
	<path class="st2" d="M271.4,101.9c-0.9-0.6-1.5-1.5-2-2.8c-0.4-1.3-0.6-3-0.6-5.2v-5.7c0-2.2,0.2-4,0.6-5.2c0.4-1.3,1.1-2.2,2-2.7
		c0.9-0.6,2.1-0.8,3.5-0.8c1.6,0,2.8,0.3,3.6,1c0.9,0.7,1.4,1.7,1.8,3c0.3,1.3,0.5,3.1,0.5,5.4l0,2h-9.2v3.4c0,1.6,0.1,2.9,0.3,3.8
		c0.2,0.9,0.5,1.6,1,2c0.5,0.4,1.1,0.6,2,0.6c1,0,1.8-0.3,2.3-0.9s0.8-1.8,0.8-3.4v-1.6h2.8V96c0,2.2-0.5,3.9-1.4,5.1
		c-0.9,1.2-2.4,1.8-4.5,1.8C273.4,102.8,272.3,102.5,271.4,101.9z M278,89.2v-1.9c0-1.4-0.1-2.4-0.2-3.2c-0.1-0.8-0.4-1.4-0.9-1.8
		c-0.4-0.4-1.1-0.7-2-0.7c-0.8,0-1.5,0.2-1.9,0.5c-0.5,0.4-0.8,1-1,1.8c-0.2,0.9-0.3,2.1-0.3,3.7v1.5H278z"/>
	<path class="st2" d="M284.7,79.7h2.9v2.4c0.8-0.8,1.6-1.5,2.5-2c0.9-0.5,1.9-0.7,2.9-0.7c1.1,0,2,0.4,2.6,1.3
		c0.6,0.8,0.9,2,0.9,3.6v18.2h-2.9V84.8c0-1.2-0.2-2-0.5-2.5c-0.4-0.5-0.9-0.7-1.6-0.7c-0.6,0-1.3,0.2-2,0.6c-0.7,0.4-1.3,0.9-2,1.6
		v18.7h-2.9V79.7z"/>
	<path class="st2" d="M310.2,81.8h-2.9v-2.1h2.9v-2.4c0-1.3,0.1-2.3,0.3-3.1c0.2-0.8,0.6-1.5,1.2-1.9c0.6-0.5,1.5-0.7,2.7-0.7
		c0.8,0,1.5,0.1,2.3,0.2V74c-0.2,0-0.5-0.1-0.8-0.1c-0.3-0.1-0.6-0.1-0.8-0.1c-0.8,0-1.3,0.2-1.6,0.7s-0.4,1.3-0.4,2.6v2.6h3.7v2.1
		h-3.7v20.6h-2.9V81.8z"/>
	<path class="st2" d="M318.7,105.9c1.8,0,3-0.2,3.6-0.5c0.6-0.3,1-0.9,1-1.7c0-0.3,0-0.6,0-0.7c-0.1-0.4-0.2-1.2-0.5-2.3l-0.2-0.9
		c-0.5-2-1-4.4-1.7-7.2c-0.7-2.8-1.3-5.4-1.8-7.9c-0.8-3.3-1.1-4.9-1.1-5h2.9l3.9,19.3l3.8-19.3h2.9l-5.5,24.3c-0.3,1.4-1,2.5-2,3.1
		c-1,0.6-2.5,0.9-4.4,0.9h-0.7V105.9z"/>
	<path class="st2" d="M334.7,70.6h2.9v31.8h-2.9V70.6z"/>
	<path class="st2" d="M342.3,70.6h2.9v11.5c1.7-1.8,3.6-2.8,5.5-2.8c1.1,0,2,0.4,2.6,1.3c0.6,0.8,0.9,2,0.9,3.6v18.2h-2.9V84.8
		c0-1.2-0.2-2-0.5-2.5c-0.4-0.5-0.9-0.7-1.6-0.7c-0.6,0-1.3,0.2-2,0.6c-0.7,0.4-1.4,0.9-2,1.6v18.7h-2.9V70.6z"/>
	<path class="st2" d="M358.5,70.6h2.9v20.2l7.6-11.1h3l-5.7,8.8l5.5,14h-2.9l-4.8-12.3l-2.7,3.7v8.6h-2.9V70.6z"/>
	<path class="st2" d="M376.4,101.9c-0.9-0.6-1.5-1.5-2-2.8c-0.4-1.3-0.6-3-0.6-5.2v-5.7c0-2.2,0.2-4,0.6-5.2c0.4-1.3,1.1-2.2,2-2.7
		c0.9-0.6,2.1-0.8,3.5-0.8c1.6,0,2.8,0.3,3.6,1c0.9,0.7,1.4,1.7,1.8,3c0.3,1.3,0.5,3.1,0.5,5.4l0,2h-9.2v3.4c0,1.6,0.1,2.9,0.3,3.8
		c0.2,0.9,0.5,1.6,1,2c0.5,0.4,1.1,0.6,2,0.6c1,0,1.8-0.3,2.3-0.9s0.8-1.8,0.8-3.4v-1.6h2.8V96c0,2.2-0.5,3.9-1.4,5.1
		c-0.9,1.2-2.4,1.8-4.5,1.8C378.4,102.8,377.3,102.5,376.4,101.9z M383,89.2v-1.9c0-1.4-0.1-2.4-0.2-3.2c-0.1-0.8-0.4-1.4-0.9-1.8
		c-0.4-0.4-1.1-0.7-2-0.7c-0.8,0-1.5,0.2-1.9,0.5c-0.5,0.4-0.8,1-1,1.8c-0.2,0.9-0.3,2.1-0.3,3.7v1.5H383z"/>
	<path class="st2" d="M389.7,79.7h2.9v2.4c0.8-0.8,1.6-1.5,2.5-2c0.9-0.5,1.9-0.7,2.9-0.7c1.1,0,2,0.4,2.6,1.3
		c0.6,0.8,0.9,2,0.9,3.6v18.2h-2.9V84.8c0-1.2-0.2-2-0.5-2.5c-0.4-0.5-0.9-0.7-1.6-0.7c-0.6,0-1.3,0.2-2,0.6c-0.7,0.4-1.3,0.9-2,1.6
		v18.7h-2.9V79.7z"/>
	<path class="st2" d="M408,101.5c-0.6-0.9-0.9-2.1-0.9-3.7V81.6h-2.8v-1.9h2.8v-7h2.9v7h3.8v1.9H410v15.8c0,1.2,0.1,1.9,0.4,2.4
		c0.3,0.4,0.8,0.6,1.6,0.6c0.5,0,1-0.1,1.7-0.2v2.2c-0.8,0.2-1.6,0.2-2.4,0.2C409.6,102.7,408.5,102.3,408,101.5z"/>
	<path class="st2" d="M413.9,108.3v-2.2c0.2,0.1,0.5,0.1,1,0.1c1.1,0,1.8-0.3,2.2-0.8c0.4-0.6,0.5-1.3,0.5-2.3V79.7h2.9v23.5
		c0,3.5-1.7,5.2-5,5.2C414.7,108.4,414.2,108.4,413.9,108.3z M417.6,72.7h2.9v3.9h-2.9V72.7z"/>
	<path class="st2" d="M422.3,70.6h2.9v3.5h-2.9V70.6z M425.5,79.7h2.9v22.7h-2.9V79.7z M428.8,70.6h2.9v3.5h-2.9V70.6z"/>
	<path class="st2" d="M435.1,101.9c-0.9-0.6-1.5-1.5-2-2.8c-0.4-1.3-0.6-3-0.6-5.2v-5.7c0-2.2,0.2-4,0.6-5.2c0.4-1.3,1.1-2.2,2-2.7
		c0.9-0.6,2.1-0.8,3.5-0.8c1.6,0,2.8,0.3,3.6,1c0.9,0.7,1.4,1.7,1.8,3c0.3,1.3,0.5,3.1,0.5,5.4l0,2h-9.2v3.4c0,1.6,0.1,2.9,0.3,3.8
		c0.2,0.9,0.5,1.6,1,2c0.5,0.4,1.1,0.6,2,0.6c1,0,1.8-0.3,2.3-0.9s0.8-1.8,0.8-3.4v-1.6h2.8V96c0,2.2-0.5,3.9-1.4,5.1
		c-0.9,1.2-2.4,1.8-4.5,1.8C437.2,102.8,436,102.5,435.1,101.9z M441.8,89.2v-1.9c0-1.4-0.1-2.4-0.2-3.2c-0.1-0.8-0.4-1.4-0.9-1.8
		c-0.4-0.4-1.1-0.7-2-0.7c-0.8,0-1.5,0.2-1.9,0.5c-0.5,0.4-0.8,1-1,1.8c-0.2,0.9-0.3,2.1-0.3,3.7v1.5H441.8z"/>
	<path class="st2" d="M448.9,70.6h2.9v31.8h-2.9V70.6z"/>
	<path class="st2" d="M458.6,101.5c-0.6-0.9-0.9-2.1-0.9-3.7V81.6h-2.8v-1.9h2.8v-7h2.9v7h3.8v1.9h-3.8v15.8c0,1.2,0.1,1.9,0.4,2.4
		c0.3,0.4,0.8,0.6,1.6,0.6c0.5,0,1-0.1,1.7-0.2v2.2c-0.8,0.2-1.6,0.2-2.4,0.2C460.2,102.7,459.2,102.3,458.6,101.5z"/>
	<path class="st2" d="M469.6,101.9c-0.9-0.6-1.5-1.5-2-2.8c-0.4-1.3-0.6-3-0.6-5.2v-5.7c0-2.2,0.2-4,0.6-5.2c0.4-1.3,1.1-2.2,2-2.7
		c0.9-0.6,2.1-0.8,3.5-0.8c1.6,0,2.8,0.3,3.6,1c0.9,0.7,1.4,1.7,1.8,3c0.3,1.3,0.5,3.1,0.5,5.4l0,2h-9.2v3.4c0,1.6,0.1,2.9,0.3,3.8
		c0.2,0.9,0.5,1.6,1,2c0.5,0.4,1.1,0.6,2,0.6c1,0,1.8-0.3,2.3-0.9s0.8-1.8,0.8-3.4v-1.6h2.8V96c0,2.2-0.5,3.9-1.4,5.1
		c-0.9,1.2-2.4,1.8-4.5,1.8C471.7,102.8,470.5,102.5,469.6,101.9z M476.2,89.2v-1.9c0-1.4-0.1-2.4-0.2-3.2c-0.1-0.8-0.4-1.4-0.9-1.8
		c-0.4-0.4-1.1-0.7-2-0.7c-0.8,0-1.5,0.2-1.9,0.5c-0.5,0.4-0.8,1-1,1.8c-0.2,0.9-0.3,2.1-0.3,3.7v1.5H476.2z"/>
</g>
</svg>
