<svg width="90" height="16" viewBox="0 0 90 16" fill="none" xmlns="http://www.w3.org/2000/svg">
<path fill-rule="evenodd" clip-rule="evenodd" d="M5.40061 3.45362H13.4028L12.0012 1H3.99902L5.40061 3.45362ZM15.9933 8.00004L15.9952 7.99537L14.5474 5.46101H6.5459L7.99568 8.00004H15.9933Z" fill="#F7F8FA"/>
<path fill-rule="evenodd" clip-rule="evenodd" d="M4.25362 5.46192L5.40038 3.45472L3.99879 1.0011H3.99813L2.59654 3.45472L1.45044 5.46192L1.40159 5.54666L0 8.00095L1.40159 10.4546L1.40235 10.4532L2.54867 12.4596L2.54785 12.461L3.99823 15L5.39989 12.5464L7.99642 8.00017L6.54664 5.46114H6.54598L5.0962 8.00017L3.95026 10.0059L2.80466 7.9996H2.804L1.79234 9.77052L2.80318 8.00095L4.25362 5.46192Z" fill="#D5D5E6"/>
<path fill-rule="evenodd" clip-rule="evenodd" d="M15.9944 7.99945L11.9957 14.9993L10.5479 12.4649L13.0989 7.99945H15.9944Z" fill="#D5D5E6"/>
<path fill-rule="evenodd" clip-rule="evenodd" d="M13.0954 7.99756L11.6113 10.6117L16.0002 7.99756L13.0954 7.99756Z" fill="#363F59"/>
<path d="M29.355 13.15C32.19 13.15 33.705 11.605 33.705 8.8V2.275H31.695V8.635C31.695 10.855 30.915 11.545 29.37 11.545C27.78 11.545 27.15 10.735 27.15 8.77V2.275H25.14V8.92C25.14 11.68 26.67 13.15 29.355 13.15ZM35.8466 13H37.6616V8.38C37.6616 7.135 38.4866 6.505 39.5066 6.505C40.5866 6.505 41.0666 7.045 41.0666 8.23V13H42.8816V8.065C42.8816 5.905 41.7716 4.99 40.1966 4.99C38.9066 4.99 38.0366 5.635 37.6616 6.4V5.155H35.8466V13ZM45.2876 13H47.1026V6.52H48.8876V5.155H47.1026V4.03C47.1026 3.355 47.4026 2.875 48.1376 2.875C48.4676 2.875 48.7526 2.935 48.9626 3.01V1.6C48.6326 1.495 48.3626 1.45 47.9276 1.45C46.2476 1.45 45.2876 2.38 45.2876 4.105V5.155H44.2226V6.52H45.2876V13ZM53.6242 11.74C52.2442 11.74 51.4492 10.735 51.4492 9.13V9.01C51.4492 7.39 52.2742 6.415 53.6242 6.415C54.9742 6.415 55.7842 7.405 55.7842 9.025V9.13C55.7842 10.735 54.9742 11.74 53.6242 11.74ZM53.6092 13.15C55.9192 13.15 57.6442 11.56 57.6442 9.115V8.995C57.6442 6.595 55.9192 4.99 53.6242 4.99C51.3142 4.99 49.5892 6.61 49.5892 9.04V9.16C49.5892 11.545 51.2992 13.15 53.6092 13.15ZM59.3291 13H61.1441V1.525H59.3291V13ZM66.2964 13.15C67.4514 13.15 68.4564 12.46 68.8764 11.68V13H70.6914V1.525H68.8764V6.355C68.4414 5.575 67.6464 4.99 66.3714 4.99C64.3314 4.99 62.8464 6.58 62.8464 9.085V9.205C62.8464 11.755 64.3314 13.15 66.2964 13.15ZM66.7464 11.71C65.5764 11.71 64.7064 10.885 64.7064 9.16V9.04C64.7064 7.345 65.4864 6.415 66.8214 6.415C68.1414 6.415 68.9364 7.27 68.9364 8.995V9.115C68.9364 10.87 68.0064 11.71 66.7464 11.71ZM76.2986 13.15C78.3086 13.15 79.6436 12.25 79.8986 10.6H78.1436C78.0086 11.365 77.4386 11.8 76.3436 11.8C74.9936 11.8 74.2436 10.96 74.1836 9.475H79.9286V8.95C79.9286 6.145 78.1736 4.99 76.2236 4.99C73.9886 4.99 72.3236 6.61 72.3236 9.04V9.16C72.3236 11.635 73.9886 13.15 76.2986 13.15ZM74.2136 8.26C74.3936 7.045 75.1286 6.31 76.2236 6.31C77.3486 6.31 78.0386 6.91 78.1286 8.26H74.2136ZM84.4897 13.15C85.6447 13.15 86.6497 12.46 87.0697 11.68V13H88.8847V1.525H87.0697V6.355C86.6347 5.575 85.8397 4.99 84.5647 4.99C82.5247 4.99 81.0397 6.58 81.0397 9.085V9.205C81.0397 11.755 82.5247 13.15 84.4897 13.15ZM84.9397 11.71C83.7697 11.71 82.8997 10.885 82.8997 9.16V9.04C82.8997 7.345 83.6797 6.415 85.0147 6.415C86.3347 6.415 87.1297 7.27 87.1297 8.995V9.115C87.1297 10.87 86.1997 11.71 84.9397 11.71Z" fill="#F7F8FA"/>
</svg>
