<?xml version="1.0" encoding="utf-8"?>
<svg version="1.1" id="Ombudsfrau" xmlns="http://www.w3.org/2000/svg" xmlns:xlink="http://www.w3.org/1999/xlink" x="0px" y="0px"
	 width="250.1px" height="81.5px" viewBox="0 0 250.1 81.5" style="enable-background:new 0 0 250.1 81.5;" xml:space="preserve">
<title>Logo Stadt Zürich</title>
<style type="text/css">
	.st0{fill:none;}
	.st1{fill:#fff;}
</style>
<rect class="st0" width="250.1" height="81.5"/>
<g transform="translate(0,12)">
	<g>
		<path class="st1" d="M113,32.8c2.6,0,4.6,0.9,6.2,2.6c1.5,1.7,2.3,4,2.3,6.7s-0.8,5-2.4,6.7s-3.6,2.6-6.1,2.6s-4.6-0.9-6.1-2.6
			c-1.6-1.7-2.3-4-2.3-6.7c0-2.6,0.8-4.9,2.3-6.6C108.3,33.6,110.4,32.8,113,32.8z M106.9,42c0,2.2,0.6,3.9,1.7,5.3
			c1.1,1.3,2.6,2,4.5,2s3.3-0.7,4.4-2s1.7-3.1,1.7-5.3c0-2.1-0.5-3.9-1.6-5.2s-2.6-2-4.5-2s-3.4,0.7-4.5,2.1S106.9,39.9,106.9,42z"
			/>
		<path class="st1" d="M130.4,37.8c1.8,0,3.3,0.6,4.3,1.8c1.1,1.2,1.6,2.9,1.6,4.9s-0.5,3.6-1.6,4.8s-2.5,1.8-4.3,1.8
			c-0.8,0-1.6-0.2-2.3-0.5c-0.8-0.3-1.4-0.8-1.8-1.5l0,0v6.6h-2.1V38.1h2.1v1.7l0,0C127,38.4,128.4,37.8,130.4,37.8z M126.2,44.5
			c0,1.5,0.4,2.7,1.1,3.5c0.7,0.9,1.7,1.3,3,1.3c1.2,0,2.2-0.4,2.8-1.3c0.7-0.9,1-2.1,1-3.7c0-1.4-0.4-2.5-1.1-3.4
			c-0.7-0.9-1.7-1.3-2.9-1.3s-2.1,0.4-2.8,1.3C126.6,41.8,126.2,43,126.2,44.5z"/>
		<path class="st1" d="M144.1,37.8c1.8,0,3.2,0.7,4.3,2c1,1.3,1.5,3,1.5,5.1v0.2h-9.6v0.1c0,1.2,0.4,2.2,1.1,3s1.7,1.1,2.9,1.1
			c1.8,0,2.9-0.8,3.3-2.5h2.1c-0.3,1.4-0.9,2.5-1.9,3.3c-1,0.7-2.2,1.1-3.6,1.1c-2,0-3.5-0.7-4.6-2s-1.6-2.9-1.6-4.8
			c0-1.9,0.6-3.5,1.7-4.7C141,38.4,142.4,37.8,144.1,37.8z M147.7,43.2c-0.1-1-0.4-1.9-1.1-2.6c-0.7-0.7-1.5-1-2.6-1
			c-1,0-1.8,0.3-2.5,1s-1.1,1.5-1.2,2.6H147.7z"/>
		<path class="st1" d="M158.5,37.8c2.9,0,4.4,1.5,4.4,4.6v8.5h-2.1v-8.8c0-0.7-0.2-1.3-0.7-1.8s-1.1-0.7-2-0.7
			c-1.2,0-2.1,0.4-2.8,1.1s-1,1.7-1,2.9v7.3h-2.1V38.1h2v2l0,0C155.2,38.5,156.6,37.8,158.5,37.8z"/>
		<path class="st1" d="M177.8,33.2c2.7,0,4.7,0.7,6.2,2.1c1.4,1.4,2.2,3.5,2.2,6.3c0,6.2-2.8,9.3-8.4,9.3h-6.2V33.2H177.8z
			 M177.9,48.9c1.9,0,3.3-0.6,4.3-1.8s1.5-2.9,1.5-5.1c0-2.3-0.5-4.1-1.5-5.1c-1-1.1-2.4-1.6-4.3-1.6H174V49h3.9V48.9z"/>
		<path class="st1" d="M194,37.8c3.2,0,4.8,1.1,4.8,3.4v7.4c0,0.5,0.2,0.7,0.7,0.7c0.2,0,0.4,0,0.6-0.1v1.6
			c-0.4,0.2-0.9,0.3-1.5,0.3c-1.2,0-1.8-0.7-1.8-2c-1.1,1.3-2.6,2-4.5,2c-1.3,0-2.4-0.3-3.1-0.9c-0.8-0.6-1.1-1.5-1.1-2.7
			c0-1.1,0.4-2,1.1-2.7c0.7-0.7,2.5-1.2,5.2-1.5c0.9-0.1,1.5-0.3,1.9-0.5c0.3-0.2,0.5-0.6,0.5-1.1c0-1.4-1-2.1-2.9-2.1
			c-1,0-1.8,0.2-2.3,0.6c-0.5,0.4-0.8,1-0.9,1.8h-2.1C188.7,39.2,190.5,37.8,194,37.8z M190.2,47.4c0,0.6,0.2,1.1,0.6,1.4
			c0.4,0.3,1,0.5,1.8,0.5c1.1,0,2.1-0.3,2.8-0.8c0.7-0.6,1.1-1.2,1.1-2v-2.2c-0.4,0.3-0.9,0.4-1.5,0.5l-2.2,0.3
			c-0.9,0.1-1.6,0.4-2.1,0.8C190.5,46.2,190.2,46.8,190.2,47.4z"/>
		<path class="st1" d="M204.8,34.2V38h2.6v1.9h-2.6v8c0,0.4,0.1,0.7,0.2,0.8c0.1,0.2,0.5,0.2,1.1,0.2h1.2v1.9h-1.7
			c-1.1,0-1.9-0.2-2.3-0.5c-0.4-0.4-0.6-1.1-0.6-2.1v-8.3h-2.2V38h2.2v-3.8C202.7,34.2,204.8,34.2,204.8,34.2z"/>
		<path class="st1" d="M215,37.8c3.2,0,4.8,1.1,4.8,3.4v7.4c0,0.5,0.2,0.7,0.7,0.7c0.2,0,0.4,0,0.6-0.1v1.6
			c-0.4,0.2-0.9,0.3-1.5,0.3c-1.2,0-1.8-0.7-1.8-2c-1.1,1.3-2.6,2-4.5,2c-1.3,0-2.4-0.3-3.1-0.9c-0.8-0.6-1.1-1.5-1.1-2.7
			c0-1.1,0.4-2,1.1-2.7c0.7-0.7,2.5-1.2,5.2-1.5c0.9-0.1,1.5-0.3,1.9-0.5c0.3-0.2,0.5-0.6,0.5-1.1c0-1.4-1-2.1-2.9-2.1
			c-1,0-1.8,0.2-2.3,0.6c-0.5,0.4-0.8,1-0.9,1.8h-2.1C209.7,39.2,211.5,37.8,215,37.8z M211.2,47.4c0,0.6,0.2,1.1,0.6,1.4
			c0.4,0.3,1,0.5,1.8,0.5c1.1,0,2.1-0.3,2.8-0.8c0.7-0.6,1.1-1.2,1.1-2v-2.2c-0.4,0.3-0.9,0.4-1.5,0.5l-2.2,0.3
			c-0.9,0.1-1.6,0.4-2.1,0.8C211.5,46.2,211.2,46.8,211.2,47.4z"/>
	</g>
	<g>
		<g>
			<path class="st1" d="M119.4,7.9h-3.8c-0.1-1.8-1.2-2.7-3.5-2.7c-1.4,0-2.7,0.6-2.7,2c0,1.3,0.8,1.5,4.7,2.5
				c2.6,0.7,5.9,1.6,5.9,5.3c0,3.4-2.7,5.7-7.4,5.7c-3.8,0-7.6-1.8-7.6-6.2v-0.1h3.8c0,2.5,2.1,3.3,3.9,3.3s3.5-0.6,3.5-2.2
				c0-1.1-0.9-1.8-3.1-2.4c-1.3-0.3-2.5-0.6-3.6-1c-2.7-0.9-3.9-2.4-3.9-4.7c0-3.6,3.4-5.4,6.7-5.4C116,2.2,119.4,3.9,119.4,7.9z"/>
			<path class="st1" d="M126.4,3.7v3.9h2.6V10h-2.6v6.4c0,1.2,0.3,1.5,1.5,1.5c0.4,0,0.8,0,1.1-0.1v2.8c-0.6,0.1-1.4,0.1-2.1,0.1
				c-2.7,0-4-0.8-4-3.1V9.9h-2.1V7.5h2.1V3.7H126.4z"/>
			<path class="st1" d="M142.7,10.9v6.8c0,1,0.1,2.2,0.4,2.7h-3.6c-0.1-0.4-0.2-0.8-0.2-1.2c-1,1-2.5,1.6-4.3,1.6
				c-2.6,0-4.4-1.4-4.4-3.9c0-1.2,0.4-2.1,1.1-2.7c0.8-0.7,2-1.1,4.2-1.3c2.3-0.2,3.3-0.5,3.3-1.6c0-1.5-1.1-1.7-2.3-1.7
				c-1.5,0-2.2,0.6-2.4,1.9H131c0.1-2.8,2.5-4.3,6.1-4.3C140.8,7.2,142.7,8.5,142.7,10.9z M136.3,18.4c1.9,0,2.9-1,2.9-2.9v-1.4
				c-0.3,0.3-0.9,0.5-2.1,0.6c-1.8,0.2-2.9,0.6-2.9,2C134.1,17.8,134.7,18.4,136.3,18.4z"/>
			<path class="st1" d="M158,2.6v17.8h-3.4v-1.6l0,0c-0.8,1.3-2.1,2-3.9,2c-3.8,0-5.8-3.2-5.8-6.9c0-3.6,2-6.7,5.7-6.7
				c1.5,0,3,0.7,3.8,1.9l0,0V2.6H158z M151.5,18.1c2,0,3-1.6,3-4.2c0-2.3-0.9-4.1-3.1-4.1c-2,0-3.1,1.6-3.1,4.1
				C148.4,16,149.4,18.1,151.5,18.1z"/>
			<path class="st1" d="M165.5,3.7v3.9h2.6V10h-2.6v6.4c0,1.2,0.3,1.5,1.5,1.5c0.4,0,0.8,0,1.1-0.1v2.8c-0.6,0.1-1.4,0.1-2.1,0.1
				c-2.7,0-4-0.8-4-3.1V9.9h-2.1V7.5h2.1V3.7H165.5z"/>
			<path class="st1" d="M190,2.6v3.1l-9.6,11.4h9.8v3.3h-15v-3.1l9.6-11.4H176V2.6H190z"/>
			<path class="st1" d="M195.6,7.5v7.3c0,2,0.5,3.1,2.3,3.1c2,0,2.8-1.1,2.8-3.7V7.5h3.5v12.9h-3.4v-1.8h-0.1
				c-0.9,1.5-2.4,2.1-4,2.1c-3.4,0-4.7-1.7-4.7-5.2v-8C192,7.5,195.6,7.5,195.6,7.5z M197.3,2.6v2.9h-3.4V2.6H197.3z M202.4,2.6v2.9
				H199V2.6H202.4z"/>
			<path class="st1" d="M215.5,7.3v3.3c-0.4-0.1-0.8-0.1-1.3-0.1c-2.6,0-3.5,1.8-3.5,4.1v5.8h-3.5V7.5h3.4v2.4l0,0
				c0.7-1.6,2.3-2.7,4.1-2.7C215,7.2,215.3,7.3,215.5,7.3z"/>
			<path class="st1" d="M220.9,2.6v2.9h-3.5V2.6H220.9z M220.9,7.5v12.9h-3.5V7.5H220.9z"/>
			<path class="st1" d="M235.8,12.1h-3.5c-0.2-1.5-1.1-2.2-2.6-2.2c-2.1,0-3,2.1-3,4.2s0.9,4.1,2.9,4.1c1.6,0,2.6-0.9,2.8-2.6h3.4
				c-0.5,3.4-2.8,5.3-6.2,5.3c-4,0-6.5-2.9-6.5-6.6c0-4.1,2.5-7,6.6-7C233,7.2,235.6,9,235.8,12.1z"/>
			<path class="st1" d="M241.5,2.6v6.7h0.1c0.8-1.3,2.3-2.1,3.8-2.1c3.3,0,4.7,1.6,4.7,5.2v8.1h-3.5v-7.3c0-2.1-0.6-3.1-2.3-3.1
				c-2.2,0-2.8,1.4-2.8,3.7v6.8H238v-18H241.5z"/>
		</g>
	</g>
	<path class="st1" d="M83,39c-0.3,0-0.6,0.1-0.9,0.2c-0.4-1.4-0.8-2.8-1.1-4.2l1.6-2.2c0.2-0.3,2.9-3.7,2.9-6.9c0-4.7-4-4.8-4.4-4.8
		c-1,0-2.5,0.4-3.4,1.6c-0.9,1.1-1.1,2.6-0.7,4.4c0.1,0.3,1,3.9,2,7.5l-1.6,2.1l-3.5-13.4l8-5.9l0,0c2.2-1.7,3.5-4.4,3.5-7.2
		c0-4.3-3-8-7.1-8.9V0.4L76.7,0v1l-4.6-0.3h-1.5v3.7h1.5c0.4,0,0.8,0.4,0.8,0.8S72.5,6,72.1,6l-5-0.5l0.4,1.6L72,7.5l0,0h0.1
		c1.3,0,2.3-1,2.3-2.3s-1-2.3-2.3-2.3V2.3l4.5,0.3v4.3c0,0.5-0.2,0.9-0.5,1.2s-0.8,0.5-1.3,0.4l-5.1-0.3l0.4,1.5l0,0
		c-1.4,0.9-2.6,2.1-3.5,3.4l-2-4.3C64.9,8.3,65,7.7,65,7.2c0-2-1.6-3.6-3.6-3.6c-1.3,0-2.4,0.6-3,1.6L58.8,1H26.7L27,5.3
		c-0.6-1-1.8-1.6-3-1.6c-2,0-3.6,1.6-3.6,3.6c0,0.6,0.1,1.1,0.4,1.6l-2,4.3c-0.9-1.4-2.1-2.5-3.5-3.4l0,0l0.4-1.5l-5.1,0.3
		c-0.5,0-0.9-0.1-1.3-0.4C9,7.7,8.9,7.3,8.9,6.8V2.5l4.5-0.3v0.6c-1.3,0-2.3,1.1-2.3,2.3c0,1.3,1,2.3,2.3,2.3h0.1L18,7.1l0.4-1.6
		l-5,0.5c-0.4,0-0.8-0.4-0.8-0.8s0.4-0.8,0.8-0.8h1.5V0.8h-1.5L8.9,1V0L7.3,0.4v0.8c-4.2,0.9-7.1,4.6-7.1,8.9c0,2.8,1.3,5.5,3.5,7.2
		l8,5.9L8.2,36.7l-1.6-2.1c1-3.5,1.9-7.1,2-7.5c0.4-1.8,0.2-3.3-0.7-4.4c-0.9-1.2-2.4-1.6-3.4-1.6C4,21.1,0,21.3,0,26
		c0,3.1,2.7,6.5,2.9,6.9L4.5,35c-0.4,1.4-0.8,2.8-1.1,4.2C3.2,39.1,2.9,39,2.6,39c-1.2,0-2.2,1-2.2,2.2s1,2.2,2.2,2.2
		c1,0,1.9-0.7,2.1-1.6l0,0C4.8,41.3,5.4,39.3,6,37l1.6,2.1L3.4,54.9l0,0c-0.1,0.3-0.1,0.5-0.1,0.8c0,2,1.6,3.6,3.6,3.6
		s3.6-1.6,3.6-3.6c0-0.9-0.3-1.7-0.9-2.4l3.7-6l7.4,10.4c0.7,1,1.8,1.5,3,1.5c2,0,3.6-1.6,3.6-3.6S25.7,52,23.7,52
		c-0.1,0-0.1,0-0.2,0l-5-14.2c-0.5-1.3-1.6-2.2-3-2.4c-0.2,0-0.4,0-0.6,0l3.4-7.4l4.5,3.3c0.6,0.5,1.4,0.8,2.2,0.8
		c0.2,0,0.4,0,0.7-0.1L27,45.1c0.4,3.6,2.3,7.1,5.3,9.8c3.1,2.8,6.8,4.3,10.6,4.3l0,0c3.8,0,7.6-1.5,10.6-4.3c3-2.7,4.9-6.3,5.3-9.8
		l1.2-13c0.2,0,0.4,0.1,0.7,0.1c0.8,0,1.6-0.3,2.2-0.8l4.5-3.3l3.4,7.4c-0.2,0-0.4,0-0.6,0c-1.4,0.2-2.5,1.1-3,2.4l-5,14.2
		c-0.1,0-0.1,0-0.2,0c-2,0-3.6,1.6-3.6,3.6s1.6,3.6,3.6,3.6c1.2,0,2.3-0.6,3-1.5l7.4-10.4l3.7,6C75.3,54,75,54.8,75,55.7
		c0,2,1.6,3.6,3.6,3.6s3.6-1.6,3.6-3.6c0-0.3,0-0.5-0.1-0.8L78,39.1l1.6-2.1c0.6,2.3,1.2,4.3,1.3,4.8l0,0c0.2,0.9,1.1,1.6,2.1,1.6
		c1.2,0,2.2-1,2.2-2.2S84.2,39,83,39z M5.2,32.7l-0.7-1l0,0C3.8,30.8,2,28.1,2,26c0-2.6,1.8-2.9,2.5-2.9c0.6,0,1.4,0.2,2,0.9
		c0.5,0.6,0.6,1.6,0.4,2.8C6.7,27,6,29.5,5.2,32.7z M61.6,5.5c1,0,1.7,0.8,1.7,1.7c0,0.4-0.1,0.7-0.3,1l-0.3,0.4l3.1,6.5
		c-0.4,1.1-0.7,2.2-0.7,3.4l-5-10.8C60,7.5,60,7.3,60,7.1C59.8,6.3,60.6,5.5,61.6,5.5z M50.9,10.3h-4.4V8.2H51L50.9,10.3z M45,10.3
		h-4.4V8.2H45V10.3z M39.1,10.3h-4.4l-0.1-2.1H39L39.1,10.3z M33.1,10.3H29l-0.2-2.1h4.3V10.3z M56.5,11.9l-0.2,2.5h-27l-0.2-2.5
		H56.5z M56.6,10.3h-4.2l0.1-2.1h4.3L56.6,10.3z M54.2,2.6l-0.1,2.7h1.5l0.1-2.7h1.5l-0.3,4.1h-4.4l0.1-4.1
		C52.7,2.6,54.2,2.6,54.2,2.6z M48.1,2.6L48,5.3h1.5l0.1-2.7h1.5L51,6.7h-4.5l0.1-4.1H48.1z M42,2.6v2.7h1.5V2.6H45v4.1h-4.5
		l-0.1-4.1C40.5,2.6,42,2.6,42,2.6z M35.9,2.6L36,5.3h1.5l-0.1-2.7H39v4.1h-4.5l-0.1-4.1H35.9z M29.8,2.6L30,5.3h1.5l-0.1-2.7h1.5
		L33,6.7h-4.4l-0.3-4.1C28.3,2.6,29.8,2.6,29.8,2.6z M27.3,8.7l0.6,7.2h29.8l0.6-7.2l6.5,14l-3.3,2.4C61.3,25,61,25,60.7,25l0.6-6.5
		h-37l0.6,6.5c-0.3,0-0.6,0-0.9,0.1l-3.3-2.4L27.3,8.7z M28.4,27.4h3.9l2.5,2.4h-6.4c0.1-0.4,0.2-0.8,0.2-1.2
		C28.6,28.2,28.5,27.8,28.4,27.4z M27.4,25.9c-0.1-0.1-0.3-0.3-0.5-0.4l-0.3-3.6l4.1,3.9h-3.3V25.9z M22.9,8.7l-0.3-0.4
		c-0.2-0.3-0.3-0.7-0.3-1c0-1,0.8-1.7,1.7-1.7c1,0,1.7,0.8,1.7,1.7c0,0.2,0,0.4-0.1,0.6l-5,10.8c-0.1-1.2-0.3-2.3-0.7-3.4L22.9,8.7z
		 M15.2,37.4c0.4,0.1,1.2,0.3,1.5,1.2l5.6,15.8l0.9-0.3c0.2-0.1,0.4-0.1,0.5-0.1c1,0,1.7,0.8,1.7,1.7s-0.8,1.7-1.7,1.7
		c-0.6,0-1.1-0.3-1.4-0.7l-7.8-11.1l0.5-0.9c0.3-0.6,0.5-1.2,0.5-1.8c0-1.6-1.1-3-2.6-3.4l0.8-1.8C14,37.5,14.6,37.3,15.2,37.4z
		 M10.7,39.8l1.1,1.5c0.1,0,0.2,0,0.3,0c0.9,0,1.6,0.7,1.6,1.6c0,0.3-0.1,0.6-0.2,0.8l-6.3,10L8,54.2c0.5,0.3,0.8,0.9,0.8,1.4
		c0,1-0.8,1.7-1.7,1.7s-1.7-0.8-1.7-1.7c0-0.1,0-0.2,0-0.4l8.1-30.9l3.4,2.5L10.7,39.8z M25,30.3c-0.4,0-0.8-0.1-1.1-0.4l-19-14.1
		c-1.8-1.4-2.8-3.5-2.8-5.7c0-3.3,2.2-6.1,5.2-7v3.6c0,0.9,0.4,1.7,1,2.3c0.6,0.7,1.4,1,2.2,1c0.1,0,0.1,0,0.2,0l1.4-0.1
		c0.3,0.1,0.6,0.2,0.7,0.2c3.8,1.5,6.3,5.2,6.3,9.3c0,0.6-0.1,1.3-0.2,1.9l-4-2.9l-0.5,2l9.3,6.9l0.5-0.2c0.4-0.2,0.9-0.2,1.4,0
		c0.6,0.3,1.1,0.9,1.1,1.6c0,0.6-0.3,1.1-0.8,1.4C25.6,30.2,25.3,30.3,25,30.3z M27.4,31.3h8.9l2.5,2.4H27.7L27.4,31.3z M27.8,35.2
		h12.6l2.5,2.4H28.1L27.8,35.2z M28.2,39.1h16.3l2.5,2.4H28.4L28.2,39.1z M28.8,45.1l-0.2-2h20l2.5,2.4H28.8
		C28.8,45.3,28.8,45.2,28.8,45.1z M29.1,47h23.5l2.5,2.4h-25C29.7,48.6,29.4,47.8,29.1,47z M42.8,57.5c-2.8,0-5.6-1-7.9-2.6h15.8
		C48.4,56.5,45.6,57.5,42.8,57.5z M52.5,53.3H33c-0.8-0.7-1.4-1.5-2-2.4h23.6C54,51.8,53.3,52.6,52.5,53.3z M56.8,45.1
		c-0.1,0.9-0.3,1.8-0.6,2.7L27.7,20.4h31.5l-0.5,5.1c-1,0.7-1.7,1.8-1.7,3.1c0,1,0.4,2,1.1,2.6L56.8,45.1z M61.7,29.9L61.7,29.9
		c-0.3,0.3-0.7,0.4-1.1,0.4c-0.3,0-0.7-0.1-1-0.3c-0.5-0.3-0.8-0.9-0.8-1.4c0-0.7,0.4-1.3,1.1-1.6c0.4-0.2,0.9-0.2,1.4,0l0.5,0.2
		l9.3-6.9l-0.5-2l-4,2.9c-0.1-0.6-0.2-1.2-0.2-1.9c0-4.1,2.5-7.7,6.3-9.3c0.1,0,0.4-0.1,0.7-0.2l1.4,0.1c0.1,0,0.1,0,0.2,0
		c0.8,0,1.6-0.3,2.2-0.9c0.6-0.6,1-1.4,1-2.3V3.1c3.1,0.9,5.2,3.7,5.2,7c0,2.2-1,4.3-2.8,5.7L61.7,29.9z M63.3,56.7
		c-0.3,0.5-0.9,0.7-1.4,0.7c-1,0-1.7-0.8-1.7-1.7S61,54,61.9,54c0.2,0,0.4,0,0.5,0.1l0.9,0.3l5.6-15.8c0.3-0.9,1.1-1.1,1.5-1.2
		c0.6-0.1,1.2,0.1,1.4,0.3l0.8,1.8C71.1,39.9,70,41.3,70,43c0,0.6,0.2,1.3,0.5,1.8l0.5,0.9L63.3,56.7z M80.3,55.4c0,0.1,0,0.2,0,0.4
		c0,1-0.8,1.7-1.7,1.7s-1.7-0.8-1.7-1.7c0-0.6,0.3-1.1,0.8-1.4l0.8-0.5l-6.3-10C72,43.6,72,43.4,72,43.1c0-0.9,0.7-1.6,1.6-1.6
		c0.1,0,0.2,0,0.3,0L75,40l-6-12.9l3.4-2.5L80.3,55.4z M78.8,26.7c-0.3-1.3-0.2-2.2,0.4-2.8c0.5-0.6,1.4-0.9,2-0.9
		c0.8,0,2.5,0.3,2.5,2.9c0,2.5-2.5,5.6-2.5,5.7l-0.8,1C79.6,29.5,78.9,27,78.8,26.7z"/>
</g>
</svg>
