<?xml version="1.0" encoding="utf-8"?>
<!-- Generator: Adobe Illustrator 23.0.1, SVG Export Plug-In . SVG Version: 6.00 Build 0)  -->
<svg version="1.1" id="Layer_1" xmlns="http://www.w3.org/2000/svg" xmlns:xlink="http://www.w3.org/1999/xlink" x="0px" y="0px"
	 viewBox="0 0 817.3 250" enable-background="new 0 0 817.3 250" xml:space="preserve">
<g>
	<g>
		<path fill="#fff" d="M154.1,0C85,0,29,56,29,125c0,69,56,125,125,125c69,0,125-56,125-125C279,56,223.1,0,154.1,0 M234.7,125
			c0,44.5-36.1,80.7-80.7,80.7c-44.5,0-80.6-36.1-80.6-80.7c0-44.5,36.1-80.6,80.6-80.6C198.6,44.4,234.7,80.5,234.7,125"/>
		<rect y="99.8" fill="#fff" width="307.7" height="50.6"/>
	</g>
	<g>
		<rect x="354" y="175" fill="#fff" width="462" height="5.1"/>
		<polygon fill="#fff" points="354,229.1 354,203.6 370,203.6 370,208.7 360,208.7 360,213.1 367.9,213.1 367.9,218.3 360,218.3 
			360,223.8 370.8,223.8 370.8,229.1 		"/>
		<polygon fill="#fff" points="387.7,229.1 381.4,229.1 372.3,203.6 378.9,203.6 384.6,220.7 390.2,203.6 396.8,203.6 		"/>
		<polygon fill="#fff" points="399.5,229.1 399.5,203.6 415.5,203.6 415.5,208.7 405.5,208.7 405.5,213.1 413.4,213.1 
			413.4,218.3 405.5,218.3 405.5,223.8 416.3,223.8 416.3,229.1 		"/>
		<path fill="#fff" d="M425.4,208.4v6h2.1c1.1,0,2-0.3,2.6-0.9c0.6-0.6,1-1.3,1-2.2c0-0.8-0.3-1.5-0.9-2.1
			c-0.6-0.5-1.4-0.8-2.5-0.8H425.4z M432.9,229.1l-6.3-9.6h-1.2v9.6h-6v-25.5h8.7c2.9,0,5.1,0.7,6.6,2.1c1.5,1.4,2.4,3.3,2.4,5.7
			c0,1.6-0.4,3-1.2,4.2c-0.8,1.2-2,2.1-3.5,2.7l7.3,10.9H432.9z"/>
		<polygon fill="#fff" points="455.3,218.8 455.3,229.1 449.3,229.1 449.3,218.8 440.6,203.6 447.5,203.6 452.4,213.1 
			457.3,203.6 464.1,203.6 		"/>
		<path fill="#fff" d="M491.5,220.9c0,2.7-0.8,4.8-2.3,6.3c-1.5,1.6-3.7,2.3-6.4,2.3c-1.6,0-3-0.3-4.1-1.1
			c-1.1-0.7-2.1-1.9-3-3.5l4.6-2.7c0.6,1.3,1.4,2,2.4,2c1.8,0,2.7-1.3,2.7-3.8v-16.9h6V220.9z"/>
		<path fill="#fff" d="M508.4,224.2c2.2,0,4-0.7,5.4-2.2c1.4-1.5,2.2-3.4,2.2-5.6c0-2.2-0.7-4.1-2.2-5.6
			c-1.5-1.5-3.3-2.3-5.4-2.3c-2.2,0-4,0.8-5.4,2.3c-1.5,1.5-2.2,3.4-2.2,5.6c0,2.2,0.7,4.1,2.2,5.6
			C504.4,223.5,506.2,224.2,508.4,224.2 M508.4,229.6c-3.8,0-7.1-1.3-9.7-3.8c-2.6-2.6-3.9-5.7-3.9-9.4c0-3.7,1.3-6.9,3.9-9.4
			c2.6-2.5,5.8-3.8,9.7-3.8c3.9,0,7.1,1.3,9.7,3.8c2.6,2.5,3.9,5.7,3.9,9.4c0,3.8-1.3,6.9-3.9,9.5
			C515.5,228.3,512.3,229.6,508.4,229.6"/>
		<path fill="#fff" d="M548.5,217.3c0,2.4-0.3,4.3-0.8,5.7c-0.5,1.3-1.3,2.5-2.3,3.6c-1,1.1-2.2,1.8-3.7,2.3
			c-1.4,0.5-3.1,0.8-5.1,0.8c-1.8,0-3.4-0.3-4.8-0.8c-1.4-0.5-2.6-1.3-3.6-2.4c-1-1.1-1.8-2.3-2.3-3.6c-0.5-1.3-0.8-3.2-0.8-5.6
			v-13.7h6v13.5c0,2.4,0.5,4.2,1.5,5.4c0.9,1.2,2.3,1.8,4.1,1.8c3.7,0,5.6-2.4,5.6-7.2v-13.5h6V217.3z"/>
		<path fill="#fff" d="M558.6,208.4v6h2.1c1.1,0,2-0.3,2.6-0.9c0.6-0.6,1-1.3,1-2.2c0-0.8-0.3-1.5-0.9-2.1
			c-0.6-0.5-1.4-0.8-2.5-0.8H558.6z M566,229.1l-6.3-9.6h-1.1v9.6h-6v-25.5h8.7c2.8,0,5,0.7,6.6,2.1c1.6,1.4,2.4,3.3,2.4,5.7
			c0,1.6-0.4,3-1.2,4.2c-0.8,1.2-2,2.1-3.5,2.7l7.3,10.9H566z"/>
		<polygon fill="#fff" points="592.6,229.1 581.3,213.3 581.3,229.1 575.3,229.1 575.3,203.6 581.4,203.6 592.7,219.6 
			592.7,203.6 598.7,203.6 598.7,229.1 		"/>
		<polygon fill="#fff" points="603,229.1 603,203.6 618.9,203.6 618.9,208.7 608.9,208.7 608.9,213.1 616.8,213.1 616.8,218.3 
			608.9,218.3 608.9,223.8 619.7,223.8 619.7,229.1 		"/>
		<polygon fill="#fff" points="635.9,218.8 635.9,229.1 630,229.1 630,218.8 621.2,203.6 628.1,203.6 633,213.1 637.9,203.6 
			644.7,203.6 		"/>
		<polygon fill="#fff" points="678.4,229.1 678.4,213.3 671.3,222.2 664.3,213.3 664.3,229.1 658.3,229.1 658.3,203.6 664,203.6 
			671.3,213.3 678.4,203.6 684.4,203.6 684.4,229.1 		"/>
		<path fill="#fff" d="M699.5,210.6l-2.8,8.7h5.7L699.5,210.6z M705.7,229.1l-1.5-4.6H695l-1.5,4.6h-6.5l9.4-25.5h6l9.7,25.5
			H705.7z"/>
		<polygon fill="#fff" points="726.4,208.9 726.4,229.1 720.4,229.1 720.4,208.9 713.6,208.9 713.6,203.6 733.3,203.6 
			733.3,208.9 		"/>
		<polygon fill="#fff" points="747.8,208.9 747.8,229.1 741.8,229.1 741.8,208.9 734.9,208.9 734.9,203.6 754.6,203.6 
			754.6,208.9 		"/>
		<polygon fill="#fff" points="757.5,229.1 757.5,203.6 773.5,203.6 773.5,208.7 763.5,208.7 763.5,213.1 771.4,213.1 
			771.4,218.3 763.5,218.3 763.5,223.8 774.3,223.8 774.3,229.1 		"/>
		<path fill="#fff" d="M783.4,208.4v6h2.1c1.1,0,2-0.3,2.6-0.9c0.7-0.6,1-1.3,1-2.2c0-0.8-0.3-1.5-0.9-2.1
			c-0.6-0.5-1.4-0.8-2.5-0.8H783.4z M790.8,229.1l-6.3-9.6h-1.2v9.6h-6v-25.5h8.7c2.8,0,5.1,0.7,6.7,2.1c1.6,1.4,2.3,3.3,2.3,5.7
			c0,1.6-0.4,3-1.2,4.2c-0.8,1.2-1.9,2.1-3.5,2.7l7.3,10.9H790.8z"/>
		<path fill="#fff" d="M799.1,224.1l4.5-2.7c0.9,2.1,2.3,3.1,4.2,3.1c1,0,1.9-0.2,2.5-0.7c0.6-0.5,0.9-1.1,0.9-1.8
			c0-0.7-0.2-1.2-0.7-1.7c-0.5-0.5-1.8-1.2-3.9-2.2c-2.5-1.1-4.1-2.2-5-3.4c-0.9-1.1-1.3-2.6-1.3-4.3c0-2.1,0.8-3.8,2.4-5.2
			c1.6-1.4,3.6-2.1,6-2.1c3.6,0,6.1,1.4,7.7,4.2l-4.2,2.7c-0.8-1.3-2-2-3.6-2c-0.8,0-1.4,0.2-1.9,0.6c-0.5,0.4-0.8,0.9-0.8,1.6
			s0.3,1.2,0.8,1.6c0.5,0.4,1.7,1.1,3.4,1.9c2.6,1.2,4.4,2.4,5.5,3.6c1.1,1.2,1.6,2.7,1.6,4.6c0,2.3-0.9,4.1-2.7,5.6
			c-1.8,1.5-4,2.2-6.7,2.2C803.9,229.6,801,227.8,799.1,224.1"/>
		<polygon fill="#fff" points="379.4,30.6 379.4,70.3 367.6,70.3 367.6,30.6 354.1,30.6 354.1,20.2 392.9,20.2 392.9,30.6 		"/>
		<path fill="#fff" d="M410.4,29.6v11.8h4.1c2.1,0,3.9-0.5,5.2-1.7c1.3-1.2,1.9-2.6,1.9-4.4c0-1.6-0.6-3-1.8-4
			c-1.2-1.1-2.8-1.6-4.8-1.6H410.4z M425.1,70.3l-12.4-18.9h-2.3v18.9h-11.8V20.2h17.1c5.6,0,9.9,1.4,13,4.1
			c3.1,2.7,4.6,6.4,4.6,11.1c0,3.2-0.8,5.9-2.3,8.2c-1.6,2.3-3.9,4.1-6.8,5.3l14.3,21.4H425.1z"/>
		<path fill="#fff" d="M464.9,33.9L459.3,51h11.3L464.9,33.9z M476.9,70.3l-3-9.1h-17.9l-2.9,9.1h-12.8l18.5-50.1h11.9l19,50.1
			H476.9z"/>
		<polygon fill="#fff" points="528.8,70.3 506.8,39.3 506.8,70.3 495,70.3 495,20.2 506.9,20.2 529.2,51.6 529.2,20.2 541,20.2 
			541,70.3 		"/>
		<path fill="#fff" d="M547.3,60.3l8.9-5.3c1.8,4.1,4.5,6.1,8.4,6.1c2,0,3.7-0.5,4.9-1.4c1.2-0.9,1.8-2.1,1.8-3.6
			c0-1.3-0.5-2.4-1.4-3.4c-0.9-0.9-3.5-2.4-7.6-4.2c-4.8-2.1-8.2-4.4-9.9-6.7c-1.8-2.3-2.6-5.1-2.6-8.4c0-4,1.6-7.4,4.7-10.2
			c3.1-2.8,7.1-4.2,11.9-4.2c7,0,12,2.7,15.1,8.2l-8.2,5.3c-1.5-2.6-3.9-3.9-7-3.9c-1.6,0-2.8,0.4-3.8,1.2c-1,0.8-1.5,1.8-1.5,3
			c0,1.3,0.5,2.3,1.5,3.2c1,0.9,3.2,2.1,6.7,3.7c5.1,2.4,8.7,4.8,10.8,7.1c2.1,2.4,3.1,5.4,3.1,9c0,4.4-1.8,8.1-5.4,11
			c-3.6,2.9-8,4.3-13.2,4.3C556.7,71.2,551,67.6,547.3,60.3"/>
		<path fill="#fff" d="M601.4,29.8v14.5h3.7c2.8,0,5-0.6,6.4-1.9c1.5-1.3,2.2-3,2.2-5.3c0-2.4-0.7-4.2-2.2-5.4
			c-1.5-1.2-3.6-1.9-6.4-1.9H601.4z M601.4,53.9v16.4h-11.8V20.2h16.8c6,0,10.8,1.5,14.1,4.5c3.4,3,5.1,7.1,5.1,12.2
			c0,5.2-1.8,9.4-5.4,12.4c-3.6,3.1-8.3,4.6-14.3,4.6H601.4z"/>
		<path fill="#fff" d="M657,60.7c4.3,0,7.8-1.5,10.7-4.4c2.8-2.9,4.3-6.6,4.3-11c0-4.4-1.4-8.1-4.3-11c-2.9-2.9-6.4-4.4-10.7-4.4
			c-4.3,0-7.8,1.5-10.6,4.4c-2.8,3-4.3,6.6-4.3,11s1.4,8.1,4.3,11C649.2,59.2,652.7,60.7,657,60.7 M657,71.2c-7.6,0-13.9-2.5-19-7.5
			c-5.1-5-7.7-11.2-7.7-18.5c0-7.3,2.5-13.5,7.6-18.5c5.1-5,11.4-7.5,19-7.5c7.6,0,13.9,2.5,19.1,7.5c5.1,5,7.7,11.2,7.7,18.5
			c0,7.4-2.6,13.6-7.7,18.5C670.9,68.7,664.6,71.2,657,71.2"/>
		<path fill="#fff" d="M702.2,29.6v11.8h4.1c2.2,0,3.9-0.5,5.2-1.7c1.3-1.2,1.9-2.6,1.9-4.4c-0.1-1.6-0.6-3-1.8-4
			c-1.2-1.1-2.8-1.6-4.9-1.6H702.2z M716.8,70.3l-12.4-18.9h-2.3v18.9h-11.8V20.2h17c5.6,0,10,1.4,13,4.1c3.1,2.7,4.6,6.4,4.6,11.1
			c0,3.2-0.8,5.9-2.4,8.2c-1.6,2.3-3.9,4.1-6.8,5.3l14.3,21.4H716.8z"/>
		<polygon fill="#fff" points="757.8,30.6 757.8,70.3 746,70.3 746,30.6 732.5,30.6 732.5,20.2 771.3,20.2 771.3,30.6 		"/>
		<polygon fill="#fff" points="365.8,109.8 365.8,118.3 381.6,118.3 381.6,128.5 365.8,128.5 365.8,149.8 354,149.8 354,99.7 
			385.7,99.7 385.7,109.8 		"/>
		<path fill="#fff" d="M416.4,140.2c4.3,0,7.8-1.5,10.7-4.4c2.8-2.9,4.3-6.6,4.3-11.1c0-4.4-1.4-8.1-4.3-11
			c-2.8-2.9-6.4-4.4-10.7-4.4c-4.3,0-7.8,1.5-10.6,4.4c-2.8,3-4.3,6.6-4.3,11c0,4.4,1.4,8,4.3,11
			C408.6,138.7,412.2,140.2,416.4,140.2 M416.4,150.8c-7.6,0-13.9-2.5-19-7.5c-5.1-5-7.7-11.2-7.7-18.5c0-7.3,2.5-13.5,7.6-18.5
			c5.1-5,11.5-7.5,19-7.5c7.6,0,13.9,2.5,19,7.5c5.1,5,7.7,11.2,7.7,18.5c0,7.4-2.6,13.6-7.7,18.6
			C430.3,148.3,424,150.8,416.4,150.8"/>
		<path fill="#fff" d="M461.6,109.1v11.8h4.1c2.2,0,3.9-0.5,5.2-1.7c1.3-1.2,1.9-2.6,1.9-4.4c0-1.6-0.6-3-1.8-4
			c-1.2-1.1-2.8-1.6-4.9-1.6H461.6z M476.3,149.8l-12.4-18.9h-2.2v18.9h-11.8V99.7h17.1c5.6,0,9.9,1.4,13,4.1
			c3.1,2.7,4.6,6.4,4.6,11.2c0,3.2-0.8,5.9-2.4,8.2c-1.6,2.3-3.9,4.1-6.8,5.3l14.3,21.4H476.3z"/>
		<polygon fill="#fff" points="510.6,149.8 510.6,99.7 522.4,99.7 522.4,139.4 541.6,139.4 541.6,149.8 		"/>
		<path fill="#fff" d="M572.3,140.2c4.3,0,7.8-1.5,10.6-4.4c2.9-2.9,4.3-6.6,4.3-11.1c0-4.4-1.4-8.1-4.3-11
			c-2.8-2.9-6.4-4.4-10.6-4.4c-4.3,0-7.8,1.5-10.6,4.4c-2.8,3-4.3,6.6-4.3,11c0,4.4,1.4,8,4.3,11
			C564.6,138.7,568.1,140.2,572.3,140.2 M572.3,150.8c-7.6,0-13.9-2.5-19-7.5c-5.1-5-7.6-11.2-7.6-18.5c0-7.3,2.5-13.5,7.6-18.5
			c5.1-5,11.4-7.5,19-7.5c7.6,0,13.9,2.5,19.1,7.5c5.1,5,7.7,11.2,7.7,18.5c0,7.4-2.6,13.6-7.7,18.6
			C586.3,148.3,579.9,150.8,572.3,150.8"/>
		<polygon fill="#fff" points="639.5,149.8 617.5,118.8 617.5,149.8 605.7,149.8 605.7,99.7 617.5,99.7 639.9,131.1 639.9,99.7 
			651.6,99.7 651.6,149.8 		"/>
		<path fill="#fff" d="M671.7,109.5v30.6h3.2c5.4,0,9.7-1.3,12.8-4c3.1-2.7,4.6-6.4,4.6-11.2c0-4.9-1.6-8.7-4.6-11.4
			c-3.1-2.6-7.3-4-12.8-4H671.7z M659.9,149.8V99.7h16.2c8.5,0,15.3,2.2,20.4,6.7c5.1,4.4,7.6,10.5,7.6,18.1
			c0,8.1-2.5,14.3-7.6,18.7c-5.1,4.4-12.1,6.7-21.1,6.7H659.9z"/>
		<path fill="#fff" d="M735.8,140.2c4.3,0,7.8-1.5,10.7-4.4c2.8-2.9,4.3-6.6,4.3-11.1c0-4.4-1.4-8.1-4.3-11
			c-2.9-2.9-6.4-4.4-10.7-4.4c-4.3,0-7.8,1.5-10.6,4.4c-2.8,3-4.3,6.6-4.3,11c0,4.4,1.4,8,4.3,11C728,138.7,731.5,140.2,735.8,140.2
			 M735.8,150.8c-7.6,0-13.9-2.5-19-7.5c-5.1-5-7.6-11.2-7.6-18.5c0-7.3,2.5-13.5,7.6-18.5c5.1-5,11.5-7.5,19-7.5
			c7.6,0,13.9,2.5,19.1,7.5c5.1,5,7.7,11.2,7.7,18.5c0,7.4-2.6,13.6-7.7,18.6C749.7,148.3,743.4,150.8,735.8,150.8"/>
		<polygon fill="#fff" points="803.8,149.8 781.8,118.8 781.8,149.8 770,149.8 770,99.7 781.9,99.7 804.2,131.1 804.2,99.7 
			816,99.7 816,149.8 		"/>
	</g>
</g>
</svg>
