<svg id="Default" xmlns="http://www.w3.org/2000/svg" width="200" height="202.27" viewBox="0 0 200 202.27">
  <g>
    <path d="M169.69,34A81.64,81.64,0,0,0,23.51,98.3l82.15-36.54h-45a46.95,46.95,0,0,1,75.64-13.6Z" style="fill: #ffffff"/>
    <polygon points="186.4 30.03 104.25 113.6 0 113.6 186.4 30.03" style="fill: #ffffff"/>
    <polygon points="17.28 193.2 9.91 193.2 9.91 199.15 18.13 199.15 18.13 201.98 6.23 201.98 6.23 182.15 17.85 182.15 17.85 184.99 9.91 184.99 9.91 190.37 17.28 190.37 17.28 193.2" style="fill: #ffffff"/>
    <path d="M24.93,182.15v11.62c0,4,1.7,5.66,4,5.66,2.55,0,4.24-1.7,4.24-5.66V182.15h3.69v11.34c0,6.23-3.12,8.78-7.93,8.78-4.54,0-7.65-2.55-7.65-8.78V182.15Z" style="fill: #ffffff"/>
    <path d="M41.08,182.44a27.91,27.91,0,0,1,5.38-.57c2.83,0,4.81.57,6.23,1.7a4.77,4.77,0,0,1,1.7,4,4.91,4.91,0,0,1-3.68,4.81c1.41.57,2.27,2,2.83,3.68A41.21,41.21,0,0,0,55,201.42H51.27a30.94,30.94,0,0,1-1.41-4.53c-.57-2.55-1.42-3.41-3.68-3.41h-1.7v8.22H40.79V182.44Zm3.4,8.78h2.26c2.55,0,4-1.42,4-3.4,0-2.27-1.42-3.12-4-3.12-1.13,0-2,0-2.26.29Z" style="fill: #ffffff"/>
    <path d="M65.72,202.27c-5.66,0-9.06-4.25-9.06-10.2s4-10.48,9.35-10.48c5.66,0,9.06,4.25,9.06,9.91.28,7.08-4,10.77-9.35,10.77m.29-2.84c3.39,0,5.38-3.11,5.38-7.36,0-3.68-2-7.37-5.38-7.37s-5.39,3.4-5.39,7.37c-.28,4,1.7,7.36,5.39,7.36" style="fill: #ffffff"/>
    <path d="M92.63,201.42a16.83,16.83,0,0,1-5.09.85c-6.24,0-10.2-4-10.2-9.92,0-6.51,4.53-10.48,10.48-10.48a14.66,14.66,0,0,1,4.81.85l-.84,2.83a12.06,12.06,0,0,0-4-.85c-4,0-6.8,2.55-6.8,7.37,0,4.25,2.55,7.08,6.8,7.08a16.43,16.43,0,0,0,4-.57Z" style="fill: #ffffff"/>
    <path d="M102.83,202.27c-5.66,0-9.06-4.25-9.06-10.2s4-10.48,9.35-10.48c5.66,0,9.06,4.25,9.06,9.91.29,7.08-3.68,10.77-9.35,10.77m.29-2.84c3.4,0,5.38-3.11,5.38-7.36,0-3.68-2-7.37-5.38-7.37s-5.39,3.4-5.39,7.37,2,7.36,5.39,7.36" style="fill: #ffffff"/>
    <path d="M115.58,202V182.15h4.25l5.1,8.5a47.88,47.88,0,0,1,3.4,6.52,75.21,75.21,0,0,1-.28-8.22v-6.8h3.39V202h-3.68l-5.38-8.78a75.62,75.62,0,0,1-3.4-6.8,78,78,0,0,1,.28,8.5V202Z" style="fill: #ffffff"/>
    <polygon points="139.09 185.27 133.43 185.27 133.43 182.15 148.44 182.15 148.44 185.27 142.78 185.27 142.78 201.98 139.09 201.98 139.09 185.27" style="fill: #ffffff"/>
    <path d="M150.71,182.44a27.91,27.91,0,0,1,5.38-.57c2.83,0,4.82.57,6.23,1.7a4.74,4.74,0,0,1,1.7,4,4.91,4.91,0,0,1-3.68,4.81c1.42.57,2.27,2,2.83,3.68a43,43,0,0,0,1.42,5.39h-3.68a29.31,29.31,0,0,1-1.42-4.53c-.57-2.55-1.42-3.41-3.68-3.41h-1.7v8.22h-3.69V182.44Zm3.68,8.78h2.27c2.55,0,4-1.42,4-3.4,0-2.27-1.41-3.12-4-3.12-1.14,0-2,0-2.27.29Z" style="fill: #ffffff"/>
    <path d="M175.64,202.27c-5.67,0-9.07-4.25-9.07-10.2s4-10.48,9.35-10.48c5.67,0,9.07,4.25,9.07,9.91,0,7.08-4,10.77-9.35,10.77m.28-2.84c3.4,0,5.38-3.11,5.38-7.36,0-3.68-2-7.37-5.38-7.37s-5.38,3.4-5.38,7.37c-.29,4,1.7,7.36,5.38,7.36" style="fill: #ffffff"/>
    <polygon points="188.1 182.15 191.78 182.15 191.78 198.87 200 198.87 200 201.98 188.38 201.98 188.38 182.15 188.1 182.15" style="fill: #ffffff"/>
    <path d="M102.8,129.1a47.78,47.78,0,0,1-30.24-10.71H28.8a83.32,83.32,0,0,0,149.4-2.26H135.66a47.87,47.87,0,0,1-32.86,13" style="fill: #ffffff"/>
  </g>
</svg>
