<?xml version="1.0" encoding="UTF-8" standalone="no"?>
<svg width="154px" height="47px" viewBox="0 0 154 47" version="1.1" xmlns="http://www.w3.org/2000/svg" xmlns:xlink="http://www.w3.org/1999/xlink">
    <!-- Generator: Sketch 42 (36781) - http://www.bohemiancoding.com/sketch -->
    <title>Group 3</title>
    <desc>Created with Sketch.</desc>
    <defs>
        <polygon id="path-1" points="0.166753125 18.1219512 15.3862844 18.1219512 15.3862844 0.0293585366 0.166753125 0.0293585366 0.166753125 18.1219512"></polygon>
    </defs>
    <g id="Design-v2" stroke="none" stroke-width="1" fill="none" fill-rule="evenodd">
        <g id="Home-1" transform="translate(-126.000000, -2950.000000)">
            <g id="Group-11" transform="translate(0.000000, 2882.000000)">
                <g id="Group-3" transform="translate(126.000000, 69.000000)">
                    <g id="Page-1">
                        <path d="M15.5935828,7.67116585 C13.7215203,6.55611707 11.6016141,6.18443415 9.48050469,6.18443415 C6.11295781,6.18443415 3.86792656,8.66311707 3.86792656,11.6365805 C3.86792656,14.611239 6.11295781,17.089922 9.60562969,17.089922 C10.4790984,17.089922 11.6016141,16.9644341 12.2248328,16.7170439 L12.2248328,13.4961902 L9.60562969,13.4961902 L9.48050469,13.3718976 L9.48050469,10.1498488 L9.60562969,10.0267512 L15.5935828,10.0267512 L15.7187078,10.1498488 L15.7187078,19.1957268 C13.8466453,20.187678 11.8518641,20.6836537 9.60562969,20.6836537 C4.24089531,20.6836537 -0.0001203125,16.7170439 -0.0001203125,11.6365805 C-0.0001203125,6.68040976 4.11697344,2.59070244 9.48050469,2.59070244 C11.8518641,2.59070244 13.8466453,2.8392878 15.7187078,3.70694634 L15.7187078,7.54687317 L15.5935828,7.67116585 Z" id="Fill-1" fill="#FEFEFE"></path>
                        <path d="M21.9582344,9.90269756 L23.205875,9.90269756 C24.4523125,9.90269756 25.3269844,9.40672195 25.3269844,8.16738049 C25.3269844,6.92803902 24.4523125,6.43325854 23.205875,6.43325854 L21.9582344,6.43325854 L21.9582344,9.90269756 Z M23.205875,2.96262439 C26.9475938,2.96262439 29.1938281,5.31701463 29.1938281,8.16738049 C29.1938281,10.1500878 28.1952344,11.513722 26.6973438,12.2570878 L32.6865,20.186722 L32.561375,20.3110146 L28.5694063,20.3110146 L28.4454844,20.186722 L23.205875,13.3709415 L21.9582344,13.3709415 L21.9582344,20.186722 L21.8331094,20.3110146 L18.5894844,20.3110146 L18.4655625,20.186722 L18.4655625,3.08691707 L18.5894844,2.96262439 L23.205875,2.96262439 Z" id="Fill-4" fill="#FEFEFE"></path>
                        <polygon id="Fill-6" fill="#FEFEFE" points="46.2862641 2.96310244 46.4113891 3.08739512 46.4113891 6.3094439 46.2862641 6.43254146 37.9293578 6.43254146 37.9293578 9.53029756 44.0412328 9.53029756 44.1651547 9.65459024 44.1651547 12.876639 44.0412328 12.9997366 37.9293578 12.9997366 37.9293578 16.8408585 46.5365141 16.8408585 46.6616391 16.9651512 46.6616391 20.1872 46.5365141 20.3114927 34.5606078 20.3114927 34.4354828 20.1872 34.4354828 3.08739512 34.5606078 2.96310244"></polygon>
                        <path d="M54.1477234,13.2476049 L58.1396922,13.2476049 L56.1437078,7.42377561 L54.1477234,13.2476049 Z M57.8894422,2.96358049 L58.0157703,3.08667805 L64.6269422,20.187678 L64.5018172,20.3107756 L60.6349734,20.3107756 L60.5098484,20.187678 L59.2622078,16.7170439 L53.0252078,16.7170439 L51.7775672,20.187678 L51.6536453,20.3107756 L47.7868016,20.3107756 L47.6604734,20.187678 L54.2728484,3.08667805 L54.3979734,2.96358049 L57.8894422,2.96358049 Z" id="Fill-8" fill="#FEFEFE"></path>
                        <polygon id="Fill-10" fill="#FEFEFE" points="76.4807312 2.96310244 76.6058562 3.08739512 76.6058562 6.3094439 76.4807312 6.43254146 71.3662469 6.43254146 71.3662469 20.1872 71.242325 20.3114927 67.9974969 20.3114927 67.873575 20.1872 67.873575 6.43254146 62.7590906 6.43254146 62.6339656 6.3094439 62.6339656 3.08739512 62.7590906 2.96310244"></polygon>
                        <polygon id="Fill-12" fill="#FEFEFE" points="90.7043156 2.96310244 90.8294406 3.08739512 90.8294406 6.3094439 90.7043156 6.43254146 82.3474094 6.43254146 82.3474094 9.53029756 88.4592844 9.53029756 88.5832062 9.65459024 88.5832062 12.876639 88.4592844 12.9997366 82.3474094 12.9997366 82.3474094 16.8408585 90.9545656 16.8408585 91.0796906 16.9651512 91.0796906 20.1872 90.9545656 20.3114927 78.9786594 20.3114927 78.8535344 20.1872 78.8535344 3.08739512 78.9786594 2.96310244"></polygon>
                        <path d="M96.8198,9.90269756 L98.0674406,9.90269756 C99.3138781,9.90269756 100.18855,9.40672195 100.18855,8.16738049 C100.18855,6.92803902 99.3138781,6.43325854 98.0674406,6.43325854 L96.8198,6.43325854 L96.8198,9.90269756 Z M98.0674406,2.96262439 C101.809159,2.96262439 104.055394,5.31701463 104.055394,8.16738049 C104.055394,10.1500878 103.0568,11.513722 101.558909,12.2570878 L107.548066,20.186722 L107.422941,20.3110146 L103.430972,20.3110146 L103.30705,20.186722 L98.0674406,13.3709415 L96.8198,13.3709415 L96.8198,20.186722 L96.694675,20.3110146 L93.45105,20.3110146 L93.3271281,20.186722 L93.3271281,3.08691707 L93.45105,2.96262439 L98.0674406,2.96262439 Z" id="Fill-14" fill="#FEFEFE"></path>
                        <path d="M22.1050156,38.381378 L26.0969844,38.381378 L24.101,32.5575488 L22.1050156,38.381378 Z M25.8467344,28.0973537 L25.9730625,28.2204512 L32.5842344,45.3214512 L32.4591094,45.4445488 L28.5922656,45.4445488 L28.4671406,45.3214512 L27.2195,41.8508171 L20.9825,41.8508171 L19.7348594,45.3214512 L19.6109375,45.4445488 L15.7440937,45.4445488 L15.6177656,45.3214512 L22.2301406,28.2204512 L22.3552656,28.0973537 L25.8467344,28.0973537 Z" id="Fill-16" fill="#FEFEFE"></path>
                        <path d="M37.0031922,28.0968756 L37.1283172,28.2211683 L37.1283172,37.2670463 C37.1283172,40.6121927 38.9979734,42.2232171 41.3693328,42.2232171 C43.7394891,42.2232171 45.6103484,40.6121927 45.6103484,37.2670463 L45.6103484,28.2211683 L45.7354734,28.0968756 L48.9778953,28.0968756 L49.1030203,28.2211683 L49.1030203,37.7618268 C49.1030203,42.8422902 45.6103484,45.8169488 41.3693328,45.8169488 C37.1283172,45.8169488 33.6344422,42.8422902 33.6344422,37.7618268 L33.6344422,28.2211683 L33.7595672,28.0968756 L37.0031922,28.0968756 Z" id="Fill-18" fill="#FEFEFE"></path>
                        <g id="Group-22" transform="translate(51.734375, 27.695117)">
                            <mask id="mask-2" fill="white">
                                <use xlink:href="#path-1"></use>
                            </mask>
                            <g id="Clip-21"></g>
                            <path d="M15.2611594,5.60579756 C13.6393469,4.24216341 11.7684875,3.62309024 9.39833125,3.62309024 C6.40495625,3.62309024 4.0348,6.10177317 4.0348,9.07523659 C4.0348,12.0498951 6.40495625,14.528578 9.39833125,14.528578 C11.7684875,14.528578 13.6393469,13.9083098 15.2611594,12.5458707 L15.3862844,12.6689683 L15.3862844,16.5100902 C13.7644719,17.6753341 11.7684875,18.1223098 9.39833125,18.1223098 C4.30790938,18.1223098 0.166753125,14.0565049 0.166753125,9.07523659 C0.166753125,4.09396829 4.30790938,0.0293585366 9.39833125,0.0293585366 C11.7684875,0.0293585366 13.7644719,0.476334146 15.3862844,1.64157805 L15.3862844,5.48150488 L15.2611594,5.60579756 Z" id="Fill-20" fill="#FEFEFE" mask="url(#mask-2)"></path>
                        </g>
                        <polygon id="Fill-23" fill="#FEFEFE" points="73.7853703 28.0968756 73.9104953 28.2211683 73.9104953 34.6640707 80.6455891 28.2211683 80.8946359 28.0968756 85.2619797 28.0968756 85.3871047 28.2211683 77.2780422 36.3981927 86.6335422 45.3209732 86.5084172 45.4452659 81.6441828 45.4452659 81.3939328 45.3209732 73.9104953 38.1335098 73.9104953 45.3209732 73.7853703 45.4452659 70.5417453 45.4452659 70.4166203 45.3209732 70.4166203 28.2211683 70.5417453 28.0968756"></polygon>
                        <polygon id="Fill-25" fill="#FEFEFE" points="92.0508531 28.0968756 92.1759781 28.2211683 92.1759781 41.9746317 98.78715 41.9746317 98.9110719 42.0989244 98.9110719 45.3209732 98.78715 45.4452659 88.8072281 45.4452659 88.6821031 45.3209732 88.6821031 28.2211683 88.8072281 28.0968756"></polygon>
                        <path d="M106.697456,38.381378 L110.689425,38.381378 L108.693441,32.5575488 L106.697456,38.381378 Z M110.439175,28.0973537 L110.565503,28.2204512 L117.176675,45.3214512 L117.05155,45.4445488 L113.184706,45.4445488 L113.059581,45.3214512 L111.811941,41.8508171 L105.574941,41.8508171 L104.3273,45.3214512 L104.203378,45.4445488 L100.336534,45.4445488 L100.210206,45.3214512 L106.822581,28.2204512 L106.947706,28.0973537 L110.439175,28.0973537 Z" id="Fill-27" fill="#FEFEFE"></path>
                        <polygon id="Fill-29" fill="#FEFEFE" points="122.71875 28.0968756 122.967797 28.2211683 131.700078 39.4971439 131.700078 28.2211683 131.824 28.0968756 135.068828 28.0968756 135.19275 28.2211683 135.19275 45.3209732 135.068828 45.4452659 131.700078 45.4452659 131.451031 45.3209732 122.71875 34.0449976 122.71875 45.3209732 122.593625 45.4452659 119.35 45.4452659 119.226078 45.3209732 119.226078 28.2211683 119.35 28.0968756"></polygon>
                        <path d="M141.982827,41.9749902 L144.476905,41.9749902 C147.721733,41.9749902 149.966764,39.8679902 149.966764,36.7714293 C149.966764,33.6736732 147.721733,31.5666732 144.476905,31.5666732 L141.982827,31.5666732 L141.982827,41.9749902 Z M144.476905,28.0972341 C149.841639,28.0972341 153.708483,31.9885512 153.708483,36.7714293 C153.708483,41.5531122 149.841639,45.4444293 144.476905,45.4444293 L138.614077,45.4444293 L138.490155,45.3213317 L138.490155,28.2203317 L138.614077,28.0972341 L144.476905,28.0972341 Z" id="Fill-31" fill="#FEFEFE"></path>
                        <polyline id="Stroke-33" stroke="#0090D0" stroke-width="1.956" stroke-linejoin="round" points="152.568883 24.0510293 145.052961 24.0510293 139.97818 24.0510293 139.97818 20.0067366 135.583164 17.179078 130.56493 19.6207122 130.56493 24.0510293 133.348961 24.0510293 133.348961 14.4291024 123.948945 14.4291024 123.948945 24.0510293 127.027742 24.0510293 127.027742 3.4184439 122.374055 0.168907317 116.37407 0.168907317 116.37407 24.0510293 120.449055 24.0510293 120.449055 10.4708585 111.654211 13.983322 111.654211 24.0510293 1.03649219 24.0510293"></polyline>
                        <polygon id="Fill-35" fill="#0090D0" points="118.827844 4.55189756 120.596438 4.55189756 120.596438 2.49150732 118.827844 2.49150732"></polygon>
                        <polygon id="Fill-37" fill="#0090D0" points="123.086906 7.71060488 124.8555 7.71060488 124.8555 5.65021463 123.086906 5.65021463"></polygon>
                        <polygon id="Fill-38" fill="#0090D0" points="123.086906 10.9625317 124.8555 10.9625317 124.8555 8.90214146 123.086906 8.90214146"></polygon>
                        <polygon id="Fill-39" fill="#0090D0" points="135.658359 24.6526537 137.426953 24.6526537 137.426953 22.4428732 135.658359 22.4428732"></polygon>
                    </g>
                </g>
            </g>
        </g>
    </g>
</svg>