<?xml version="1.0" encoding="utf-8"?>
<!-- Generator: Adobe Illustrator 25.0.1, SVG Export Plug-In . SVG Version: 6.00 Build 0)  -->
<svg version="1.1" id="Layer_1" xmlns="http://www.w3.org/2000/svg" xmlns:xlink="http://www.w3.org/1999/xlink" x="0px" y="0px"
	 viewBox="0 0 474.6 28.2" style="enable-background:new 0 0 474.6 28.2;" xml:space="preserve">
<style type="text/css">
	.Graphic_x0020_Style{fill:none;}
	.st0{fill:#FFFFFF;}
	.st1{opacity:0.8;fill:#FFFFFF;}
</style>
<g>
	<g>
		<path class="st0" d="M34.1,0.6h21.5v2.2h-9.5v24.9h-2.6V2.8h-9.5V0.6z"/>
		<path class="st0" d="M58.1,0.6h2.6v11.8h16.1V0.6h2.6v27.1h-2.6V14.5H60.7v13.1h-2.6V0.6z"/>
		<path class="st0" d="M84.9,0.6h18.7v2.2H87.5v9.8h15.1v2.2H87.5v10.7h16.3v2.2H84.9V0.6z"/>
	</g>
	<g>
		<path class="st0" d="M247,0.6h17.2v2.2h-14.6v9.8h13v2.2h-13v12.9H247V0.6z"/>
		<path class="st0" d="M278.7,0c8.5,0,12.8,6.7,12.8,14.1c0,7.4-4.3,14.1-12.8,14.1c-8.5,0-12.8-6.7-12.8-14.1
			C265.9,6.7,270.2,0,278.7,0z M278.7,26c7.1,0,10.2-6,10.2-11.9c0-5.9-3-11.9-10.2-11.9c-7.2,0-10.2,6-10.2,11.9
			C268.5,20,271.5,26,278.7,26z"/>
		<path class="st0" d="M295.2,0.6h2.6v16.8c0,6.3,2.9,8.7,7.9,8.7c5,0,8-2.4,8-8.7V0.6h2.6v17.3c0,5.6-3,10.3-10.6,10.3
			c-7.5,0-10.5-4.7-10.5-10.3V0.6z"/>
		<path class="st0" d="M321.5,0.6h2.9l15.8,22.9h0.1V0.6h2.6v27.1h-2.9L324.1,4.7H324v22.9h-2.6V0.6z"/>
		<path class="st0" d="M348.2,0.6h9.4c8.2,0.2,12.5,4.6,12.5,13.6c0,9-4.3,13.4-12.5,13.6h-9.4V0.6z M350.8,25.5h5.5
			c7.8,0,11.2-3.2,11.2-11.4s-3.4-11.4-11.2-11.4h-5.5V25.5z"/>
		<path class="st0" d="M382.2,0.6h2.9l10.6,27.1h-2.8l-3.3-8.4h-12.3l-3.3,8.4h-2.8L382.2,0.6z M378.1,17h10.7l-5.2-13.9L378.1,17z"
			/>
		<path class="st0" d="M392.7,0.6h21.5v2.2h-9.5v24.9h-2.6V2.8h-9.5V0.6z"/>
		<path class="st0" d="M416.9,0.6h2.6v27.1h-2.6V0.6z"/>
		<path class="st0" d="M436.5,0c8.5,0,12.8,6.7,12.8,14.1c0,7.4-4.3,14.1-12.8,14.1c-8.5,0-12.8-6.7-12.8-14.1
			C423.7,6.7,427.9,0,436.5,0z M436.5,26c7.1,0,10.2-6,10.2-11.9c0-5.9-3-11.9-10.2-11.9c-7.2,0-10.2,6-10.2,11.9
			C426.3,20,429.3,26,436.5,26z"/>
		<path class="st0" d="M453.2,0.6h2.9l15.8,22.9h0.1V0.6h2.6v27.1h-2.9L455.9,4.7h-0.1v22.9h-2.6V0.6z"/>
	</g>
	<g>
		<path class="st0" d="M110.9,0.6h8.3v20.1h11.9v6.9h-20.3V0.6z"/>
		<path class="st0" d="M136.6,0.6h8.3v27h-8.3V0.6z"/>
		<path class="st0" d="M151.1,0.6h8.5l7.9,14.4h0.1V0.6h7.9v27h-8.1l-8.3-14.7H159v14.7h-7.9V0.6z"/>
		<path class="st0" d="M206.2,17.1c0,7.5-4,11.1-12.3,11.1c-8.3,0-12.3-3.6-12.3-11.1V0.6h8.3v14.7c0,2.7,0,6.2,4,6.2
			c3.9,0,3.9-3.5,3.9-6.2V0.6h8.3V17.1z"/>
		<path class="st0" d="M219.4,13.2l-8.9-12.6h9.8l4.1,7.3l4-7.3h9.2l-8.7,12.7l9.6,14.3h-10l-4.6-8.1l-4.8,8.1h-9.5L219.4,13.2z"/>
	</g>
	<g>
		<polygon class="st1" points="5.4,22.3 5.4,11.4 0,11.4 0,27.7 16.3,27.7 16.3,22.3 		"/>
		<polygon class="st0" points="27.1,0.6 0,0.6 0,8.7 5.4,8.7 5.4,6 21.7,6 21.7,22.3 19,22.3 19,27.7 27.1,27.7 		"/>
	</g>
</g>
</svg>
