<?xml version="1.0" encoding="utf-8"?>
<!-- Generator: Adobe Illustrator 25.0.1, SVG Export Plug-In . SVG Version: 6.00 Build 0)  -->
<svg version="1.1" id="Layer_1" xmlns="http://www.w3.org/2000/svg" xmlns:xlink="http://www.w3.org/1999/xlink" x="0px" y="0px"
	 viewBox="0 0 316 104" style="enable-background:new 0 0 316 104;" xml:space="preserve">
<style type="text/css">
	.Graphic_x0020_Style_x0020_2{fill:none;}
	.st0{fill:#FFFFFF;}
	.st1{opacity:0.8;fill:#FFFFFF;}
</style>
<g>
	<g>
		<path class="st0" d="M121.4,0.4h18.2v1.9h-8v21.1h-2.2V2.3h-8V0.4z"/>
		<path class="st0" d="M141.8,0.4h2.2v10h13.7v-10h2.2v23h-2.2V12.2H144v11.1h-2.2V0.4z"/>
		<path class="st0" d="M164.5,0.4h15.9v1.9h-13.7v8.3h12.8v1.9h-12.8v9.1h13.9v1.9h-16V0.4z"/>
	</g>
	<g>
		<path class="st0" d="M121.4,80.5H136v1.9h-12.4v8.3h11v1.9h-11v11h-2.2V80.5z"/>
		<path class="st0" d="M148.3,80c7.2,0,10.8,5.7,10.8,12c0,6.3-3.6,12-10.8,12c-7.2,0-10.9-5.7-10.9-12
			C137.5,85.7,141.1,80,148.3,80z M148.3,102.1c6.1,0,8.6-5.1,8.6-10.1c0-5-2.6-10.1-8.6-10.1c-6.1,0-8.7,5.1-8.7,10.1
			C139.7,97,142.3,102.1,148.3,102.1z"/>
		<path class="st0" d="M162.4,80.5h2.2v14.2c0,5.3,2.5,7.4,6.7,7.4c4.3,0,6.8-2.1,6.8-7.4V80.5h2.2v14.7c0,4.7-2.5,8.8-9,8.8
			c-6.3,0-8.9-4-8.9-8.8V80.5z"/>
		<path class="st0" d="M184.6,80.5h2.4l13.4,19.5h0.1V80.5h2.2v23h-2.4L186.9,84h-0.1v19.5h-2.2V80.5z"/>
		<path class="st0" d="M207.3,80.5h8c7,0.2,10.6,3.9,10.6,11.5c0,7.6-3.6,11.3-10.6,11.5h-8V80.5z M209.5,101.6h4.7
			c6.6,0,9.5-2.7,9.5-9.6s-2.9-9.6-9.5-9.6h-4.7V101.6z"/>
		<path class="st0" d="M236.1,80.5h2.4l9,23h-2.4l-2.8-7.2H232l-2.8,7.2h-2.4L236.1,80.5z M232.7,94.5h9.1l-4.4-11.8L232.7,94.5z"/>
		<path class="st0" d="M245,80.5h18.2v1.9h-8v21.1h-2.2V82.3h-8V80.5z"/>
		<path class="st0" d="M265.6,80.5h2.2v23h-2.2V80.5z"/>
		<path class="st0" d="M282.2,80c7.2,0,10.8,5.7,10.8,12c0,6.3-3.6,12-10.8,12c-7.2,0-10.9-5.7-10.9-12C271.4,85.7,275,80,282.2,80z
			 M282.2,102.1c6.1,0,8.6-5.1,8.6-10.1c0-5-2.6-10.1-8.6-10.1c-6.1,0-8.7,5.1-8.7,10.1C273.5,97,276.1,102.1,282.2,102.1z"/>
		<path class="st0" d="M296.4,80.5h2.4l13.4,19.5h0.1V80.5h2.2v23h-2.4L298.7,84h-0.1v19.5h-2.2V80.5z"/>
	</g>
	<g>
		<path class="st0" d="M121.4,30.2h12.7v30.6h18.2v10.5h-30.9V30.2z"/>
		<path class="st0" d="M160.6,30.2h12.7v41.2h-12.7V30.2z"/>
		<path class="st0" d="M182.7,30.2h13l12,22h0.1v-22h12v41.2h-12.3l-12.6-22.5h-0.1v22.5h-12V30.2z"/>
		<path class="st0" d="M266.6,55.5c0,11.5-6.1,16.9-18.7,16.9c-12.7,0-18.8-5.4-18.8-16.9V30.2h12.7v22.4c0,4.1-0.1,9.5,6.2,9.5
			c6,0,6-5.3,6-9.5V30.2h12.7V55.5z"/>
		<path class="st0" d="M286.8,49.5l-13.5-19.3h14.9l6.2,11.2l6.1-11.2h14.1l-13.2,19.4L316,71.4h-15.3l-7-12.3l-7.3,12.3h-14.5
			L286.8,49.5z"/>
	</g>
	<g>
		<polygon class="st1" points="20.7,82.8 20.7,41.4 0,41.4 0,103.5 62.1,103.5 62.1,82.8 		"/>
		<polygon class="st0" points="103.5,0 0,0 0,31 20.7,31 20.7,20.8 82.8,20.8 82.8,82.8 72.4,82.8 72.4,103.5 103.5,103.5 		"/>
	</g>
</g>
</svg>
