<svg xmlns="http://www.w3.org/2000/svg" xmlns:xlink="http://www.w3.org/1999/xlink" width="264" height="45" viewBox="0 0 264 45"><defs><path id="h6swa" d="M37.028 128H54.73V97.832h-7.79v22.502h-9.26c-6.117 0-9.462-2.901-10.44-7.294-.327-1.574-.45-2.652-.45-6.506V90H19v20.057C19 116.273 22.508 128 37.028 128z"/><path id="h6swb" d="M124.998 127.544s0 .208-.167.332c-.124.124-.332.124-.332.124H57.11V90.064c14.541-.662 23.89 3.852 29.706 10.644V90.064c30.37-1.366 38.182 19.507 38.182 37.48m-38.182-7.206c-1.953-15.944-13.253-22.032-21.77-22.032v22.032h21.77m29.706 0c-1.953-15.944-13.253-22.032-21.77-22.032v21.577c.041.165.083.29.083.455h21.687"/><path id="h6swc" d="M139.874 91.426v9.648c0 2.479.77 3.28 2.348 3.28 1.54 0 2.309-.801 2.309-3.28v-9.648h2.733v9.648c0 3.928-2.271 5.454-5.042 5.454-2.81 0-5.042-1.526-5.042-5.454v-9.648zm10.007 5.76c0-.687 0-1.336-.077-1.832h2.424c0 .534.077 1.107.077 1.68h.039c.385-.688 1.155-1.87 2.925-1.87 2.502 0 3.233 1.87 3.233 4.083v7.1h-2.617v-6.603c0-1.718-.424-2.405-1.501-2.405-1.386 0-1.886 1.183-1.886 2.595v6.375h-2.617zm11.276-1.87h2.608v10.983h-2.608zm-.038-4.653h2.733v2.603h-2.733zm4.31 4.653h2.733l2.232 8.466h.039l2.232-8.466h2.54l-3.348 10.983h-3.079zm19.206 10.487a8.203 8.203 0 0 1-3.272.686c-3.502 0-5.042-2.517-5.042-5.491 0-3.28 1.732-5.835 4.503-5.835 2.387 0 4.388 1.373 4.388 5.873v.496H178.9c0 1.868.731 3.012 2.771 3.012 1.578 0 2.348-.457 2.848-.838zm-2.002-5.96c0-1.937-.615-2.926-1.809-2.926-1.385 0-1.962 1.483-1.962 2.927zm4.657 6.456v-9.153c0-.686 0-1.335-.077-1.83h2.39c0 .686.078 1.373.078 2.02h.038c.309-.838 1.157-2.173 2.776-2.173.193 0 .309.038.463.076v2.48a2.267 2.267 0 0 0-.733-.115c-1.08 0-2.274.648-2.274 2.707v5.988zm6.89-2.555c.423.152 1.5.724 2.732.724.962 0 1.693-.267 1.693-1.106 0-.42-.192-.8-1.154-1.373l-1.078-.648c-1.116-.648-2.309-1.373-2.309-3.089 0-1.525 1.463-3.127 3.772-3.127 1.385 0 2.463.381 2.732.458l-.154 2.059c-.654-.267-1.347-.496-2.309-.496-1.039 0-1.5.42-1.5 1.068 0 .61.461.915 1.23 1.411l1.31.839c1.346.877 2.04 1.487 2.04 2.784 0 2.021-1.694 3.241-4.08 3.241-1.348 0-2.502-.305-3.041-.534zm9.198-8.428h2.617v10.983h-2.617zm-.039-4.653h2.733v2.603h-2.733zm14.356-.343v14.148c0 .763 0 1.45.077 1.869h-2.463a16.623 16.623 0 0 1-.077-1.716h-.077c-.423.915-1.232 1.868-2.925 1.868-2.733 0-3.849-2.593-3.849-5.644 0-3.584 1.424-5.682 3.772-5.682 1.54 0 2.425.915 2.81 1.754H215V90.32zm-6.735 10.411c0 2.517.423 3.813 1.924 3.852 1.54 0 2.079-1.716 2.079-3.776 0-2.135-.616-3.699-2.04-3.699-1.463 0-1.963 1.411-1.963 3.623zm9.583-4.766c.731-.344 1.77-.802 3.464-.802 3.425 0 4.195 1.68 4.195 4.428v4.81c0 .8.077 1.526.154 1.946h-2.386c-.116-.42-.154-.955-.154-1.489h-.039c-.654.916-1.462 1.68-3.04 1.68-1.693 0-3.271-1.184-3.271-3.245 0-2.977 2.386-3.74 5.734-3.74h.539v-.42c0-1.107-.539-2.1-2.04-2.1-1.308 0-2.502.65-3.002 1.07zm5.157 5.605v-.61h-.23c-2.233 0-3.58.457-3.58 2.06 0 .99.693 1.677 1.694 1.677 1.578 0 2.155-1.182 2.155-3.127zm13.971-11.25v14.148c0 .763 0 1.45.077 1.869h-2.463a16.623 16.623 0 0 1-.077-1.716h-.077c-.462.915-1.231 1.868-2.925 1.868-2.732 0-3.849-2.593-3.849-5.644 0-3.584 1.424-5.682 3.772-5.682 1.54 0 2.425.915 2.81 1.754h.038V90.32zm-6.696 10.411c0 2.517.385 3.813 1.929 3.852 1.543 0 2.083-1.716 2.083-3.776 0-2.135-.617-3.699-2.045-3.699-1.466 0-1.967 1.411-1.967 3.623z"/><path id="h6swd" d="M147.948 109.203v16.038c0 .864 0 1.642.087 2.118h-2.792a18.843 18.843 0 0 1-.088-1.945h-.087c-.48 1.037-1.396 2.118-3.315 2.118-3.098 0-4.363-2.94-4.363-6.398 0-4.063 1.614-6.44 4.275-6.44 1.745 0 2.749 1.037 3.185 1.988h.044v-7.479zm-7.635 11.801c0 2.853.48 4.323 2.181 4.366 1.745 0 2.356-1.945 2.356-4.28 0-2.42-.698-4.192-2.312-4.192-1.658 0-2.225 1.6-2.225 4.106zm19.37 5.75c-.61.259-1.92.778-3.708.778-3.97 0-5.715-2.853-5.715-6.225 0-3.718 1.963-6.614 5.104-6.614 2.705 0 4.973 1.556 4.973 6.657v.562h-7.154c0 2.118.829 3.415 3.14 3.415 1.79 0 2.662-.519 3.23-.95zm-2.279-6.744c0-2.205-.696-3.328-2.045-3.328-1.567 0-2.22 1.685-2.22 3.328zm5.507-10.85h2.967v18.156h-2.967zm12.521 1.297h4.363c5.235 0 8.027 2.853 8.027 8.43 0 5.662-3.36 8.429-8.027 8.429h-4.363zm3.054 14.567h1.047c3.446 0 5.017-2.377 5.017-6.095 0-3.717-1.57-6.095-5.017-6.095h-1.047zm20.844 1.73c-.61.259-1.918.778-3.705.778-3.966 0-5.709-2.853-5.709-6.225 0-3.718 1.961-6.614 5.1-6.614 2.701 0 4.968 1.556 4.968 6.657v.562h-7.148c0 2.118.828 3.415 3.138 3.415 1.787 0 2.659-.519 3.225-.95zm-2.226-6.744c0-2.205-.696-3.328-2.045-3.328-1.567 0-2.22 1.685-2.22 3.328zm4.853 4.41c.48.172 1.701.82 3.097.82 1.09 0 1.92-.302 1.92-1.253 0-.475-.218-.908-1.309-1.556l-1.222-.735c-1.265-.735-2.617-1.556-2.617-3.501 0-1.73 1.658-3.545 4.275-3.545 1.57 0 2.792.432 3.098.519l-.175 2.334c-.741-.303-1.527-.562-2.617-.562-1.178 0-1.702.475-1.702 1.21 0 .692.524 1.038 1.396 1.6l1.484.95c1.527.995 2.312 1.687 2.312 3.156 0 2.291-1.92 3.675-4.625 3.675-1.527 0-2.835-.346-3.446-.606zm10.73-8.82c.829-.388 2.005-.907 3.923-.907 3.879 0 4.75 1.902 4.75 5.014v5.447c0 .908.088 1.73.175 2.205h-2.702c-.13-.476-.174-1.08-.174-1.686h-.044c-.741 1.037-1.656 1.902-3.443 1.902-1.918 0-3.705-1.34-3.705-3.674 0-3.372 2.702-4.237 6.494-4.237h.61v-.475c0-1.254-.61-2.378-2.31-2.378-1.481 0-2.832.735-3.399 1.21zm5.848 6.355v-.691h-.262c-2.53 0-4.057.518-4.057 2.334 0 1.124.785 1.902 1.92 1.902 1.788 0 2.442-1.34 2.442-3.545zm5.628 5.37v-10.382c0-.779 0-1.514-.088-2.077h2.705c0 .779.087 1.558.087 2.293h.044c.349-.952 1.309-2.466 3.141-2.466.218 0 .35.043.524.087v2.812a2.56 2.56 0 0 0-.83-.13c-1.22 0-2.573.735-2.573 3.071v6.793zm8.463 0v-10.382c0-.779 0-1.514-.087-2.077h2.705c0 .779.087 1.558.087 2.293h.043c.35-.952 1.31-2.466 3.142-2.466.218 0 .349.043.523.087v2.812a2.56 2.56 0 0 0-.829-.13c-1.221 0-2.574.735-2.574 3.071v6.793zm10.907-6.234c0 2.075.48 4.323 2.399 4.323 1.92 0 2.356-2.248 2.356-4.323s-.436-4.28-2.356-4.28c-1.963 0-2.4 2.205-2.4 4.28zm-3.054 0c0-5.101 2.923-6.398 5.453-6.398 2.53 0 5.453 1.297 5.453 6.398 0 5.23-2.923 6.44-5.453 6.44-2.53 0-5.453-1.21-5.453-6.44zm13.524-11.931h2.966v18.156h-2.966zm6.282 0h2.957v18.156h-2.957zm8.682 11.93c0 2.076.479 4.324 2.394 4.324 1.916 0 2.351-2.248 2.351-4.323s-.435-4.28-2.35-4.28c-1.96 0-2.395 2.205-2.395 4.28zm-3.054 0c0-5.1 2.923-6.397 5.453-6.397 2.53 0 5.453 1.297 5.453 6.398 0 5.23-2.923 6.44-5.453 6.44-2.53 0-5.453-1.21-5.453-6.44z"/></defs><g><g transform="translate(-16 -86)"><g><g><use fill="#fff" xlink:href="#h6swa"/></g><g><use fill="#fff" xlink:href="#h6swb"/></g></g><g><g><use fill="#fff" xlink:href="#h6swc"/></g><g><use fill="#fff" xlink:href="#h6swd"/></g></g></g></g></svg>