<svg xmlns="http://www.w3.org/2000/svg" width="191.567" height="68" viewBox="0 0 191.567 68">
  <g id="Layer_2" data-name="Layer 2" transform="translate(0.03)">
    <g id="Layer_1" data-name="Layer 1" transform="translate(-0.03)">
      <path id="Path_45" data-name="Path 45" d="M8.7,0l8.741,14.415H.15Z" transform="translate(0.118)" fill="#fff"/>
      <path id="Path_46" data-name="Path 46" d="M20.308,0l8.741,14.415H11.76Z" transform="translate(5.797)" fill="#fff"/>
      <path id="Path_47" data-name="Path 47" d="M31.918,0l8.741,14.415H23.37Z" transform="translate(11.792)" fill="#fff"/>
      <path id="Path_48" data-name="Path 48" d="M522.834,399.891c-2.688,0-3.574-2.174-6.261-2.174s-3.5,2.174-6.186,2.174-3.5-2.174-6.2-2.174-3.483,2.174-6.186,2.174-3.528-2.174-6.216-2.174-3.5,2.174-6.186,2.174-3.5-2.174-6.2-2.174-3.5,2.174-6.186,2.174-3.543-2.174-6.231-2.174-3.5,2.174-6.186,2.174-3.513-2.174-6.2-2.174-3.5,2.174-6.186,2.174-3.528-2.174-6.216-2.174-3.5,2.174-6.186,2.174-3.513-2.174-6.2-2.174-3.5,2.174-6.186,2.174-3.558-2.174-6.261-2.174-3.5,2.174-6.186,2.174-3.5-2.174-6.186-2.174-3.5,2.174-6.186,2.174-3.528-2.174-6.216-2.174-3.513,2.174-6.2,2.174-3.5-2.174-6.186-2.174-3.5,2.174-6.2,2.174-3.528-2.174-6.231-2.174-3.5,2.174-6.186,2.174-3.5-2.174-6.2-2.174-3.483,2.174-6.186,2.174-3.513-2.174-6.216-2.174-3.453,2.025-6.006,2.159V396.6a5.388,5.388,0,0,0,2.643-.938h0a5.091,5.091,0,0,1,6.621,0h0a5.209,5.209,0,0,0,2.9.968,5.133,5.133,0,0,0,2.9-.968h0a5.061,5.061,0,0,1,6.591,0h0a4.776,4.776,0,0,0,5.765,0h0a5.092,5.092,0,0,1,6.621,0h0a4.821,4.821,0,0,0,5.8,0h0a5.061,5.061,0,0,1,6.591,0h0a4.806,4.806,0,0,0,5.781,0h0a5.076,5.076,0,0,1,6.606,0h0a5.224,5.224,0,0,0,2.913.968,5.117,5.117,0,0,0,2.883-.968h0a5.061,5.061,0,0,1,6.591,0h0a5.117,5.117,0,0,0,2.883.968,5.042,5.042,0,0,0,2.883-.968h0a5.122,5.122,0,0,1,6.636,0h0a5.178,5.178,0,0,0,2.913.968,5.118,5.118,0,0,0,2.883-.968h0a5.076,5.076,0,0,1,6.606,0h0a4.806,4.806,0,0,0,5.781,0h0a5.076,5.076,0,0,1,6.606,0h0a4.806,4.806,0,0,0,5.781,0h0a5.076,5.076,0,0,1,6.606,0h0a4.806,4.806,0,0,0,5.781,0h0a5.84,5.84,0,0,1,3.3-1.221,6.036,6.036,0,0,1,3.318,1.221h0a5.178,5.178,0,0,0,2.9.968,5.042,5.042,0,0,0,2.883-.968h0a5.076,5.076,0,0,1,6.606,0h0a4.806,4.806,0,0,0,5.781,0h0a5.076,5.076,0,0,1,6.606,0h0a5.178,5.178,0,0,0,2.9.968,5.043,5.043,0,0,0,2.883-.968h0a5.076,5.076,0,0,1,6.606,0h0a4.806,4.806,0,0,0,5.781,0h0a5.84,5.84,0,0,1,3.3-1.221,6.036,6.036,0,0,1,3.333,1.221h0a5.269,5.269,0,0,0,2.913.968,5.133,5.133,0,0,0,2.9-.968h0a6.573,6.573,0,0,1,2.733-1.161v3.276c-2.237.283-3.138,2.115-5.63,2.115" transform="translate(-336.97 -367.08)" fill="#fff"/>
      <path id="Path_49" data-name="Path 49" d="M527.346,393.589c-1.606.581-2.568,1.921-4.685,1.921s-3.108-1.34-4.73-1.921h0a4.249,4.249,0,0,0-1.5-.253,4.375,4.375,0,0,0-1.5.253h0c-1.607.581-2.553,1.921-4.67,1.921s-3-1.34-4.67-1.921h0a4.631,4.631,0,0,0-3,0h0c-1.622.581-2.567,1.921-4.685,1.921s-3.078-1.34-4.685-1.921h0a4.25,4.25,0,0,0-1.5-.253,4.374,4.374,0,0,0-1.5.253h0c-1.607.581-2.552,1.921-4.669,1.921s-3-1.34-4.67-1.921h0a4.631,4.631,0,0,0-3,0h0c-1.622.581-2.568,1.921-4.685,1.921s-3.093-1.34-4.7-1.921h0a4.374,4.374,0,0,0-1.5-.253,4.311,4.311,0,0,0-1.5.253h0c-1.607.581-2.567,1.921-4.67,1.921s-3-1.34-4.669-1.921h0a4.311,4.311,0,0,0-1.5-.253,4.374,4.374,0,0,0-1.5.253h0c-1.622.581-2.567,1.921-4.685,1.921s-3.078-1.34-4.685-1.921h0a4.376,4.376,0,0,0-1.5-.253,4.31,4.31,0,0,0-1.5.253h0c-1.607.581-2.553,1.921-4.67,1.921s-3-1.34-4.67-1.921h0a4.311,4.311,0,0,0-1.5-.253,4.374,4.374,0,0,0-1.5.253h0c-1.607.581-2.553,1.921-4.67,1.921s-3.108-1.34-4.73-1.921h0a4.405,4.405,0,0,0-1.5-.253,4.221,4.221,0,0,0-1.5.253h0c-1.622.581-2.567,1.921-4.684,1.921s-3-1.34-4.67-1.921h0a4.631,4.631,0,0,0-3,0h0c-1.607.581-2.567,1.921-4.67,1.921s-3-1.34-4.7-1.921h0a4.631,4.631,0,0,0-3,0h0c-1.622.581-2.568,1.921-4.685,1.921s-3-1.34-4.67-1.921h0a4.631,4.631,0,0,0-3,0h0c-1.607.581-2.567,1.921-4.685,1.921s-3.078-1.34-4.7-1.921h0a4.631,4.631,0,0,0-3,0h0c-1.622.581-2.568,1.921-4.685,1.921s-3-1.34-4.67-1.921h0a4.631,4.631,0,0,0-3,0h0c-1.621.581-2.567,1.921-4.685,1.921s-3.078-1.34-4.685-1.921h0a4.631,4.631,0,0,0-3,0h0c-1.5.551-2.507,1.8-4.5,1.906v-3.276c2.492-.134,3.348-2.159,6.006-2.159s3.528,2.174,6.216,2.174,3.5-2.174,6.186-2.174,3.513,2.174,6.2,2.174,3.5-2.174,6.186-2.174,3.543,2.174,6.231,2.174S377.379,390,380.022,390s3.5,2.174,6.186,2.174,3.5-2.174,6.186-2.174,3.529,2.174,6.231,2.174S402.108,390,404.811,390s3.5,2.174,6.186,2.174S414.5,390,417.183,390s3.559,2.174,6.261,2.174S426.927,390,429.63,390s3.5,2.174,6.2,2.174,3.5-2.174,6.186-2.174,3.528,2.174,6.216,2.174,3.5-2.174,6.186-2.174,3.5,2.174,6.2,2.174,3.5-2.174,6.186-2.174,3.543,2.174,6.231,2.174S476.476,390,479.223,390s3.5,2.174,6.2,2.174,3.5-2.174,6.186-2.174,3.528,2.174,6.216,2.174,3.5-2.174,6.186-2.174,3.5,2.174,6.2,2.174S513.712,390,516.4,390s3.574,2.174,6.261,2.174,3.393-1.832,5.63-2.115v3.261a4.4,4.4,0,0,0-.946.208Z" transform="translate(-336.799 -369.31)" fill="#fff"/>
      <path id="Path_50" data-name="Path 50" d="M.46,40.26h.819L3.93,44.221,6.58,40.26h.834v7.267H6.6V41.645L3.945,45.532H3.9L1.249,41.645v5.882H.46Z" transform="translate(0.27 20.249)" fill="#fff"/>
      <rect id="Rectangle_2446" data-name="Rectangle 2446" width="0.819" height="7.267" transform="translate(10.23 60.509)" fill="#fff"/>
      <path id="Path_51" data-name="Path 51" d="M9.1,40.26h.759l4.587,5.823V40.26h.8v7.267h-.655L9.889,41.57v5.957H9.1Z" transform="translate(4.496 20.249)" fill="#fff"/>
      <rect id="Rectangle_2447" data-name="Rectangle 2447" width="0.819" height="7.267" transform="translate(22.292 60.509)" fill="#fff"/>
      <path id="Path_52" data-name="Path 52" d="M354,422.7l.506-.6a3.485,3.485,0,0,0,2.472,1.1c.968,0,1.623-.521,1.623-1.236h0c0-.685-.372-1.072-1.891-1.385s-2.442-.908-2.442-2.1h0a2.144,2.144,0,0,1,2.383-1.981,3.812,3.812,0,0,1,2.561.893l-.476.64a3.217,3.217,0,0,0-2.1-.789c-.953,0-1.489.521-1.489,1.176h0c0,.685.372,1.072,1.966,1.415s2.368.938,2.368,2.055h0c0,1.251-1.028,2.07-2.472,2.07a4.229,4.229,0,0,1-2.978-1.177" transform="translate(-328.64 -355.98)" fill="#fff"/>
      <path id="Path_53" data-name="Path 53" d="M24.062,41.019H21.62V40.26h5.718v.759H24.9v6.522h-.834Z" transform="translate(11.116 20.249)" fill="#fff"/>
      <path id="Path_54" data-name="Path 54" d="M366.683,420.219c1.087,0,1.876-.551,1.876-1.489h0c0-.893-.685-1.489-1.861-1.489h-2.249v2.978Zm-3.053-3.708h3.127a2.859,2.859,0,0,1,2.07.73,2.054,2.054,0,0,1,.551,1.489h0a2.115,2.115,0,0,1-1.966,2.115l2.234,2.978h-1l-2.1-2.829h-2.085v2.829h-.819Z" transform="translate(-323.591 -355.972)" fill="#fff"/>
      <path id="Path_55" data-name="Path 55" d="M34.293,44.653,31.27,40.26h1.013l2.442,3.634L37.2,40.26h.953l-3.023,4.378v2.889h-.834Z" transform="translate(15.739 20.249)" fill="#fff"/>
      <path id="Path_56" data-name="Path 56" d="M382.487,420.233h0a2.889,2.889,0,0,0-2.859-2.978,2.844,2.844,0,0,0-2.844,2.978h0a2.889,2.889,0,0,0,2.859,2.978,2.844,2.844,0,0,0,2.844-2.978m-6.567,0h0a3.693,3.693,0,0,1,3.723-3.753,3.648,3.648,0,0,1,3.708,3.738h0a3.716,3.716,0,1,1-7.431.03" transform="translate(-317.42 -355.986)" fill="#fff"/>
      <path id="Path_57" data-name="Path 57" d="M45.21,40.26h5.227v.759H46.029v2.591H49.96v.759H46.029v3.157H45.21Z" transform="translate(22.73 20.249)" fill="#fff"/>
      <path id="Path_58" data-name="Path 58" d="M52.16,40.26h5.257V41H52.979v2.487H56.94v.745H52.979v2.546h4.482v.745h-5.3Z" transform="translate(26.218 20.249)" fill="#fff"/>
      <path id="Path_59" data-name="Path 59" d="M395.059,417.252v5.763h1.712a2.814,2.814,0,0,0,2.978-2.859h0a2.829,2.829,0,0,0-2.978-2.874Zm-.819-.759h2.532a3.619,3.619,0,0,1,3.872,3.619h0a3.648,3.648,0,0,1-3.872,3.648H394.24Z" transform="translate(-308.229 -355.984)" fill="#fff"/>
      <path id="Path_60" data-name="Path 60" d="M399.76,420.719V416.49h.819v4.184a2.144,2.144,0,0,0,2.219,2.442,2.1,2.1,0,0,0,2.2-2.4V416.49h.819v4.17a3.03,3.03,0,0,1-6.061,0" transform="translate(-305.46 -355.981)" fill="#fff"/>
      <path id="Path_61" data-name="Path 61" d="M405.21,420.233h0a3.663,3.663,0,0,1,3.678-3.753,3.8,3.8,0,0,1,2.844,1.147l-.566.611a3.157,3.157,0,0,0-2.278-1,2.859,2.859,0,0,0-2.829,2.978h0a2.874,2.874,0,0,0,2.829,2.978,3.143,3.143,0,0,0,2.338-1.043l.551.522a3.782,3.782,0,0,1-2.978,1.281,3.634,3.634,0,0,1-3.648-3.738" transform="translate(-302.753 -355.986)" fill="#fff"/>
      <path id="Path_62" data-name="Path 62" d="M415.621,421.106l-1.653-3.693-1.653,3.693ZM413.6,416.46h.745l3.321,7.327h-.893l-.849-1.921h-3.961l-.864,1.921h-.834Z" transform="translate(-300.184 -355.995)" fill="#fff"/>
      <path id="Path_63" data-name="Path 63" d="M80.672,41.019H78.23V40.26h5.718v.759H81.506v6.522h-.834Z" transform="translate(39.302 20.249)" fill="#fff"/>
      <rect id="Rectangle_2448" data-name="Rectangle 2448" width="0.819" height="7.267" transform="translate(125.103 60.509)" fill="#fff"/>
      <path id="Path_64" data-name="Path 64" d="M428.767,420.233h0a2.859,2.859,0,1,0-5.718,0h0a2.978,2.978,0,0,0,2.874,2.978,2.859,2.859,0,0,0,2.844-2.978m-6.567,0h0a3.709,3.709,0,1,1,7.416-.015h0a3.723,3.723,0,1,1-7.446,0" transform="translate(-294.206 -355.986)" fill="#fff"/>
      <path id="Path_65" data-name="Path 65" d="M91.47,40.26h.774l4.587,5.823V40.26h.789v7.267h-.64L92.274,41.57v5.957h-.8Z" transform="translate(45.948 20.249)" fill="#fff"/>
      <path id="Path_66" data-name="Path 66" d="M2.4,31.433H0V29.84H6.537v1.593H4.14v6.3H2.4Z" transform="translate(0.045 15.011)" fill="#fff"/>
      <path id="Path_67" data-name="Path 67" d="M5.43,29.84h5.957v1.549H7.157v1.593H10.88v1.549H7.157v1.653h4.289v1.549H5.43Z" transform="translate(2.701 15.011)" fill="#fff"/>
      <path id="Path_68" data-name="Path 68" d="M15.1,31.433H12.7V29.84h6.537v1.593h-2.4v6.3H15.1Z" transform="translate(6.257 15.011)" fill="#fff"/>
      <path id="Path_69" data-name="Path 69" d="M359.212,411.312l-1.057-2.561-1.042,2.561Zm-3.172-6.582h4.289v1.206H356.04Zm1.34,1.936h1.608l3.38,7.952h-1.817l-.73-1.772h-3.336l-.715,1.772H354Z" transform="translate(-328.64 -361.879)" fill="#fff"/>
      <path id="Path_70" data-name="Path 70" d="M23.43,29.84h1.742v3.112h3.2V29.84h1.742v7.892H28.374V34.561h-3.2v3.172H23.43Z" transform="translate(11.804 15.011)" fill="#fff"/>
      <path id="Path_71" data-name="Path 71" d="M366.258,410.567V406.1H368v4.467c0,1.281.64,1.951,1.7,1.951s1.712-.64,1.712-1.891V406.16h1.727v4.467a3.172,3.172,0,0,1-3.455,3.559,3.127,3.127,0,0,1-3.425-3.5" transform="translate(-322.283 -361.202)" fill="#fff"/>
      <path id="Path_72" data-name="Path 72" d="M35.21,29.84h1.742v3.112h3.2V29.84h1.727v7.892H40.154V34.561h-3.2v3.172H35.21Z" transform="translate(17.716 15.011)" fill="#fff"/>
      <path id="Path_73" data-name="Path 73" d="M378.008,410.567V406.1h1.742v4.467c0,1.281.64,1.951,1.7,1.951s1.7-.64,1.7-1.891V406.16h1.742v4.467a3.172,3.172,0,0,1-3.455,3.559,3.127,3.127,0,0,1-3.425-3.5" transform="translate(-316.385 -361.202)" fill="#fff"/>
      <path id="Path_74" data-name="Path 74" d="M392.452,410.114h0a2.412,2.412,0,0,0-2.4-2.487,2.353,2.353,0,0,0-2.368,2.457h0a2.4,2.4,0,0,0,2.4,2.472,2.353,2.353,0,0,0,2.368-2.457m-6.582,0h0a4.2,4.2,0,1,1,8.4,0h0a4.2,4.2,0,0,1-8.4,0" transform="translate(-312.422 -361.301)" fill="#fff"/>
      <path id="Path_75" data-name="Path 75" d="M59.378,31.433h-2.4V29.84h6.537v1.593h-2.4v6.3H59.378Z" transform="translate(28.641 15.011)" fill="#fff"/>
      <path id="Path_76" data-name="Path 76" d="M62.42,29.84h5.942v1.549H64.147v1.593h3.708v1.549H64.147v1.653h4.274v1.549h-6Z" transform="translate(31.369 15.011)" fill="#fff"/>
      <path id="Path_77" data-name="Path 77" d="M70.06,29.84h1.876l2.07,3.336,2.07-3.336h1.876v7.892H76.225V32.58l-2.219,3.365h-.045L71.773,32.61v5.123H70.06Z" transform="translate(35.212 15.011)" fill="#fff"/>
      <path id="Path_78" data-name="Path 78" d="M418.542,411.312l-1.057-2.561-1.042,2.561Zm-3.172-6.582h4.289v1.206H415.37Zm1.34,1.936H418.3l3.4,7.952h-1.817l-.73-1.772h-3.336l-.715,1.772H413.33Z" transform="translate(-298.638 -361.879)" fill="#fff"/>
      <path id="Path_79" data-name="Path 79" d="M84.258,31.433h-2.4V29.84H88.4v1.593H85.985v6.3H84.258Z" transform="translate(41.128 15.011)" fill="#fff"/>
      <path id="Path_80" data-name="Path 80" d="M428.362,410.691l-1.042-2.561-1.057,2.561ZM426.53,406h1.608l3.38,7.952H429.7l-.715-1.772h-3.336l-.73,1.772H423.15Z" transform="translate(-293.708 -361.254)" fill="#fff"/>
      <path id="Path_81" data-name="Path 81" d="M429.478,410.567V406.1h1.727v4.467c0,1.281.64,1.951,1.7,1.951s1.712-.64,1.712-1.891V406.16h1.727v4.467a3.172,3.172,0,0,1-3.455,3.559,3.127,3.127,0,0,1-3.41-3.5" transform="translate(-290.553 -361.202)" fill="#fff"/>
      <path id="Path_82" data-name="Path 82" d="M438.919,409.9c.849,0,1.325-.447,1.325-1.117h0c0-.745-.506-1.132-1.355-1.132h-1.727v2.263Zm-3.5-3.827h3.619a3.127,3.127,0,0,1,2.293.8,2.442,2.442,0,0,1,.685,1.8h0a2.472,2.472,0,0,1-1.7,2.457l1.921,2.815h-2.025l-1.7-2.532h-1.355v2.532H435.42Z" transform="translate(-287.559 -361.221)" fill="#fff"/>
      <path id="Path_83" data-name="Path 83" d="M445.8,410.691l-1.042-2.561-1.057,2.561ZM443.965,406h1.608l3.38,7.952h-1.8l-.715-1.772H443.1l-.73,1.772H440.6Z" transform="translate(-284.713 -361.254)" fill="#fff"/>
      <path id="Path_84" data-name="Path 84" d="M110.18,29.84h1.593l3.708,4.855V29.84h1.713v7.892H115.72l-3.827-5.018v5.018H110.18Z" transform="translate(55.506 15.011)" fill="#fff"/>
      <path id="Path_85" data-name="Path 85" d="M453.07,410.072h0a4.05,4.05,0,0,1,4.14-4.08,4.363,4.363,0,0,1,3.112,1.087l-1.1,1.31a2.978,2.978,0,0,0-2.07-.8,2.383,2.383,0,0,0-2.263,2.457h0a2.368,2.368,0,0,0,2.4,2.5,2.829,2.829,0,0,0,1.638-.477v-1.132h-1.757v-1.489h3.44v3.425a5.167,5.167,0,0,1-3.38,1.251,3.961,3.961,0,0,1-4.155-4.065" transform="translate(-278.614 -361.259)" fill="#fff"/>
      <path id="Path_86" data-name="Path 86" d="M464.152,410.691l-1.057-2.561-1.042,2.561ZM462.32,406h1.608l3.38,7.952h-1.817l-.73-1.772h-3.336l-.715,1.772H458.94Z" transform="translate(-275.742 -361.254)" fill="#fff"/>
    </g>
  </g>
</svg>
