<?xml version="1.0" encoding="UTF-8"?>
<svg xmlns="http://www.w3.org/2000/svg" fill="none" stroke="none" viewBox="0 0 684.45401 171.76099">
    <path fill="#fff" d="M65.957,83.60245,0,45.52647v20.715l32.449,18.733L0,103.70749v20.71594L65.958,86.34552a11.33714,11.33714,0,0,1-.138-1.375,11.62019,11.62019,0,0,1,.137-1.368Z"></path>
    <path fill="#fff" d="M154.871,103.70749l-32.449-18.733,32.449-18.733v-20.715l-65.958,38.076a11.2184,11.2184,0,0,1,.139,1.368,11.33545,11.33545,0,0,1-.139,1.375l65.958,38.07791V103.70749Z"></path>
    <path fill="#fff" d="M132.377,27.26941,99.929,46.00548l.001-35.647L81.99.00049l-.003,74.283a11.59525,11.59525,0,0,1,2.387,1.42l65.943-38.076-17.94-10.35809Z"></path>
    <path fill="#fff" d="M81.987,95.65648l.003,76.104,17.94-10.3581-.001-37.46795,32.448,18.736,17.94-10.358-65.943-38.077a11.55329,11.55329,0,0,1-2.387,1.421Z"></path>
    <path fill="#fff" d="M72.878,74.28645,72.874.00049l-17.94,10.358.001,35.647L22.487,27.26941,4.547,37.6275l65.947,38.079a11.522,11.522,0,0,1,2.384-1.42Z"></path>
    <path fill="#fff" d="M70.494,94.23352,4.547,132.3125l17.94,10.358,32.448-18.736-.001,37.468,17.94,10.3581.004-76.10806a11.517,11.517,0,0,1-2.384-1.41892Z"></path>
    <path fill="#fff" d="M188.595,124.60748h2.347v-17.275l7.786,11.415h.122l7.786-11.445v17.305H209.044V103.24342H206.606L198.82,114.90147l-7.786-11.65805h-2.439v21.36406Zm27.474,0h2.407V103.24342h-2.407v21.36406Zm9.432,0h2.346v-17.519l13.801,17.519h1.92V103.24342h-2.347v17.122l-13.465-17.122h-2.255v21.36406Zm25.092,0H253V103.24342h-2.407v21.36406Zm16.756.305c4.245,0,7.294-2.377,7.294-6.041v-.061c0-3.26695-2.19507-5.007-6.958-6.04494-4.703-1.008-5.802-2.138-5.802-4.153v-.061c0-1.924,1.771-3.45,4.55-3.45a9.38653,9.38653,0,0,1,6.168,2.32l1.402-1.862a11.14839,11.14839,0,0,0-7.509-2.622c-4.06095,0-7.019,2.469-7.019,5.828v.061c0,3.51094,2.256,5.099,7.172,6.167,4.489.947,5.558,2.077,5.558,4.061v.061c0,2.107-1.894,3.634-4.764,3.634a10.16916,10.16916,0,0,1-7.326-3.023l-1.494,1.771a12.49329,12.49329,0,0,0,8.728,3.415Zm17.384-.305h2.439v-19.14h7.173v-2.22405H277.56v2.22405h7.173v19.14Zm14.897,0H302.038v-8.303h6.107l6.19806,8.303h2.958l-6.561-8.73c3.359-.609,5.798-2.683,5.798-6.226v-.061a5.90984,5.90984,0,0,0-1.64606-4.21406,8.43012,8.43012,0,0,0-6.075-2.133H299.63v21.36406Zm2.40795-10.467v-8.673h6.595c3.45092,0,5.466,1.588,5.466,4.215v.061c0,2.748-2.29,4.397-5.496,4.397Zm26.34705,10.467h2.439v-8.485l8.883-12.879h-2.809l-7.263,10.68206L322.433,103.24342h-2.931L328.385,116.1535v8.454Zm35.77393.366a10.82116,10.82116,0,0,0,10.92706-11.048v-.061a10.89672,10.89672,0,1,0-21.792.061v.061a10.71924,10.71924,0,0,0,10.86493,10.987Zm.061-2.224a8.49822,8.49822,0,0,1-8.42694-8.824v-.061c0-4.855,3.4809-8.763,8.36591-8.763a8.49761,8.49761,0,0,1,8.42706,8.824v.061c0,4.855-3.48,8.763-8.366,8.763Zm15.94995,1.858h2.40711v-9.31H394.147v-2.195H382.57706v-7.635H395.52v-2.22405h-15.35v21.36406Zm36.3551,0h2.439v-19.14h7.173v-2.22405H409.352v2.22405h7.173v19.14Zm14.11591,0H433.049v-8.303h6.107l6.199,8.303h2.957l-6.56006-8.73c3.359-.609,5.79706-2.683,5.79706-6.226v-.061a5.91,5.91,0,0,0-1.646-4.21406,8.4304,8.4304,0,0,0-6.075-2.133H430.641v21.36406Zm2.40808-10.467v-8.673h6.596c3.45,0,5.46594,1.588,5.46594,4.215v.061c0,2.748-2.29,4.397-5.497,4.397Zm18.594,10.467h2.472l2.533-5.647h11.629l2.502,5.647h2.595l-9.736-21.517h-2.259l-9.736,21.517Zm5.951-7.841,4.884-10.871,4.85205,10.871Zm19.979,7.841h2.346v-17.519l13.8009,17.519h1.92011V103.24342h-2.347v17.122l-13.465-17.122h-2.255v21.36406Zm32.202.305c4.245,0,7.29407-2.377,7.29407-6.041v-.061c0-3.26695-2.194-5.007-6.958-6.04494-4.702-1.008-5.802-2.138-5.802-4.153v-.061c0-1.924,1.771-3.45,4.55-3.45a9.38636,9.38636,0,0,1,6.168,2.32l1.402-1.862a11.14858,11.14858,0,0,0-7.509-2.622c-4.061,0-7.018,2.469-7.018,5.828v.061c0,3.51094,2.25494,5.099,7.171,6.167,4.48907.947,5.558,2.077,5.558,4.061v.061c0,2.107-1.89294,3.634-4.76392,3.634a10.16529,10.16529,0,0,1-7.325-3.023l-1.495,1.771a12.49331,12.49331,0,0,0,8.728,3.415Zm12.19495-.305H524.378v-7.54h5.191c4.54993,0,8.39295-2.377,8.39295-6.989v-.06093c0-4.21407-3.171-6.7741-7.996-6.7741h-7.99609v21.36406Zm2.40808-9.734v-9.406h5.405c3.451,0,5.741,1.588,5.741,4.642v.06094c0,2.81-2.321,4.703-5.863,4.703Zm27.885,10.1a10.82112,10.82112,0,0,0,10.92706-11.048v-.061a10.89672,10.89672,0,1,0-21.792.061v.061a10.71924,10.71924,0,0,0,10.86493,10.987Zm.061-2.224a8.49832,8.49832,0,0,1-8.42707-8.824v-.061c0-4.855,3.48108-8.763,8.366-8.763a8.497,8.497,0,0,1,8.42706,8.824v.061c0,4.855-3.48,8.763-8.366,8.763Zm15.95,1.858h2.407v-8.303h6.108l6.198,8.303h2.957l-6.56006-8.73c3.359-.609,5.79706-2.683,5.79706-6.226v-.061a5.90545,5.90545,0,0,0-1.64606-4.21406,8.4301,8.4301,0,0,0-6.07495-2.133h-9.186v21.36406Zm2.407-10.467v-8.673h6.596c3.45105,0,5.466,1.588,5.466,4.215v.061c0,2.748-2.29,4.397-5.496,4.397Zm25.07892,10.467h2.439v-19.14h7.1731v-2.22405H588.587v2.22405h7.173v19.14Z"></path>
    <path fill="#fff" d="M192.106,81.51346H200.07v-28.856h11.016v-7.344H181.091v7.344h11.015v28.856Zm25.599,0h27.564v-7.085H225.617V66.82648h17.066v-7.084H225.617v-7.344H245.01v-7.085H217.705v36.2Zm51.196,0h7.809v-23.478l10.0849,15.307h.20606l10.188-15.462v23.633h7.913v-36.2h-8.585l-9.516,15.30808-9.515-15.30808h-8.585v36.2Zm41.786,0h8.119l3.309-8.119h15.308l3.31006,8.119h8.32605L333.544,45.05544h-7.343l-15.514,36.458ZM324.96,66.36147l4.809-11.739,4.81006,11.739Zm29.684,15.152h7.86v-23.013l17.531,23.013h6.775v-36.2h-7.861v22.289l-16.962-22.289h-7.343v36.2Zm37.751,0h8.119l3.31-8.119h15.307l3.30994,8.119h8.32611l-15.5141-36.458H407.909l-15.514,36.458Zm14.273-15.152,4.80994-11.739,4.809,11.739Zm31.89789,15.152h7.96411v-28.856H457.546v-7.344H427.55106v7.344H438.566v28.856Zm40.699.569c9.723,0,15.87708-5.378,15.87708-16.342v-20.427H487.178V66.05151c0,5.74-2.94794,8.688-7.809,8.688-4.861,0-7.809-3.051-7.809-8.947v-20.479h-7.964V65.99948c0,10.653,5.947,16.083,15.66894,16.083Zm50.111-.31H536.306l8.171-23.68506,8.171,23.68506h6.929L571.937,45.31343h-8.32593l-7.499,24.51305-8.11908-24.616H541.167l-8.119,24.616-7.499-24.51305h-8.533L529.376,81.77251ZM567.48,81.51346h8.119l3.31006-8.119h15.307l3.31,8.119h8.326l-15.514-36.458h-7.344l-15.514,36.458Zm14.273-15.152,4.81-11.739,4.809,11.739Zm28.64,15.152h7.964v-11.067l4.189-4.344,11.22205,15.411h9.567l-15.411-20.841,14.739-15.35906h-9.619L618.357,61.13849V45.31343h-7.964v36.2Z"></path>
    <path fill="#fff" d="M469.72,34.94942a12.27691,12.27691,0,0,1-5.158,3.73008v.01992h30.577v-5.537H470.912a16.45721,16.45721,0,0,1-1.192,1.787Z"></path>
    <path fill="#fff" d="M646.081,81.51346h8.12l3.309-8.119h15.308l3.31006,8.119h8.326l-15.51495-36.458h-7.343l-15.515,36.458Zm14.27393-15.152,4.80908-11.739,4.81,11.739Z"></path>
</svg>