<?xml version="1.0" encoding="utf-8"?>
<!-- Generator: Adobe Illustrator 24.3.0, SVG Export Plug-In . SVG Version: 6.00 Build 0)  -->
<svg version="1.1" id="Ebene_1" xmlns="http://www.w3.org/2000/svg" xmlns:xlink="http://www.w3.org/1999/xlink" x="0px" y="0px"
	 width="250.1px" height="81.5px" viewBox="0 0 250.1 81.5" style="enable-background:new 0 0 250.1 81.5;" xml:space="preserve">
<title>Logo Stadt Zürich</title>
<metadata><?xpacket begin="﻿" id="W5M0MpCehiHzreSzNTczkc9d"?>
<x:xmpmeta xmlns:x="adobe:ns:meta/" x:xmptk="Adobe XMP Core 6.0-c002 79.164352, 2020/01/30-15:50:38        ">
   <rdf:RDF xmlns:rdf="http://www.w3.org/1999/02/22-rdf-syntax-ns#">
      <rdf:Description rdf:about=""
            xmlns:photoshop="http://ns.adobe.com/photoshop/1.0/"
            xmlns:xmp="http://ns.adobe.com/xap/1.0/"
            xmlns:xmpMM="http://ns.adobe.com/xap/1.0/mm/"
            xmlns:stEvt="http://ns.adobe.com/xap/1.0/sType/ResourceEvent#"
            xmlns:dc="http://purl.org/dc/elements/1.1/">
         <photoshop:Headline>Logo Stadt Zürich</photoshop:Headline>
         <photoshop:CaptionWriter>Stadt Zürich</photoshop:CaptionWriter>
         <photoshop:DateCreated>2020-05-01T00:00Z</photoshop:DateCreated>
         <xmp:MetadataDate>2020-10-01T10:38:17+02:00</xmp:MetadataDate>
         <xmpMM:InstanceID>xmp.iid:eea2a44a-0fef-4289-90ba-1681ac4156c1</xmpMM:InstanceID>
         <xmpMM:DocumentID>xmp.did:abd81c61-44ba-47f4-abc4-83ecddc29a25</xmpMM:DocumentID>
         <xmpMM:OriginalDocumentID>xmp.did:abd81c61-44ba-47f4-abc4-83ecddc29a25</xmpMM:OriginalDocumentID>
         <xmpMM:History>
            <rdf:Seq>
               <rdf:li>
                  <rdf:Description>
                     <stEvt:action>saved</stEvt:action>
                     <stEvt:instanceID>xmp.iid:abd81c61-44ba-47f4-abc4-83ecddc29a25</stEvt:instanceID>
                     <stEvt:when>2020-10-01T10:33:52+02:00</stEvt:when>
                     <stEvt:softwareAgent>Adobe Bridge 2020 (Macintosh)</stEvt:softwareAgent>
                     <stEvt:changed>/metadata</stEvt:changed>
                  </rdf:Description>
               </rdf:li>
               <rdf:li>
                  <rdf:Description>
                     <stEvt:action>saved</stEvt:action>
                     <stEvt:instanceID>xmp.iid:eea2a44a-0fef-4289-90ba-1681ac4156c1</stEvt:instanceID>
                     <stEvt:when>2020-10-01T10:38:17+02:00</stEvt:when>
                     <stEvt:softwareAgent>Adobe Bridge 2020 (Macintosh)</stEvt:softwareAgent>
                     <stEvt:changed>/metadata</stEvt:changed>
                  </rdf:Description>
               </rdf:li>
            </rdf:Seq>
         </xmpMM:History>
         <dc:creator>
            <rdf:Seq>
               <rdf:li>Stadt Zürich</rdf:li>
            </rdf:Seq>
         </dc:creator>
         <dc:title>
            <rdf:Alt>
               <rdf:li xml:lang="x-default">Logo Stadt Zürich</rdf:li>
            </rdf:Alt>
         </dc:title>
      </rdf:Description>
   </rdf:RDF>
</x:xmpmeta>
                                                                                                    
                                                                                                    
                                                                                                    
                                                                                                    
                                                                                                    
                                                                                                    
                                                                                                    
                                                                                                    
                                                                                                    
                                                                                                    
                                                                                                    
                                                                                                    
                                                                                                    
                                                                   
<?xpacket end="w"?></metadata>
<style type="text/css">
	.st0{fill:none;}
	.st1{fill:#fff;}
</style>
<rect class="st0" width="250.1" height="81.5"/>
<g transform="translate(0,10)">
	<g id="Bildmarke">
		<path class="st1" d="M83,39c-0.3,0-0.6,0.1-0.9,0.2c-0.4-1.4-0.8-2.8-1.1-4.2l1.6-2.2c0.2-0.3,2.9-3.7,2.9-6.9
			c0-4.7-4-4.8-4.4-4.8c-1,0-2.5,0.4-3.4,1.6c-0.9,1.1-1.1,2.6-0.7,4.4c0.1,0.3,1,3.9,2,7.5l-1.6,2.1l-3.5-13.4l8-5.9l0,0
			c2.2-1.7,3.5-4.4,3.5-7.2c0-4.3-3-8-7.1-8.9V0.4L76.7,0v1l-4.6-0.3h-1.5v3.7h1.5c0.4,0,0.8,0.4,0.8,0.8S72.5,6,72.1,6l-5-0.5
			l0.4,1.6L72,7.5l0,0h0.1c1.3,0,2.3-1,2.3-2.3s-1-2.3-2.3-2.3V2.3l4.5,0.3v4.3c0,0.5-0.2,0.9-0.5,1.2s-0.8,0.5-1.3,0.4l-5.1-0.3
			l0.4,1.5l0,0c-1.4,0.9-2.6,2.1-3.5,3.4l-2-4.3C64.9,8.3,65,7.7,65,7.2c0-2-1.6-3.6-3.6-3.6c-1.3,0-2.4,0.6-3,1.6L58.8,1H26.7
			L27,5.3c-0.6-1-1.8-1.6-3-1.6c-2,0-3.6,1.6-3.6,3.6c0,0.6,0.1,1.1,0.4,1.6l-2,4.3c-0.9-1.4-2.1-2.5-3.5-3.4l0,0l0.4-1.5l-5.1,0.3
			c-0.5,0-0.9-0.1-1.3-0.4C9,7.7,8.9,7.3,8.9,6.8V2.5l4.5-0.3v0.6c-1.3,0-2.3,1.1-2.3,2.3c0,1.3,1,2.3,2.3,2.3h0.1L18,7.1l0.4-1.6
			l-5,0.5c-0.4,0-0.8-0.4-0.8-0.8s0.4-0.8,0.8-0.8h1.5V0.8h-1.5L8.9,1V0L7.3,0.4v0.8c-4.2,0.9-7.1,4.6-7.1,8.9
			c0,2.8,1.3,5.5,3.5,7.2l8,5.9L8.2,36.7l-1.6-2.1c1-3.5,1.9-7.1,2-7.5c0.4-1.8,0.2-3.3-0.7-4.4c-0.9-1.2-2.4-1.6-3.4-1.6
			C4,21.1,0,21.3,0,26c0,3.1,2.7,6.5,2.9,6.9L4.5,35c-0.4,1.4-0.8,2.8-1.1,4.2C3.2,39.1,2.9,39,2.6,39c-1.2,0-2.2,1-2.2,2.2
			s1,2.2,2.2,2.2c1,0,1.9-0.7,2.1-1.6l0,0C4.8,41.3,5.4,39.3,6,37l1.6,2.1L3.4,54.9l0,0c-0.1,0.3-0.1,0.5-0.1,0.8
			c0,2,1.6,3.6,3.6,3.6s3.6-1.6,3.6-3.6c0-0.9-0.3-1.7-0.9-2.4l3.7-6l7.4,10.4c0.7,1,1.8,1.5,3,1.5c2,0,3.6-1.6,3.6-3.6
			S25.7,52,23.7,52c-0.1,0-0.1,0-0.2,0l-5-14.2c-0.5-1.3-1.6-2.2-3-2.4c-0.2,0-0.4,0-0.6,0l3.4-7.4l4.5,3.3c0.6,0.5,1.4,0.8,2.2,0.8
			c0.2,0,0.4,0,0.7-0.1L27,45.1c0.4,3.6,2.3,7.1,5.3,9.8c3.1,2.8,6.8,4.3,10.6,4.3l0,0c3.8,0,7.6-1.5,10.6-4.3
			c3-2.7,4.9-6.3,5.3-9.8l1.2-13c0.2,0,0.4,0.1,0.7,0.1c0.8,0,1.6-0.3,2.2-0.8l4.5-3.3l3.4,7.4c-0.2,0-0.4,0-0.6,0
			c-1.4,0.2-2.5,1.1-3,2.4l-5,14.2c-0.1,0-0.1,0-0.2,0c-2,0-3.6,1.6-3.6,3.6s1.6,3.6,3.6,3.6c1.2,0,2.3-0.6,3-1.5l7.4-10.4l3.7,6
			C75.3,54,75,54.8,75,55.7c0,2,1.6,3.6,3.6,3.6s3.6-1.6,3.6-3.6c0-0.3,0-0.5-0.1-0.8L78,39.1l1.6-2.1c0.6,2.3,1.2,4.3,1.3,4.8l0,0
			c0.2,0.9,1.1,1.6,2.1,1.6c1.2,0,2.2-1,2.2-2.2S84.2,39,83,39z M5.2,32.7l-0.7-1l0,0C3.8,30.8,2,28.1,2,26c0-2.6,1.8-2.9,2.5-2.9
			c0.6,0,1.4,0.2,2,0.9c0.5,0.6,0.6,1.6,0.4,2.8C6.7,27,6,29.5,5.2,32.7z M61.6,5.5c1,0,1.7,0.8,1.7,1.7c0,0.4-0.1,0.7-0.3,1
			l-0.3,0.4l3.1,6.5c-0.4,1.1-0.7,2.2-0.7,3.4l-5-10.8C60,7.5,60,7.3,60,7.1C59.8,6.3,60.6,5.5,61.6,5.5z M50.9,10.3h-4.4V8.2H51
			L50.9,10.3z M45,10.3h-4.4V8.2H45V10.3z M39.1,10.3h-4.4l-0.1-2.1H39L39.1,10.3z M33.1,10.3H29l-0.2-2.1h4.3V10.3z M56.5,11.9
			l-0.2,2.5h-27l-0.2-2.5H56.5z M56.6,10.3h-4.2l0.1-2.1h4.3L56.6,10.3z M54.2,2.6l-0.1,2.7h1.5l0.1-2.7h1.5l-0.3,4.1h-4.4l0.1-4.1
			C52.7,2.6,54.2,2.6,54.2,2.6z M48.1,2.6L48,5.3h1.5l0.1-2.7h1.5L51,6.7h-4.5l0.1-4.1H48.1z M42,2.6v2.7h1.5V2.6H45v4.1h-4.5
			l-0.1-4.1C40.5,2.6,42,2.6,42,2.6z M35.9,2.6L36,5.3h1.5l-0.1-2.7H39v4.1h-4.5l-0.1-4.1H35.9z M29.8,2.6L30,5.3h1.5l-0.1-2.7h1.5
			L33,6.7h-4.4l-0.3-4.1C28.3,2.6,29.8,2.6,29.8,2.6z M27.3,8.7l0.6,7.2h29.8l0.6-7.2l6.5,14l-3.3,2.4C61.3,25,61,25,60.7,25
			l0.6-6.5h-37l0.6,6.5c-0.3,0-0.6,0-0.9,0.1l-3.3-2.4L27.3,8.7z M28.4,27.4h3.9l2.5,2.4h-6.4c0.1-0.4,0.2-0.8,0.2-1.2
			C28.6,28.2,28.5,27.8,28.4,27.4z M27.4,25.9c-0.1-0.1-0.3-0.3-0.5-0.4l-0.3-3.6l4.1,3.9h-3.3C27.4,25.8,27.4,25.9,27.4,25.9z
			 M22.9,8.7l-0.3-0.4c-0.2-0.3-0.3-0.7-0.3-1c0-1,0.8-1.7,1.7-1.7c1,0,1.7,0.8,1.7,1.7c0,0.2,0,0.4-0.1,0.6l-5,10.8
			c-0.1-1.2-0.3-2.3-0.7-3.4L22.9,8.7z M15.2,37.4c0.4,0.1,1.2,0.3,1.5,1.2l5.6,15.8l0.9-0.3c0.2-0.1,0.4-0.1,0.5-0.1
			c1,0,1.7,0.8,1.7,1.7s-0.8,1.7-1.7,1.7c-0.6,0-1.1-0.3-1.4-0.7l-7.8-11.1l0.5-0.9c0.3-0.6,0.5-1.2,0.5-1.8c0-1.6-1.1-3-2.6-3.4
			l0.8-1.8C14,37.5,14.6,37.3,15.2,37.4z M10.7,39.8l1.1,1.5c0.1,0,0.2,0,0.3,0c0.9,0,1.6,0.7,1.6,1.6c0,0.3-0.1,0.6-0.2,0.8
			l-6.3,10L8,54.2c0.5,0.3,0.8,0.9,0.8,1.4c0,1-0.8,1.7-1.7,1.7s-1.7-0.8-1.7-1.7c0-0.1,0-0.2,0-0.4l8.1-30.9l3.4,2.5L10.7,39.8z
			 M25,30.3c-0.4,0-0.8-0.1-1.1-0.4l-19-14.1c-1.8-1.4-2.8-3.5-2.8-5.7c0-3.3,2.2-6.1,5.2-7v3.6c0,0.9,0.4,1.7,1,2.3
			c0.6,0.7,1.4,1,2.2,1c0.1,0,0.1,0,0.2,0l1.4-0.1c0.3,0.1,0.6,0.2,0.7,0.2c3.8,1.5,6.3,5.2,6.3,9.3c0,0.6-0.1,1.3-0.2,1.9l-4-2.9
			l-0.5,2l9.3,6.9l0.5-0.2c0.4-0.2,0.9-0.2,1.4,0c0.6,0.3,1.1,0.9,1.1,1.6c0,0.6-0.3,1.1-0.8,1.4C25.6,30.2,25.3,30.3,25,30.3z
			 M27.4,31.3h8.9l2.5,2.4H27.7L27.4,31.3z M27.8,35.2h12.6l2.5,2.4H28.1L27.8,35.2z M28.2,39.1h16.3l2.5,2.4H28.4L28.2,39.1z
			 M28.8,45.1l-0.2-2h20l2.5,2.4H28.8C28.8,45.3,28.8,45.2,28.8,45.1z M29.1,47h23.5l2.5,2.4h-25C29.7,48.6,29.4,47.8,29.1,47z
			 M42.8,57.5c-2.8,0-5.6-1-7.9-2.6h15.8C48.4,56.5,45.6,57.5,42.8,57.5z M52.5,53.3H33c-0.8-0.7-1.4-1.5-2-2.4h23.6
			C54,51.8,53.3,52.6,52.5,53.3z M56.8,45.1c-0.1,0.9-0.3,1.8-0.6,2.7L27.7,20.4h31.5l-0.5,5.1c-1,0.7-1.7,1.8-1.7,3.1
			c0,1,0.4,2,1.1,2.6L56.8,45.1z M61.7,29.9L61.7,29.9c-0.3,0.3-0.7,0.4-1.1,0.4c-0.3,0-0.7-0.1-1-0.3c-0.5-0.3-0.8-0.9-0.8-1.4
			c0-0.7,0.4-1.3,1.1-1.6c0.4-0.2,0.9-0.2,1.4,0l0.5,0.2l9.3-6.9l-0.5-2l-4,2.9c-0.1-0.6-0.2-1.2-0.2-1.9c0-4.1,2.5-7.7,6.3-9.3
			c0.1,0,0.4-0.1,0.7-0.2l1.4,0.1c0.1,0,0.1,0,0.2,0c0.8,0,1.6-0.3,2.2-0.9c0.6-0.6,1-1.4,1-2.3V3.1c3.1,0.9,5.2,3.7,5.2,7
			c0,2.2-1,4.3-2.8,5.7L61.7,29.9z M63.3,56.7c-0.3,0.5-0.9,0.7-1.4,0.7c-1,0-1.7-0.8-1.7-1.7S61,54,61.9,54c0.2,0,0.4,0,0.5,0.1
			l0.9,0.3l5.6-15.8c0.3-0.9,1.1-1.1,1.5-1.2c0.6-0.1,1.2,0.1,1.4,0.3l0.8,1.8C71.1,39.9,70,41.3,70,43c0,0.6,0.2,1.3,0.5,1.8
			l0.5,0.9L63.3,56.7z M80.3,55.4c0,0.1,0,0.2,0,0.4c0,1-0.8,1.7-1.7,1.7s-1.7-0.8-1.7-1.7c0-0.6,0.3-1.1,0.8-1.4l0.8-0.5l-6.3-10
			C72,43.6,72,43.4,72,43.1c0-0.9,0.7-1.6,1.6-1.6c0.1,0,0.2,0,0.3,0L75,40l-6-12.9l3.4-2.5L80.3,55.4z M78.8,26.7
			c-0.3-1.3-0.2-2.2,0.4-2.8c0.5-0.6,1.4-0.9,2-0.9c0.8,0,2.5,0.3,2.5,2.9c0,2.5-2.5,5.6-2.5,5.7l-0.8,1
			C79.6,29.5,78.9,27,78.8,26.7z"/>
	</g>
	<g id="Stadt_Zürich">
		<g>
			<g>
				<path class="st1" d="M112.2,2.2c2.2,0,3.9,0.5,5.2,1.5c1.3,1,1.9,2.4,1.9,4.2h-3.8c0-0.9-0.4-1.6-0.9-2
					c-0.6-0.4-1.4-0.7-2.6-0.7c-0.8,0-1.5,0.2-2,0.5s-0.8,0.9-0.8,1.5c0,0.5,0.2,0.9,0.5,1.1c0.3,0.2,0.7,0.4,1.3,0.6
					c0.6,0.2,1.6,0.4,3,0.8c1.5,0.4,2.6,0.8,3.4,1.2s1.4,1,1.8,1.7s0.6,1.5,0.6,2.5c0,1.1-0.3,2.1-0.9,3s-1.5,1.6-2.6,2
					s-2.4,0.7-3.9,0.7c-2.2,0-4-0.6-5.5-1.7c-1.4-1.1-2.1-2.6-2.1-4.6v-0.1h3.8c0,1,0.4,1.9,1.1,2.4c0.7,0.6,1.7,0.9,2.8,0.9
					c1,0,1.9-0.2,2.5-0.6s1-0.9,1-1.7c0-0.5-0.2-0.9-0.5-1.2s-0.8-0.6-1.4-0.8s-1.6-0.5-2.9-0.8c-1.6-0.4-2.8-0.8-3.5-1.3
					s-1.3-1-1.7-1.6c-0.4-0.6-0.6-1.4-0.6-2.3c0-1.1,0.3-2.1,1-2.9c0.6-0.8,1.5-1.4,2.5-1.8C110,2.4,111.1,2.2,112.2,2.2z"/>
				<path class="st1" d="M126.4,3.7v3.9h2.6V10h-2.6v6.4c0,0.6,0.1,1,0.3,1.2c0.2,0.2,0.6,0.3,1.2,0.3c0.4,0,0.8,0,1.1-0.1v2.8
					c-0.5,0.1-1.2,0.1-2.1,0.1c-1.4,0-2.4-0.2-3-0.7c-0.7-0.5-1-1.3-1-2.4V9.9h-2.1V7.5h2.1V3.7H126.4z"/>
				<path class="st1" d="M137.1,7.2c3.8,0,5.6,1.2,5.6,3.7v6.8c0,1.3,0.1,2.2,0.5,2.7h-3.6c-0.1-0.4-0.2-0.8-0.2-1.2
					c-1,1.1-2.5,1.6-4.3,1.6c-1.3,0-2.4-0.3-3.2-1s-1.2-1.6-1.2-2.8s0.4-2.1,1.1-2.7c0.8-0.7,2.2-1.1,4.2-1.3
					c1.4-0.1,2.3-0.3,2.7-0.6c0.4-0.2,0.6-0.6,0.6-1c0-0.6-0.2-1-0.5-1.3c-0.4-0.3-0.9-0.4-1.8-0.4c-0.7,0-1.3,0.2-1.7,0.5
					s-0.6,0.8-0.7,1.5H131c0.1-1.4,0.7-2.5,1.8-3.2C133.8,7.6,135.3,7.2,137.1,7.2z M134.1,16.8c0,1.1,0.7,1.6,2.2,1.6
					c1.9,0,2.9-1,2.9-2.9v-1.4c-0.3,0.3-1,0.5-2.1,0.6c-1,0.1-1.7,0.3-2.2,0.6C134.4,15.7,134.1,16.1,134.1,16.8z"/>
				<path class="st1" d="M158,2.6v17.8h-3.4v-1.6l0,0c-0.8,1.3-2.1,2-3.9,2c-1.8,0-3.2-0.6-4.2-1.9s-1.6-3-1.6-5s0.5-3.6,1.6-4.8
					s2.4-1.9,4.1-1.9c0.8,0,1.5,0.2,2.2,0.5s1.2,0.8,1.6,1.4h0.1V2.6H158z M148.4,14c0,1.2,0.3,2.2,0.8,3c0.6,0.8,1.3,1.2,2.3,1.2
					s1.8-0.4,2.3-1.1s0.8-1.8,0.8-3.1s-0.3-2.3-0.8-3s-1.3-1.1-2.3-1.1s-1.8,0.4-2.3,1.1C148.7,11.7,148.4,12.7,148.4,14z"/>
				<path class="st1" d="M165.5,3.7v3.9h2.6V10h-2.6v6.4c0,0.6,0.1,1,0.3,1.2s0.6,0.3,1.2,0.3c0.4,0,0.8,0,1.1-0.1v2.8
					c-0.5,0.1-1.2,0.1-2.1,0.1c-1.4,0-2.4-0.2-3-0.7c-0.7-0.5-1-1.3-1-2.4V9.9h-2.1V7.5h2.1V3.7H165.5z"/>
				<path class="st1" d="M190,2.6v3.1l-9.6,11.4h9.8v3.3h-15v-3.1l9.6-11.4H176V2.6H190z"/>
				<path class="st1" d="M195.6,7.5v7.3c0,1,0.2,1.8,0.5,2.3s0.9,0.8,1.8,0.8c1,0,1.7-0.3,2.1-0.9c0.4-0.6,0.6-1.5,0.6-2.8V7.5h3.5
					v12.9h-3.4v-1.8h-0.1c-0.9,1.4-2.2,2.1-4,2.1c-1.7,0-2.9-0.4-3.6-1.3c-0.7-0.9-1.1-2.2-1.1-4v-8L195.6,7.5L195.6,7.5z
					 M197.3,2.6v2.9h-3.4V2.6H197.3z M202.4,2.6v2.9H199V2.6H202.4z"/>
				<path class="st1" d="M214.7,7.2c0.3,0,0.6,0,0.8,0.1v3.3c-0.4-0.1-0.8-0.1-1.3-0.1c-2.3,0-3.5,1.4-3.5,4.1v5.8h-3.5V7.5h3.4v2.4
					l0,0c0.3-0.8,0.9-1.5,1.7-2C213,7.4,213.8,7.2,214.7,7.2z"/>
				<path class="st1" d="M220.9,2.6v2.9h-3.5V2.6H220.9z M220.9,7.5v12.9h-3.5V7.5H220.9z"/>
				<path class="st1" d="M229.7,7.2c1.8,0,3.2,0.4,4.3,1.3s1.7,2.1,1.8,3.6h-3.5c-0.2-1.5-1.1-2.2-2.6-2.2c-0.9,0-1.7,0.4-2.2,1.1
					c-0.5,0.8-0.8,1.8-0.8,3s0.3,2.2,0.8,2.9s1.2,1.1,2.2,1.1c1.6,0,2.6-0.9,2.8-2.6h3.4c-0.2,1.7-0.9,3-2,3.9s-2.5,1.4-4.2,1.4
					c-1.9,0-3.5-0.6-4.7-1.8c-1.2-1.2-1.8-2.8-1.8-4.8c0-2.1,0.6-3.8,1.8-5.1C226.1,7.8,227.7,7.2,229.7,7.2z"/>
				<path class="st1" d="M241.5,2.6v6.7h0.1c0.4-0.7,0.9-1.2,1.6-1.6c0.7-0.4,1.4-0.6,2.2-0.6c1.6,0,2.8,0.4,3.6,1.2
					c0.7,0.8,1.1,2.1,1.1,3.9v8.1h-3.5V13c0-1-0.2-1.8-0.5-2.3s-0.9-0.8-1.8-0.8c-1,0-1.6,0.3-2.1,0.9c-0.4,0.6-0.7,1.5-0.7,2.8v6.8
					H238V2.6C237.9,2.6,241.5,2.6,241.5,2.6z"/>
			</g>
		</g>
	</g>
</g>
</svg>
